M48
; DRILL file {KiCad 8.0.5+1} date 2024-11-03T00:00:47+0000
; FORMAT={-:-/ absolute / metric / decimal}
; #@! TF.CreationDate,2024-11-03T00:00:47+00:00
; #@! TF.GenerationSoftware,Kicad,Pcbnew,8.0.5+1
; #@! TF.FileFunction,Plated,1,6,PTH
FMAT,2
METRIC
; #@! TA.AperFunction,Plated,PTH,ViaDrill
T1C0.300
; #@! TA.AperFunction,Plated,PTH,ComponentDrill
T2C0.762
%
G90
G05
T1
X38.92Y-84.95
X38.92Y-110.35
X38.92Y-123.05
X41.6Y-90.0
X42.0Y-97.7
X42.5Y-90.4
X43.1Y-118.7
X43.4Y-106.7
X52.5Y-91.5
X52.7Y-105.9
X52.7Y-118.3
X56.7Y-79.87
X56.7Y-84.95
X56.7Y-110.35
X56.7Y-123.05
X65.2Y-84.1
X67.2Y-110.9
X68.625Y-86.64
X68.625Y-110.64
X70.08Y-94.446
X70.3Y-127.1
X71.625Y-84.14
X71.625Y-115.14
X73.2Y-113.5
X74.725Y-116.14
X75.125Y-83.14
X75.3Y-92.9
X77.5Y-91.2
X79.125Y-83.14
X81.3Y-91.4
X82.125Y-83.64
X83.8Y-92.4
X84.125Y-115.64
X84.9Y-125.0
X86.125Y-86.14
X86.6Y-105.8
X87.125Y-114.14
X87.9Y-118.9
X88.6Y-116.7
X88.7Y-89.6
X89.125Y-110.64
X89.826Y-118.774
X90.351Y-120.149
X91.4Y-121.352
X92.172Y-115.6
X92.625Y-86.64
X92.625Y-110.64
X93.8Y-128.2
X94.572Y-93.85
X94.648Y-118.924
X95.625Y-84.14
X95.625Y-115.14
X96.8Y-124.0
X97.322Y-91.25
X97.822Y-117.05
X98.1Y-127.3
X98.725Y-116.14
X99.125Y-83.14
X99.873Y-124.852
X100.1Y-128.2
X100.623Y-90.9
X100.822Y-116.5
X101.322Y-111.6
X101.772Y-117.452
X102.1Y-124.6
X103.125Y-83.14
X103.722Y-116.802
X104.964Y-114.891
X105.581Y-113.709
X105.772Y-91.95
X105.972Y-118.452
X105.972Y-119.302
X105.972Y-120.102
X106.029Y-120.9
X106.125Y-83.64
X106.222Y-112.25
X108.125Y-115.64
X108.472Y-91.35
X110.125Y-86.14
X111.125Y-114.14
X111.472Y-115.95
X111.672Y-93.55
X111.7Y-122.6
X111.7Y-123.4
X111.7Y-124.2
X113.125Y-110.64
X117.5Y-90.0
X118.4Y-125.2
X121.172Y-115.6
X121.625Y-86.64
X121.625Y-110.64
X122.4Y-119.4
X123.572Y-93.85
X123.648Y-118.924
X124.625Y-84.14
X124.625Y-115.14
X126.2Y-127.3
X126.322Y-91.25
X126.822Y-117.05
X127.725Y-116.14
X128.125Y-83.14
X128.873Y-124.852
X129.3Y-128.2
X129.623Y-90.9
X129.822Y-116.5
X130.322Y-111.6
X130.773Y-117.452
X131.4Y-124.7
X132.125Y-83.14
X132.722Y-116.802
X133.964Y-114.891
X134.581Y-113.709
X134.773Y-91.95
X134.972Y-118.452
X134.972Y-119.302
X134.972Y-120.102
X135.029Y-120.9
X135.125Y-83.64
X135.222Y-112.25
X137.125Y-115.64
X137.472Y-91.35
X139.125Y-86.14
X139.7Y-125.7
X140.125Y-114.14
X140.472Y-115.95
X140.672Y-93.55
X140.7Y-122.9
X142.1Y-122.5
X142.125Y-110.64
X142.9Y-86.6
X145.172Y-115.6
X145.625Y-86.64
X145.625Y-110.64
X147.4Y-120.2
X147.572Y-93.85
X147.648Y-118.924
X148.4Y-120.8
X148.625Y-84.14
X148.625Y-115.14
X150.1Y-127.3
X150.322Y-91.25
X150.822Y-117.05
X151.725Y-116.14
X152.125Y-83.14
X152.873Y-124.852
X153.4Y-128.2
X153.623Y-90.9
X153.822Y-116.5
X154.322Y-111.6
X154.772Y-117.452
X155.4Y-124.9
X156.125Y-83.14
X156.722Y-116.802
X157.964Y-114.891
X158.581Y-113.709
X158.772Y-91.95
X158.8Y-122.8
X158.9Y-122.1
X158.972Y-118.452
X158.972Y-119.302
X158.972Y-120.102
X159.029Y-120.9
X159.125Y-83.64
X159.222Y-112.25
X161.125Y-115.64
X161.472Y-91.35
X163.125Y-86.14
X164.125Y-114.14
X164.472Y-115.95
X164.672Y-93.55
X166.125Y-110.64
X166.3Y-122.1
X169.1Y-87.1
X174.172Y-115.6
X174.625Y-86.64
X174.625Y-110.64
X176.572Y-93.85
X176.648Y-118.924
X177.625Y-84.14
X177.625Y-115.14
X179.1Y-127.3
X179.322Y-91.25
X179.822Y-117.05
X180.725Y-116.14
X181.125Y-83.14
X181.873Y-124.852
X182.5Y-128.2
X182.623Y-90.9
X182.822Y-116.5
X183.322Y-111.6
X183.772Y-117.452
X184.8Y-124.7
X185.125Y-83.14
X185.722Y-116.802
X186.964Y-114.891
X187.581Y-113.709
X187.772Y-91.95
X187.972Y-118.452
X187.972Y-119.302
X187.972Y-120.102
X188.029Y-120.9
X188.125Y-83.64
X188.222Y-112.25
X190.125Y-115.64
X190.472Y-91.35
X192.125Y-86.14
X193.125Y-114.14
X193.472Y-115.95
X193.672Y-93.55
X195.125Y-110.64
X195.8Y-86.7
X196.4Y-122.3
X198.172Y-115.6
X198.625Y-86.64
X198.625Y-110.64
X200.572Y-93.85
X200.648Y-118.924
X201.625Y-84.14
X201.625Y-115.14
X202.8Y-127.3
X203.322Y-91.25
X203.8Y-128.1
X203.822Y-117.05
X204.725Y-116.14
X205.125Y-83.14
X205.873Y-124.852
X206.623Y-90.9
X206.822Y-116.5
X207.322Y-111.6
X207.772Y-117.452
X209.1Y-124.9
X209.125Y-83.14
X209.4Y-81.93
X209.722Y-116.802
X210.964Y-114.891
X211.581Y-113.709
X211.772Y-91.95
X211.972Y-118.452
X211.972Y-119.302
X211.972Y-120.102
X212.029Y-120.9
X212.125Y-83.64
X212.222Y-112.25
X214.125Y-115.64
X214.472Y-91.35
X216.125Y-86.14
X217.125Y-114.14
X217.472Y-115.95
X217.672Y-93.55
X219.125Y-110.64
X221.2Y-92.065
X223.1Y-99.115
X223.15Y-100.565
X223.4Y-84.765
X224.2Y-93.065
X225.4Y-100.065
X225.826Y-95.281
X226.1Y-86.64
X226.1Y-121.9
X226.9Y-100.065
X227.1Y-108.7
X227.5Y-92.49
X229.31Y-86.38
X232.6Y-116.95
X232.6Y-117.665
X232.6Y-118.965
X232.6Y-120.565
X232.6Y-121.565
X232.6Y-122.365
X232.65Y-123.365
X232.65Y-124.265
X232.65Y-125.115
X235.55Y-119.0
X235.65Y-85.765
X235.65Y-89.065
X236.0Y-91.665
X237.8Y-106.63
X237.8Y-122.965
X237.9Y-91.665
X238.6Y-85.765
X238.6Y-89.065
X240.944Y-114.034
X241.5Y-121.0
X242.0Y-85.1
X242.4Y-91.2
T2
X72.54Y-100.663
X72.857Y-98.05
X73.474Y-103.124
X74.353Y-95.883
X75.444Y-104.87
X76.684Y-94.66
X78.0Y-105.5
X79.316Y-94.66
X80.556Y-104.87
X81.647Y-95.883
X82.526Y-103.124
X83.143Y-98.05
X83.46Y-100.663
X96.54Y-100.663
X96.857Y-98.05
X97.474Y-103.124
X98.353Y-95.883
X99.444Y-104.87
X100.684Y-94.66
X102.0Y-105.5
X103.316Y-94.66
X104.556Y-104.87
X105.647Y-95.883
X106.526Y-103.124
X107.143Y-98.05
X107.46Y-100.663
X125.54Y-100.663
X125.857Y-98.05
X126.474Y-103.124
X127.353Y-95.883
X128.444Y-104.87
X129.684Y-94.66
X131.0Y-105.5
X132.316Y-94.66
X133.556Y-104.87
X134.647Y-95.883
X135.526Y-103.124
X136.143Y-98.05
X136.46Y-100.663
X149.54Y-100.663
X149.857Y-98.05
X150.474Y-103.124
X151.353Y-95.883
X152.444Y-104.87
X153.684Y-94.66
X155.0Y-105.5
X156.316Y-94.66
X157.556Y-104.87
X158.647Y-95.883
X159.526Y-103.124
X160.143Y-98.05
X160.46Y-100.663
X178.54Y-100.663
X178.857Y-98.05
X179.474Y-103.124
X180.353Y-95.883
X181.444Y-104.87
X182.684Y-94.66
X184.0Y-105.5
X185.316Y-94.66
X186.556Y-104.87
X187.647Y-95.883
X188.526Y-103.124
X189.143Y-98.05
X189.46Y-100.663
X202.54Y-100.663
X202.857Y-98.05
X203.474Y-103.124
X204.353Y-95.883
X205.444Y-104.87
X206.684Y-94.66
X208.0Y-105.5
X209.316Y-94.66
X210.556Y-104.87
X211.647Y-95.883
X212.526Y-103.124
X213.143Y-98.05
X213.46Y-100.663
M30
