G04 #@! TF.GenerationSoftware,KiCad,Pcbnew,8.0.5+1*
G04 #@! TF.CreationDate,2024-11-03T00:00:47+00:00*
G04 #@! TF.ProjectId,nixie_clock,6e697869-655f-4636-9c6f-636b2e6b6963,rev?*
G04 #@! TF.SameCoordinates,Original*
G04 #@! TF.FileFunction,Copper,L6,Bot*
G04 #@! TF.FilePolarity,Positive*
%FSLAX46Y46*%
G04 Gerber Fmt 4.6, Leading zero omitted, Abs format (unit mm)*
G04 Created by KiCad (PCBNEW 8.0.5+1) date 2024-11-03 00:00:47*
%MOMM*%
%LPD*%
G01*
G04 APERTURE LIST*
G04 #@! TA.AperFunction,ComponentPad*
%ADD10O,2.000000X3.000000*%
G04 #@! TD*
G04 #@! TA.AperFunction,ComponentPad*
%ADD11C,2.000000*%
G04 #@! TD*
G04 #@! TA.AperFunction,ViaPad*
%ADD12C,0.600000*%
G04 #@! TD*
G04 #@! TA.AperFunction,Conductor*
%ADD13C,0.200000*%
G04 #@! TD*
G04 APERTURE END LIST*
D10*
G04 #@! TO.P,V4,1,Anode*
G04 #@! TO.N,+170V*
X184000000Y-105500000D03*
D11*
G04 #@! TO.P,V4,2,Comma_L*
G04 #@! TO.N,Net-(U48-COLLECTOR)*
X181444023Y-104870008D03*
G04 #@! TO.P,V4,3,Cath_1*
G04 #@! TO.N,Net-(U49-COLLECTOR)*
X179473589Y-103124356D03*
G04 #@! TO.P,V4,4,Cath_2*
G04 #@! TO.N,Net-(U50-COLLECTOR)*
X178540101Y-100662952D03*
G04 #@! TO.P,V4,5,Cath_3*
G04 #@! TO.N,Net-(U51-COLLECTOR)*
X178857411Y-98049673D03*
G04 #@! TO.P,V4,6,Cath_4*
G04 #@! TO.N,Net-(U52-COLLECTOR)*
X180352825Y-95883191D03*
G04 #@! TO.P,V4,7,Cath_5*
G04 #@! TO.N,Net-(U53-COLLECTOR)*
X182683764Y-94659820D03*
G04 #@! TO.P,V4,8,Cath_6*
G04 #@! TO.N,Net-(U47-COLLECTOR)*
X185316236Y-94659820D03*
G04 #@! TO.P,V4,9,Cath_7*
G04 #@! TO.N,Net-(U46-COLLECTOR)*
X187647175Y-95883191D03*
G04 #@! TO.P,V4,10,Cath_8*
G04 #@! TO.N,Net-(U45-COLLECTOR)*
X189142589Y-98049673D03*
G04 #@! TO.P,V4,11,Cath_9*
G04 #@! TO.N,Net-(U44-COLLECTOR)*
X189459899Y-100662952D03*
G04 #@! TO.P,V4,12,Cath_0*
G04 #@! TO.N,Net-(U43-COLLECTOR)*
X188526411Y-103124356D03*
G04 #@! TO.P,V4,13,Comma_R*
G04 #@! TO.N,Net-(U42-COLLECTOR)*
X186555977Y-104870008D03*
G04 #@! TD*
D10*
G04 #@! TO.P,V5,1,Anode*
G04 #@! TO.N,+170V*
X208000000Y-105500000D03*
D11*
G04 #@! TO.P,V5,2,Comma_L*
G04 #@! TO.N,Net-(U61-COLLECTOR)*
X205444023Y-104870008D03*
G04 #@! TO.P,V5,3,Cath_1*
G04 #@! TO.N,Net-(U62-COLLECTOR)*
X203473589Y-103124356D03*
G04 #@! TO.P,V5,4,Cath_2*
G04 #@! TO.N,Net-(U63-COLLECTOR)*
X202540101Y-100662952D03*
G04 #@! TO.P,V5,5,Cath_3*
G04 #@! TO.N,Net-(U64-COLLECTOR)*
X202857411Y-98049673D03*
G04 #@! TO.P,V5,6,Cath_4*
G04 #@! TO.N,Net-(U65-COLLECTOR)*
X204352825Y-95883191D03*
G04 #@! TO.P,V5,7,Cath_5*
G04 #@! TO.N,Net-(U78-COLLECTOR)*
X206683764Y-94659820D03*
G04 #@! TO.P,V5,8,Cath_6*
G04 #@! TO.N,Net-(U60-COLLECTOR)*
X209316236Y-94659820D03*
G04 #@! TO.P,V5,9,Cath_7*
G04 #@! TO.N,Net-(U59-COLLECTOR)*
X211647175Y-95883191D03*
G04 #@! TO.P,V5,10,Cath_8*
G04 #@! TO.N,Net-(U58-COLLECTOR)*
X213142589Y-98049673D03*
G04 #@! TO.P,V5,11,Cath_9*
G04 #@! TO.N,Net-(U57-COLLECTOR)*
X213459899Y-100662952D03*
G04 #@! TO.P,V5,12,Cath_0*
G04 #@! TO.N,Net-(U56-COLLECTOR)*
X212526411Y-103124356D03*
G04 #@! TO.P,V5,13,Comma_R*
G04 #@! TO.N,Net-(U55-COLLECTOR)*
X210555977Y-104870008D03*
G04 #@! TD*
D10*
G04 #@! TO.P,V2,1,Anode*
G04 #@! TO.N,+170V*
X102000000Y-105500000D03*
D11*
G04 #@! TO.P,V2,2,Comma_L*
G04 #@! TO.N,Net-(U22-COLLECTOR)*
X99444023Y-104870008D03*
G04 #@! TO.P,V2,3,Cath_1*
G04 #@! TO.N,Net-(U23-COLLECTOR)*
X97473589Y-103124356D03*
G04 #@! TO.P,V2,4,Cath_2*
G04 #@! TO.N,Net-(U24-COLLECTOR)*
X96540101Y-100662952D03*
G04 #@! TO.P,V2,5,Cath_3*
G04 #@! TO.N,Net-(U25-COLLECTOR)*
X96857411Y-98049673D03*
G04 #@! TO.P,V2,6,Cath_4*
G04 #@! TO.N,Net-(U26-COLLECTOR)*
X98352825Y-95883191D03*
G04 #@! TO.P,V2,7,Cath_5*
G04 #@! TO.N,Net-(U27-COLLECTOR)*
X100683764Y-94659820D03*
G04 #@! TO.P,V2,8,Cath_6*
G04 #@! TO.N,Net-(U21-COLLECTOR)*
X103316236Y-94659820D03*
G04 #@! TO.P,V2,9,Cath_7*
G04 #@! TO.N,Net-(U20-COLLECTOR)*
X105647175Y-95883191D03*
G04 #@! TO.P,V2,10,Cath_8*
G04 #@! TO.N,Net-(U19-COLLECTOR)*
X107142589Y-98049673D03*
G04 #@! TO.P,V2,11,Cath_9*
G04 #@! TO.N,Net-(U18-COLLECTOR)*
X107459899Y-100662952D03*
G04 #@! TO.P,V2,12,Cath_0*
G04 #@! TO.N,Net-(U17-COLLECTOR)*
X106526411Y-103124356D03*
G04 #@! TO.P,V2,13,Comma_R*
G04 #@! TO.N,Net-(U16-COLLECTOR)*
X104555977Y-104870008D03*
G04 #@! TD*
D10*
G04 #@! TO.P,V6,1,Anode*
G04 #@! TO.N,+170V*
X78000000Y-105500000D03*
D11*
G04 #@! TO.P,V6,2,Comma_L*
G04 #@! TO.N,Net-(U72-COLLECTOR)*
X75444023Y-104870008D03*
G04 #@! TO.P,V6,3,Cath_1*
G04 #@! TO.N,Net-(U73-COLLECTOR)*
X73473589Y-103124356D03*
G04 #@! TO.P,V6,4,Cath_2*
G04 #@! TO.N,Net-(U74-COLLECTOR)*
X72540101Y-100662952D03*
G04 #@! TO.P,V6,5,Cath_3*
G04 #@! TO.N,Net-(U75-COLLECTOR)*
X72857411Y-98049673D03*
G04 #@! TO.P,V6,6,Cath_4*
G04 #@! TO.N,Net-(U76-COLLECTOR)*
X74352825Y-95883191D03*
G04 #@! TO.P,V6,7,Cath_5*
G04 #@! TO.N,Net-(U77-COLLECTOR)*
X76683764Y-94659820D03*
G04 #@! TO.P,V6,8,Cath_6*
G04 #@! TO.N,Net-(U71-COLLECTOR)*
X79316236Y-94659820D03*
G04 #@! TO.P,V6,9,Cath_7*
G04 #@! TO.N,Net-(U70-COLLECTOR)*
X81647175Y-95883191D03*
G04 #@! TO.P,V6,10,Cath_8*
G04 #@! TO.N,Net-(U69-COLLECTOR)*
X83142589Y-98049673D03*
G04 #@! TO.P,V6,11,Cath_9*
G04 #@! TO.N,Net-(U68-COLLECTOR)*
X83459899Y-100662952D03*
G04 #@! TO.P,V6,12,Cath_0*
G04 #@! TO.N,Net-(U67-COLLECTOR)*
X82526411Y-103124356D03*
G04 #@! TO.P,V6,13,Comma_R*
G04 #@! TO.N,Net-(U66-COLLECTOR)*
X80555977Y-104870008D03*
G04 #@! TD*
D10*
G04 #@! TO.P,V1,1,Anode*
G04 #@! TO.N,+170V*
X155000000Y-105500000D03*
D11*
G04 #@! TO.P,V1,2,Comma_L*
G04 #@! TO.N,Net-(U7-COLLECTOR)*
X152444023Y-104870008D03*
G04 #@! TO.P,V1,3,Cath_1*
G04 #@! TO.N,Net-(U8-COLLECTOR)*
X150473589Y-103124356D03*
G04 #@! TO.P,V1,4,Cath_2*
G04 #@! TO.N,Net-(U9-COLLECTOR)*
X149540101Y-100662952D03*
G04 #@! TO.P,V1,5,Cath_3*
G04 #@! TO.N,Net-(U10-COLLECTOR)*
X149857411Y-98049673D03*
G04 #@! TO.P,V1,6,Cath_4*
G04 #@! TO.N,Net-(U11-COLLECTOR)*
X151352825Y-95883191D03*
G04 #@! TO.P,V1,7,Cath_5*
G04 #@! TO.N,Net-(U12-COLLECTOR)*
X153683764Y-94659820D03*
G04 #@! TO.P,V1,8,Cath_6*
G04 #@! TO.N,Net-(U6-COLLECTOR)*
X156316236Y-94659820D03*
G04 #@! TO.P,V1,9,Cath_7*
G04 #@! TO.N,Net-(U5-COLLECTOR)*
X158647175Y-95883191D03*
G04 #@! TO.P,V1,10,Cath_8*
G04 #@! TO.N,Net-(U4-COLLECTOR)*
X160142589Y-98049673D03*
G04 #@! TO.P,V1,11,Cath_9*
G04 #@! TO.N,Net-(U3-COLLECTOR)*
X160459899Y-100662952D03*
G04 #@! TO.P,V1,12,Cath_0*
G04 #@! TO.N,Net-(U2-COLLECTOR)*
X159526411Y-103124356D03*
G04 #@! TO.P,V1,13,Comma_R*
G04 #@! TO.N,Net-(U1-COLLECTOR)*
X157555977Y-104870008D03*
G04 #@! TD*
D10*
G04 #@! TO.P,V3,1,Anode*
G04 #@! TO.N,+170V*
X131000000Y-105500000D03*
D11*
G04 #@! TO.P,V3,2,Comma_L*
G04 #@! TO.N,Net-(U35-COLLECTOR)*
X128444023Y-104870008D03*
G04 #@! TO.P,V3,3,Cath_1*
G04 #@! TO.N,Net-(U36-COLLECTOR)*
X126473589Y-103124356D03*
G04 #@! TO.P,V3,4,Cath_2*
G04 #@! TO.N,Net-(U37-COLLECTOR)*
X125540101Y-100662952D03*
G04 #@! TO.P,V3,5,Cath_3*
G04 #@! TO.N,Net-(U38-COLLECTOR)*
X125857411Y-98049673D03*
G04 #@! TO.P,V3,6,Cath_4*
G04 #@! TO.N,Net-(U39-COLLECTOR)*
X127352825Y-95883191D03*
G04 #@! TO.P,V3,7,Cath_5*
G04 #@! TO.N,Net-(U40-COLLECTOR)*
X129683764Y-94659820D03*
G04 #@! TO.P,V3,8,Cath_6*
G04 #@! TO.N,Net-(U34-COLLECTOR)*
X132316236Y-94659820D03*
G04 #@! TO.P,V3,9,Cath_7*
G04 #@! TO.N,Net-(U33-COLLECTOR)*
X134647175Y-95883191D03*
G04 #@! TO.P,V3,10,Cath_8*
G04 #@! TO.N,Net-(U32-COLLECTOR)*
X136142589Y-98049673D03*
G04 #@! TO.P,V3,11,Cath_9*
G04 #@! TO.N,Net-(U31-COLLECTOR)*
X136459899Y-100662952D03*
G04 #@! TO.P,V3,12,Cath_0*
G04 #@! TO.N,Net-(U30-COLLECTOR)*
X135526411Y-103124356D03*
G04 #@! TO.P,V3,13,Comma_R*
G04 #@! TO.N,Net-(U29-COLLECTOR)*
X133555977Y-104870008D03*
G04 #@! TD*
D12*
G04 #@! TO.N,GND*
X42000000Y-97700000D03*
X223100000Y-99115000D03*
X223150000Y-100565000D03*
X226900000Y-100065000D03*
X225400000Y-100065000D03*
G04 #@! TO.N,/Nixie_Control/Nixie_Block2/Cath_6*
X158772500Y-91950000D03*
X157963922Y-114891422D03*
G04 #@! TO.N,/Nixie_Control/Nixie_Block2/Cath_7*
X158581079Y-113708579D03*
X161472500Y-91350000D03*
G04 #@! TO.N,/Nixie_Control/Nixie_Block2/Cath_5*
X153622500Y-90900000D03*
X156722500Y-116802031D03*
G04 #@! TO.N,/Nixie_Control/Nixie_Block2/Cath_2*
X158972500Y-120102031D03*
X145172500Y-115600000D03*
G04 #@! TO.N,/Nixie_Control/Nixie_Block2/Comma_R*
X154322500Y-111600000D03*
X150822500Y-117050000D03*
G04 #@! TO.N,/Nixie_Control/Nixie_Block2/Cath_4*
X158972500Y-118452031D03*
X150322500Y-91250000D03*
G04 #@! TO.N,/Nixie_Control/Nixie_Block2/Cath_1*
X147648235Y-118924265D03*
X159029498Y-120900000D03*
G04 #@! TO.N,/Nixie_Control/Nixie_Block2/Cath_8*
X164672500Y-93550000D03*
X159222500Y-112250000D03*
G04 #@! TO.N,/Nixie_Control/Nixie_Block2/Cath_3*
X147572500Y-93850000D03*
X158972500Y-119302028D03*
G04 #@! TO.N,/Nixie_Control/Nixie_Block2/Cath_9*
X153822500Y-116500000D03*
X164472500Y-115950000D03*
G04 #@! TO.N,GND*
X151725000Y-116140000D03*
X152125000Y-83140000D03*
X145625000Y-86640000D03*
X152872500Y-124852031D03*
X164125000Y-114140000D03*
X148625000Y-115140000D03*
X161125000Y-115640000D03*
X148625000Y-84140000D03*
X156125000Y-83140000D03*
X154772500Y-117452031D03*
X166125000Y-110640000D03*
X145625000Y-110640000D03*
X163125000Y-86140000D03*
X159125000Y-83640000D03*
G04 #@! TO.N,/Nixie_Control1/Nixie_Block2/Cath_6*
X105772500Y-91950000D03*
X104963922Y-114891422D03*
G04 #@! TO.N,/Nixie_Control1/Nixie_Block2/Cath_7*
X105581079Y-113708579D03*
X108472500Y-91350000D03*
G04 #@! TO.N,/Nixie_Control1/Nixie_Block2/Cath_5*
X100622500Y-90900000D03*
X103722500Y-116802031D03*
G04 #@! TO.N,/Nixie_Control1/Nixie_Block2/Cath_2*
X105972500Y-120102031D03*
X92172500Y-115600000D03*
G04 #@! TO.N,/Nixie_Control1/Nixie_Block2/Comma_R*
X101322500Y-111600000D03*
X97822500Y-117050000D03*
G04 #@! TO.N,/Nixie_Control1/Nixie_Block2/Cath_4*
X105972500Y-118452031D03*
X97322500Y-91250000D03*
G04 #@! TO.N,/Nixie_Control1/Nixie_Block2/Cath_1*
X94648235Y-118924265D03*
X106029498Y-120900000D03*
G04 #@! TO.N,/Nixie_Control1/Nixie_Block2/Cath_8*
X111672500Y-93550000D03*
X106222500Y-112250000D03*
G04 #@! TO.N,/Nixie_Control1/Nixie_Block2/Cath_3*
X94572500Y-93850000D03*
X105972500Y-119302028D03*
G04 #@! TO.N,/Nixie_Control1/Nixie_Block2/Cath_9*
X100822500Y-116500000D03*
X111472500Y-115950000D03*
G04 #@! TO.N,GND*
X98725000Y-116140000D03*
X99125000Y-83140000D03*
X92625000Y-86640000D03*
X99872500Y-124852031D03*
X111125000Y-114140000D03*
X95625000Y-115140000D03*
X108125000Y-115640000D03*
X95625000Y-84140000D03*
X103125000Y-83140000D03*
X101772500Y-117452031D03*
X113125000Y-110640000D03*
X92625000Y-110640000D03*
X110125000Y-86140000D03*
X106125000Y-83640000D03*
G04 #@! TO.N,/Nixie_Control4/Nixie_Block2/Cath_6*
X211772500Y-91950000D03*
X210963922Y-114891422D03*
G04 #@! TO.N,/Nixie_Control4/Nixie_Block2/Cath_7*
X211581079Y-113708579D03*
X214472500Y-91350000D03*
G04 #@! TO.N,/Nixie_Control4/Nixie_Block2/Cath_5*
X206622500Y-90900000D03*
X209722500Y-116802031D03*
G04 #@! TO.N,/Nixie_Control4/Nixie_Block2/Cath_2*
X211972500Y-120102031D03*
X198172500Y-115600000D03*
G04 #@! TO.N,/Nixie_Control4/Nixie_Block2/Comma_R*
X207322500Y-111600000D03*
X203822500Y-117050000D03*
G04 #@! TO.N,/Nixie_Control4/Nixie_Block2/Cath_4*
X211972500Y-118452031D03*
X203322500Y-91250000D03*
G04 #@! TO.N,/Nixie_Control4/Nixie_Block2/Cath_1*
X200648235Y-118924265D03*
X212029498Y-120900000D03*
G04 #@! TO.N,/Nixie_Control4/Nixie_Block2/Cath_8*
X217672500Y-93550000D03*
X212222500Y-112250000D03*
G04 #@! TO.N,/Nixie_Control4/Nixie_Block2/Cath_3*
X200572500Y-93850000D03*
X211972500Y-119302028D03*
G04 #@! TO.N,/Nixie_Control4/Nixie_Block2/Cath_9*
X206822500Y-116500000D03*
X217472500Y-115950000D03*
G04 #@! TO.N,GND*
X204725000Y-116140000D03*
X205125000Y-83140000D03*
X198625000Y-86640000D03*
X205872500Y-124852031D03*
X217125000Y-114140000D03*
X201625000Y-115140000D03*
X214125000Y-115640000D03*
X201625000Y-84140000D03*
X209125000Y-83140000D03*
X207772500Y-117452031D03*
X219125000Y-110640000D03*
X198625000Y-110640000D03*
X216125000Y-86140000D03*
X212125000Y-83640000D03*
G04 #@! TO.N,/Nixie_Control2/Nixie_Block2/Cath_6*
X134772500Y-91950000D03*
X133963922Y-114891422D03*
G04 #@! TO.N,/Nixie_Control2/Nixie_Block2/Cath_7*
X134581079Y-113708579D03*
X137472500Y-91350000D03*
G04 #@! TO.N,/Nixie_Control2/Nixie_Block2/Cath_5*
X129622500Y-90900000D03*
X132722500Y-116802031D03*
G04 #@! TO.N,/Nixie_Control2/Nixie_Block2/Cath_2*
X134972500Y-120102031D03*
X121172500Y-115600000D03*
G04 #@! TO.N,/Nixie_Control2/Nixie_Block2/Comma_R*
X130322500Y-111600000D03*
X126822500Y-117050000D03*
G04 #@! TO.N,/Nixie_Control2/Nixie_Block2/Cath_4*
X134972500Y-118452031D03*
X126322500Y-91250000D03*
G04 #@! TO.N,/Nixie_Control2/Nixie_Block2/Cath_1*
X123648235Y-118924265D03*
X135029498Y-120900000D03*
G04 #@! TO.N,/Nixie_Control2/Nixie_Block2/Cath_8*
X140672500Y-93550000D03*
X135222500Y-112250000D03*
G04 #@! TO.N,/Nixie_Control2/Nixie_Block2/Cath_3*
X123572500Y-93850000D03*
X134972500Y-119302028D03*
G04 #@! TO.N,/Nixie_Control2/Nixie_Block2/Cath_9*
X129822500Y-116500000D03*
X140472500Y-115950000D03*
G04 #@! TO.N,GND*
X127725000Y-116140000D03*
X128125000Y-83140000D03*
X121625000Y-86640000D03*
X128872500Y-124852031D03*
X140125000Y-114140000D03*
X124625000Y-115140000D03*
X137125000Y-115640000D03*
X124625000Y-84140000D03*
X132125000Y-83140000D03*
X130772500Y-117452031D03*
X142125000Y-110640000D03*
X121625000Y-110640000D03*
X139125000Y-86140000D03*
X135125000Y-83640000D03*
X68625000Y-86640000D03*
X84125000Y-115640000D03*
X68625000Y-110640000D03*
X75125000Y-83140000D03*
X86125000Y-86140000D03*
X87125000Y-114140000D03*
X74725000Y-116140000D03*
X79125000Y-83140000D03*
X71625000Y-115140000D03*
X89125000Y-110640000D03*
X82125000Y-83640000D03*
X71625000Y-84140000D03*
G04 #@! TO.N,/Nixie_Control3/Nixie_Block2/Cath_6*
X187772500Y-91950000D03*
X186963922Y-114891422D03*
G04 #@! TO.N,/Nixie_Control3/Nixie_Block2/Cath_7*
X187581079Y-113708579D03*
X190472500Y-91350000D03*
G04 #@! TO.N,/Nixie_Control3/Nixie_Block2/Cath_5*
X182622500Y-90900000D03*
X185722500Y-116802031D03*
G04 #@! TO.N,/Nixie_Control3/Nixie_Block2/Cath_2*
X187972500Y-120102031D03*
X174172500Y-115600000D03*
G04 #@! TO.N,/Nixie_Control3/Nixie_Block2/Comma_R*
X183322500Y-111600000D03*
X179822500Y-117050000D03*
G04 #@! TO.N,/Nixie_Control3/Nixie_Block2/Cath_4*
X187972500Y-118452031D03*
X179322500Y-91250000D03*
G04 #@! TO.N,/Nixie_Control3/Nixie_Block2/Cath_1*
X176648235Y-118924265D03*
X188029498Y-120900000D03*
G04 #@! TO.N,/Nixie_Control3/Nixie_Block2/Cath_8*
X193672500Y-93550000D03*
X188222500Y-112250000D03*
G04 #@! TO.N,/Nixie_Control3/Nixie_Block2/Cath_3*
X176572500Y-93850000D03*
X187972500Y-119302028D03*
G04 #@! TO.N,/Nixie_Control3/Nixie_Block2/Cath_9*
X182822500Y-116500000D03*
X193472500Y-115950000D03*
G04 #@! TO.N,GND*
X180725000Y-116140000D03*
X181125000Y-83140000D03*
X174625000Y-86640000D03*
X181872500Y-124852031D03*
X193125000Y-114140000D03*
X177625000Y-115140000D03*
X190125000Y-115640000D03*
X177625000Y-84140000D03*
X185125000Y-83140000D03*
X183772500Y-117452031D03*
X195125000Y-110640000D03*
X174625000Y-110640000D03*
X192125000Y-86140000D03*
X188125000Y-83640000D03*
X117500000Y-90000000D03*
X242400000Y-91200000D03*
X52500000Y-91500000D03*
X196400000Y-122300000D03*
X166300000Y-122100000D03*
X225825600Y-95281150D03*
X158800000Y-122800000D03*
X56700000Y-84950000D03*
X38920000Y-84950000D03*
X38920000Y-123050000D03*
X118400000Y-125200000D03*
X226100000Y-121900000D03*
X158900000Y-122100000D03*
X70300000Y-127100000D03*
X56700000Y-123050000D03*
X224200000Y-93065000D03*
X43400000Y-106700000D03*
X235650000Y-89065000D03*
X223400000Y-84765000D03*
X236000000Y-91665000D03*
X235650000Y-85765000D03*
X38920000Y-110350000D03*
X65200000Y-84100000D03*
X241500000Y-121000000D03*
X237800000Y-106630000D03*
X227500000Y-92490000D03*
X56700000Y-110350000D03*
X43100000Y-118700000D03*
X240943516Y-114033707D03*
X227100000Y-108700000D03*
X237800000Y-122965000D03*
X169100000Y-87100000D03*
X139700000Y-125700000D03*
X52700000Y-105900000D03*
X235550000Y-119000000D03*
X52700000Y-118300000D03*
X142900000Y-86600000D03*
X242000000Y-85100000D03*
X195800000Y-86700000D03*
G04 #@! TO.N,+5V*
X155400000Y-124900000D03*
X56700000Y-79870000D03*
X237900000Y-91665000D03*
X221200000Y-92065000D03*
X184800000Y-124700000D03*
X238600000Y-85765000D03*
X131400000Y-124700000D03*
X238600000Y-89065000D03*
X102100000Y-124600000D03*
X209100000Y-124900000D03*
G04 #@! TO.N,+170V*
X232600000Y-120565000D03*
X232600000Y-116950000D03*
X232650000Y-123365000D03*
X232650000Y-124265000D03*
X232600000Y-117665000D03*
X232600000Y-121565000D03*
X232650000Y-125115000D03*
X232600000Y-122365000D03*
X232600000Y-118965000D03*
G04 #@! TO.N,Net-(Q1-G)*
X229310000Y-86380000D03*
X226100000Y-86640000D03*
G04 #@! TO.N,/Nixie_Block1/Cath_2*
X67200000Y-110900000D03*
X142100000Y-122500000D03*
G04 #@! TO.N,/Nixie_Control/SCL*
X203800000Y-128100000D03*
X93800000Y-128200000D03*
X129300000Y-128200000D03*
X153400000Y-128200000D03*
X182500000Y-128200000D03*
X100100000Y-128200000D03*
G04 #@! TO.N,/Nixie_Control/Ext_Clk*
X179100000Y-127300000D03*
X42500000Y-90400000D03*
X202800000Y-127300000D03*
X150100000Y-127300000D03*
X126200000Y-127300000D03*
X98100000Y-127300000D03*
G04 #@! TO.N,/Nixie_Block1/Cath_0*
X87900000Y-118900000D03*
X147400000Y-120200000D03*
G04 #@! TO.N,/Nixie_Block1/Cath_3*
X70080015Y-94446485D03*
X140700000Y-122900000D03*
G04 #@! TO.N,/Nixie_Block1/Cath_1*
X96800000Y-124000000D03*
X148400000Y-120800000D03*
G04 #@! TO.N,/Nixie_Boost/HV_EN*
X41600000Y-90000000D03*
X209400000Y-81930000D03*
G04 #@! TO.N,/Nixie_Block1/Cath_6*
X81300000Y-91400000D03*
X90351470Y-120148530D03*
G04 #@! TO.N,/Nixie_Block1/Cath_5*
X77500000Y-91200000D03*
X89825735Y-118774265D03*
G04 #@! TO.N,/Nixie_Block1/Cath_4*
X88600000Y-116700000D03*
X75300000Y-92900000D03*
G04 #@! TO.N,/Nixie_Block1/Cath_7*
X83800000Y-92400000D03*
X91400000Y-121352031D03*
G04 #@! TO.N,/Nixie_Block1/Cath_9*
X111700000Y-122600000D03*
X86600000Y-105800000D03*
G04 #@! TO.N,/Nixie_Block1/Comma_R*
X111700000Y-124200006D03*
X84900000Y-125000000D03*
G04 #@! TO.N,/Nixie_Block1/Comma_L*
X111700000Y-123400003D03*
X73200000Y-113500000D03*
G04 #@! TO.N,/Nixie_Block1/Cath_8*
X122400000Y-119400000D03*
X88700000Y-89600000D03*
G04 #@! TD*
D13*
G04 #@! TO.N,/Nixie_Control/Nixie_Block2/Cath_6*
X161922500Y-95100000D02*
X158772500Y-91950000D01*
X157963922Y-106525323D02*
X161922500Y-102566745D01*
X157963922Y-106525323D02*
X157963922Y-114891422D01*
X161922500Y-102566745D02*
X161922500Y-95100000D01*
G04 #@! TO.N,/Nixie_Control/Nixie_Block2/Cath_7*
X158581079Y-108775735D02*
X158581079Y-113708579D01*
X158581079Y-108775735D02*
X162972500Y-104384314D01*
X162972500Y-92850000D02*
X161472500Y-91350000D01*
X162972500Y-104384314D02*
X162972500Y-92850000D01*
G04 #@! TO.N,/Nixie_Control/Nixie_Block2/Cath_5*
X152322500Y-92200000D02*
X153622500Y-90900000D01*
X147822500Y-116118628D02*
X147822500Y-96650000D01*
X152272500Y-92200000D02*
X152322500Y-92200000D01*
X156722500Y-116802031D02*
X156722500Y-118502031D01*
X150605903Y-118902031D02*
X147822500Y-116118628D01*
X147822500Y-96650000D02*
X152272500Y-92200000D01*
X156322500Y-118902031D02*
X150605903Y-118902031D01*
X156722500Y-118502031D02*
X156322500Y-118902031D01*
G04 #@! TO.N,/Nixie_Control/Nixie_Block2/Cath_2*
X158972500Y-120102031D02*
X149674530Y-120102031D01*
X158972500Y-120102031D02*
X158922500Y-120152031D01*
X149674530Y-120102031D02*
X145172500Y-115600001D01*
X145172500Y-115600001D02*
X145172500Y-115600000D01*
G04 #@! TO.N,/Nixie_Control/Nixie_Block2/Comma_R*
X150822500Y-117050000D02*
X150822500Y-115100000D01*
X150822500Y-115100000D02*
X154322500Y-111600000D01*
G04 #@! TO.N,/Nixie_Control/Nixie_Block2/Cath_4*
X150322500Y-93584314D02*
X150322500Y-91250000D01*
X147372500Y-116234314D02*
X147372500Y-96534314D01*
X147372500Y-96534314D02*
X150322500Y-93584314D01*
X158972500Y-118452031D02*
X158122500Y-119302031D01*
X150440217Y-119302031D02*
X147372500Y-116234314D01*
X158122500Y-119302031D02*
X150440217Y-119302031D01*
G04 #@! TO.N,/Nixie_Control/Nixie_Block2/Cath_1*
X149623970Y-120900000D02*
X147648235Y-118924265D01*
X159029498Y-120900000D02*
X149623970Y-120900000D01*
G04 #@! TO.N,/Nixie_Control/Nixie_Block2/Cath_8*
X159222500Y-108700000D02*
X159222500Y-112250000D01*
X164672500Y-103250000D02*
X164672500Y-93550000D01*
X159222500Y-108700000D02*
X164672500Y-103250000D01*
G04 #@! TO.N,/Nixie_Control/Nixie_Block2/Cath_3*
X158923974Y-119302028D02*
X158523971Y-119702031D01*
X158972500Y-119302028D02*
X158923974Y-119302028D01*
X150274531Y-119702031D02*
X146972500Y-116400000D01*
X158523971Y-119702031D02*
X150274531Y-119702031D01*
X146972500Y-116400000D02*
X146972500Y-94450000D01*
X146972500Y-94450000D02*
X147572500Y-93850000D01*
G04 #@! TO.N,/Nixie_Control/Nixie_Block2/Cath_9*
X156971029Y-116202031D02*
X157168998Y-116400000D01*
X157168998Y-116400000D02*
X164022500Y-116400000D01*
X164022500Y-116400000D02*
X164472500Y-115950000D01*
X154120469Y-116202031D02*
X156971029Y-116202031D01*
X153822500Y-116500000D02*
X154120469Y-116202031D01*
G04 #@! TO.N,/Nixie_Control1/Nixie_Block2/Cath_6*
X108922500Y-95100000D02*
X105772500Y-91950000D01*
X104963922Y-106525323D02*
X108922500Y-102566745D01*
X104963922Y-106525323D02*
X104963922Y-114891422D01*
X108922500Y-102566745D02*
X108922500Y-95100000D01*
G04 #@! TO.N,/Nixie_Control1/Nixie_Block2/Cath_7*
X105581079Y-108775735D02*
X105581079Y-113708579D01*
X105581079Y-108775735D02*
X109972500Y-104384314D01*
X109972500Y-92850000D02*
X108472500Y-91350000D01*
X109972500Y-104384314D02*
X109972500Y-92850000D01*
G04 #@! TO.N,/Nixie_Control1/Nixie_Block2/Cath_5*
X99322500Y-92200000D02*
X100622500Y-90900000D01*
X94822500Y-116118628D02*
X94822500Y-96650000D01*
X99272500Y-92200000D02*
X99322500Y-92200000D01*
X103722500Y-116802031D02*
X103722500Y-118502031D01*
X97605903Y-118902031D02*
X94822500Y-116118628D01*
X94822500Y-96650000D02*
X99272500Y-92200000D01*
X103322500Y-118902031D02*
X97605903Y-118902031D01*
X103722500Y-118502031D02*
X103322500Y-118902031D01*
G04 #@! TO.N,/Nixie_Control1/Nixie_Block2/Cath_2*
X105972500Y-120102031D02*
X96674530Y-120102031D01*
X105972500Y-120102031D02*
X105922500Y-120152031D01*
X96674530Y-120102031D02*
X92172500Y-115600001D01*
X92172500Y-115600001D02*
X92172500Y-115600000D01*
G04 #@! TO.N,/Nixie_Control1/Nixie_Block2/Comma_R*
X97822500Y-117050000D02*
X97822500Y-115100000D01*
X97822500Y-115100000D02*
X101322500Y-111600000D01*
G04 #@! TO.N,/Nixie_Control1/Nixie_Block2/Cath_4*
X97322500Y-93584314D02*
X97322500Y-91250000D01*
X94372500Y-116234314D02*
X94372500Y-96534314D01*
X94372500Y-96534314D02*
X97322500Y-93584314D01*
X105972500Y-118452031D02*
X105122500Y-119302031D01*
X97440217Y-119302031D02*
X94372500Y-116234314D01*
X105122500Y-119302031D02*
X97440217Y-119302031D01*
G04 #@! TO.N,/Nixie_Control1/Nixie_Block2/Cath_1*
X96623970Y-120900000D02*
X94648235Y-118924265D01*
X106029498Y-120900000D02*
X96623970Y-120900000D01*
G04 #@! TO.N,/Nixie_Control1/Nixie_Block2/Cath_8*
X106222500Y-108700000D02*
X106222500Y-112250000D01*
X111672500Y-103250000D02*
X111672500Y-93550000D01*
X106222500Y-108700000D02*
X111672500Y-103250000D01*
G04 #@! TO.N,/Nixie_Control1/Nixie_Block2/Cath_3*
X105923974Y-119302028D02*
X105523971Y-119702031D01*
X105972500Y-119302028D02*
X105923974Y-119302028D01*
X97274531Y-119702031D02*
X93972500Y-116400000D01*
X105523971Y-119702031D02*
X97274531Y-119702031D01*
X93972500Y-116400000D02*
X93972500Y-94450000D01*
X93972500Y-94450000D02*
X94572500Y-93850000D01*
G04 #@! TO.N,/Nixie_Control1/Nixie_Block2/Cath_9*
X103971029Y-116202031D02*
X104168998Y-116400000D01*
X104168998Y-116400000D02*
X111022500Y-116400000D01*
X111022500Y-116400000D02*
X111472500Y-115950000D01*
X101120469Y-116202031D02*
X103971029Y-116202031D01*
X100822500Y-116500000D02*
X101120469Y-116202031D01*
G04 #@! TO.N,/Nixie_Control4/Nixie_Block2/Cath_6*
X214922500Y-95100000D02*
X211772500Y-91950000D01*
X210963922Y-106525323D02*
X214922500Y-102566745D01*
X210963922Y-106525323D02*
X210963922Y-114891422D01*
X214922500Y-102566745D02*
X214922500Y-95100000D01*
G04 #@! TO.N,/Nixie_Control4/Nixie_Block2/Cath_7*
X211581079Y-108775735D02*
X211581079Y-113708579D01*
X211581079Y-108775735D02*
X215972500Y-104384314D01*
X215972500Y-92850000D02*
X214472500Y-91350000D01*
X215972500Y-104384314D02*
X215972500Y-92850000D01*
G04 #@! TO.N,/Nixie_Control4/Nixie_Block2/Cath_5*
X205322500Y-92200000D02*
X206622500Y-90900000D01*
X200822500Y-116118628D02*
X200822500Y-96650000D01*
X205272500Y-92200000D02*
X205322500Y-92200000D01*
X209722500Y-116802031D02*
X209722500Y-118502031D01*
X203605903Y-118902031D02*
X200822500Y-116118628D01*
X200822500Y-96650000D02*
X205272500Y-92200000D01*
X209322500Y-118902031D02*
X203605903Y-118902031D01*
X209722500Y-118502031D02*
X209322500Y-118902031D01*
G04 #@! TO.N,/Nixie_Control4/Nixie_Block2/Cath_2*
X211972500Y-120102031D02*
X202674530Y-120102031D01*
X211972500Y-120102031D02*
X211922500Y-120152031D01*
X202674530Y-120102031D02*
X198172500Y-115600001D01*
X198172500Y-115600001D02*
X198172500Y-115600000D01*
G04 #@! TO.N,/Nixie_Control4/Nixie_Block2/Comma_R*
X203822500Y-117050000D02*
X203822500Y-115100000D01*
X203822500Y-115100000D02*
X207322500Y-111600000D01*
G04 #@! TO.N,/Nixie_Control4/Nixie_Block2/Cath_4*
X203322500Y-93584314D02*
X203322500Y-91250000D01*
X200372500Y-116234314D02*
X200372500Y-96534314D01*
X200372500Y-96534314D02*
X203322500Y-93584314D01*
X211972500Y-118452031D02*
X211122500Y-119302031D01*
X203440217Y-119302031D02*
X200372500Y-116234314D01*
X211122500Y-119302031D02*
X203440217Y-119302031D01*
G04 #@! TO.N,/Nixie_Control4/Nixie_Block2/Cath_1*
X202623970Y-120900000D02*
X200648235Y-118924265D01*
X212029498Y-120900000D02*
X202623970Y-120900000D01*
G04 #@! TO.N,/Nixie_Control4/Nixie_Block2/Cath_8*
X212222500Y-108700000D02*
X212222500Y-112250000D01*
X217672500Y-103250000D02*
X217672500Y-93550000D01*
X212222500Y-108700000D02*
X217672500Y-103250000D01*
G04 #@! TO.N,/Nixie_Control4/Nixie_Block2/Cath_3*
X211923974Y-119302028D02*
X211523971Y-119702031D01*
X211972500Y-119302028D02*
X211923974Y-119302028D01*
X203274531Y-119702031D02*
X199972500Y-116400000D01*
X211523971Y-119702031D02*
X203274531Y-119702031D01*
X199972500Y-116400000D02*
X199972500Y-94450000D01*
X199972500Y-94450000D02*
X200572500Y-93850000D01*
G04 #@! TO.N,/Nixie_Control4/Nixie_Block2/Cath_9*
X209971029Y-116202031D02*
X210168998Y-116400000D01*
X210168998Y-116400000D02*
X217022500Y-116400000D01*
X217022500Y-116400000D02*
X217472500Y-115950000D01*
X207120469Y-116202031D02*
X209971029Y-116202031D01*
X206822500Y-116500000D02*
X207120469Y-116202031D01*
G04 #@! TO.N,/Nixie_Control2/Nixie_Block2/Cath_6*
X137922500Y-95100000D02*
X134772500Y-91950000D01*
X133963922Y-106525323D02*
X137922500Y-102566745D01*
X133963922Y-106525323D02*
X133963922Y-114891422D01*
X137922500Y-102566745D02*
X137922500Y-95100000D01*
G04 #@! TO.N,/Nixie_Control2/Nixie_Block2/Cath_7*
X134581079Y-108775735D02*
X134581079Y-113708579D01*
X134581079Y-108775735D02*
X138972500Y-104384314D01*
X138972500Y-92850000D02*
X137472500Y-91350000D01*
X138972500Y-104384314D02*
X138972500Y-92850000D01*
G04 #@! TO.N,/Nixie_Control2/Nixie_Block2/Cath_5*
X128322500Y-92200000D02*
X129622500Y-90900000D01*
X123822500Y-116118628D02*
X123822500Y-96650000D01*
X128272500Y-92200000D02*
X128322500Y-92200000D01*
X132722500Y-116802031D02*
X132722500Y-118502031D01*
X126605903Y-118902031D02*
X123822500Y-116118628D01*
X123822500Y-96650000D02*
X128272500Y-92200000D01*
X132322500Y-118902031D02*
X126605903Y-118902031D01*
X132722500Y-118502031D02*
X132322500Y-118902031D01*
G04 #@! TO.N,/Nixie_Control2/Nixie_Block2/Cath_2*
X134972500Y-120102031D02*
X125674530Y-120102031D01*
X134972500Y-120102031D02*
X134922500Y-120152031D01*
X125674530Y-120102031D02*
X121172500Y-115600001D01*
X121172500Y-115600001D02*
X121172500Y-115600000D01*
G04 #@! TO.N,/Nixie_Control2/Nixie_Block2/Comma_R*
X126822500Y-117050000D02*
X126822500Y-115100000D01*
X126822500Y-115100000D02*
X130322500Y-111600000D01*
G04 #@! TO.N,/Nixie_Control2/Nixie_Block2/Cath_4*
X126322500Y-93584314D02*
X126322500Y-91250000D01*
X123372500Y-116234314D02*
X123372500Y-96534314D01*
X123372500Y-96534314D02*
X126322500Y-93584314D01*
X134972500Y-118452031D02*
X134122500Y-119302031D01*
X126440217Y-119302031D02*
X123372500Y-116234314D01*
X134122500Y-119302031D02*
X126440217Y-119302031D01*
G04 #@! TO.N,/Nixie_Control2/Nixie_Block2/Cath_1*
X125623970Y-120900000D02*
X123648235Y-118924265D01*
X135029498Y-120900000D02*
X125623970Y-120900000D01*
G04 #@! TO.N,/Nixie_Control2/Nixie_Block2/Cath_8*
X135222500Y-108700000D02*
X135222500Y-112250000D01*
X140672500Y-103250000D02*
X140672500Y-93550000D01*
X135222500Y-108700000D02*
X140672500Y-103250000D01*
G04 #@! TO.N,/Nixie_Control2/Nixie_Block2/Cath_3*
X134923974Y-119302028D02*
X134523971Y-119702031D01*
X134972500Y-119302028D02*
X134923974Y-119302028D01*
X126274531Y-119702031D02*
X122972500Y-116400000D01*
X134523971Y-119702031D02*
X126274531Y-119702031D01*
X122972500Y-116400000D02*
X122972500Y-94450000D01*
X122972500Y-94450000D02*
X123572500Y-93850000D01*
G04 #@! TO.N,/Nixie_Control2/Nixie_Block2/Cath_9*
X132971029Y-116202031D02*
X133168998Y-116400000D01*
X133168998Y-116400000D02*
X140022500Y-116400000D01*
X140022500Y-116400000D02*
X140472500Y-115950000D01*
X130120469Y-116202031D02*
X132971029Y-116202031D01*
X129822500Y-116500000D02*
X130120469Y-116202031D01*
G04 #@! TO.N,/Nixie_Control3/Nixie_Block2/Cath_6*
X190922500Y-95100000D02*
X187772500Y-91950000D01*
X186963922Y-106525323D02*
X190922500Y-102566745D01*
X186963922Y-106525323D02*
X186963922Y-114891422D01*
X190922500Y-102566745D02*
X190922500Y-95100000D01*
G04 #@! TO.N,/Nixie_Control3/Nixie_Block2/Cath_7*
X187581079Y-108775735D02*
X187581079Y-113708579D01*
X187581079Y-108775735D02*
X191972500Y-104384314D01*
X191972500Y-92850000D02*
X190472500Y-91350000D01*
X191972500Y-104384314D02*
X191972500Y-92850000D01*
G04 #@! TO.N,/Nixie_Control3/Nixie_Block2/Cath_5*
X181322500Y-92200000D02*
X182622500Y-90900000D01*
X176822500Y-116118628D02*
X176822500Y-96650000D01*
X181272500Y-92200000D02*
X181322500Y-92200000D01*
X185722500Y-116802031D02*
X185722500Y-118502031D01*
X179605903Y-118902031D02*
X176822500Y-116118628D01*
X176822500Y-96650000D02*
X181272500Y-92200000D01*
X185322500Y-118902031D02*
X179605903Y-118902031D01*
X185722500Y-118502031D02*
X185322500Y-118902031D01*
G04 #@! TO.N,/Nixie_Control3/Nixie_Block2/Cath_2*
X187972500Y-120102031D02*
X178674530Y-120102031D01*
X187972500Y-120102031D02*
X187922500Y-120152031D01*
X178674530Y-120102031D02*
X174172500Y-115600001D01*
X174172500Y-115600001D02*
X174172500Y-115600000D01*
G04 #@! TO.N,/Nixie_Control3/Nixie_Block2/Comma_R*
X179822500Y-117050000D02*
X179822500Y-115100000D01*
X179822500Y-115100000D02*
X183322500Y-111600000D01*
G04 #@! TO.N,/Nixie_Control3/Nixie_Block2/Cath_4*
X179322500Y-93584314D02*
X179322500Y-91250000D01*
X176372500Y-116234314D02*
X176372500Y-96534314D01*
X176372500Y-96534314D02*
X179322500Y-93584314D01*
X187972500Y-118452031D02*
X187122500Y-119302031D01*
X179440217Y-119302031D02*
X176372500Y-116234314D01*
X187122500Y-119302031D02*
X179440217Y-119302031D01*
G04 #@! TO.N,/Nixie_Control3/Nixie_Block2/Cath_1*
X178623970Y-120900000D02*
X176648235Y-118924265D01*
X188029498Y-120900000D02*
X178623970Y-120900000D01*
G04 #@! TO.N,/Nixie_Control3/Nixie_Block2/Cath_8*
X188222500Y-108700000D02*
X188222500Y-112250000D01*
X193672500Y-103250000D02*
X193672500Y-93550000D01*
X188222500Y-108700000D02*
X193672500Y-103250000D01*
G04 #@! TO.N,/Nixie_Control3/Nixie_Block2/Cath_3*
X187923974Y-119302028D02*
X187523971Y-119702031D01*
X187972500Y-119302028D02*
X187923974Y-119302028D01*
X179274531Y-119702031D02*
X175972500Y-116400000D01*
X187523971Y-119702031D02*
X179274531Y-119702031D01*
X175972500Y-116400000D02*
X175972500Y-94450000D01*
X175972500Y-94450000D02*
X176572500Y-93850000D01*
G04 #@! TO.N,/Nixie_Control3/Nixie_Block2/Cath_9*
X185971029Y-116202031D02*
X186168998Y-116400000D01*
X186168998Y-116400000D02*
X193022500Y-116400000D01*
X193022500Y-116400000D02*
X193472500Y-115950000D01*
X183120469Y-116202031D02*
X185971029Y-116202031D01*
X182822500Y-116500000D02*
X183120469Y-116202031D01*
G04 #@! TO.N,Net-(Q1-G)*
X226100000Y-86640000D02*
X226360000Y-86380000D01*
X226360000Y-86380000D02*
X229310000Y-86380000D01*
X229250000Y-86440000D02*
X229310000Y-86380000D01*
G04 #@! TO.N,/Nixie_Block1/Cath_2*
X115348529Y-122300000D02*
X112048529Y-125600000D01*
X141900000Y-122300000D02*
X115348529Y-122300000D01*
X112048529Y-125600000D02*
X81236471Y-125600000D01*
X67200000Y-111563529D02*
X67200000Y-110900000D01*
X142100000Y-122500000D02*
X141900000Y-122300000D01*
X81236471Y-125600000D02*
X67200000Y-111563529D01*
G04 #@! TO.N,/Nixie_Control/SCL*
X182500000Y-128200000D02*
X203700000Y-128200000D01*
X129300000Y-128200000D02*
X153400000Y-128200000D01*
X153400000Y-128200000D02*
X182500000Y-128200000D01*
X93800000Y-128200000D02*
X100100000Y-128200000D01*
X100100000Y-128200000D02*
X129300000Y-128200000D01*
X203700000Y-128200000D02*
X203800000Y-128100000D01*
G04 #@! TO.N,/Nixie_Control/Ext_Clk*
X150100000Y-127300000D02*
X179100000Y-127300000D01*
X126200000Y-127300000D02*
X150100000Y-127300000D01*
X98100000Y-127300000D02*
X79400000Y-127300000D01*
X98100000Y-127300000D02*
X126200000Y-127300000D01*
X179100000Y-127300000D02*
X202800000Y-127300000D01*
X79400000Y-127300000D02*
X42500000Y-90400000D01*
G04 #@! TO.N,/Nixie_Block1/Cath_0*
X146100000Y-121500000D02*
X106278027Y-121500000D01*
X90952031Y-121952031D02*
X87900000Y-118900000D01*
X105825996Y-121952031D02*
X90952031Y-121952031D01*
X147400000Y-120200000D02*
X146100000Y-121500000D01*
X106278027Y-121500000D02*
X105825996Y-121952031D01*
G04 #@! TO.N,/Nixie_Block1/Cath_3*
X112214215Y-126000000D02*
X115314215Y-122900000D01*
X115314215Y-122900000D02*
X140700000Y-122900000D01*
X81070785Y-126000000D02*
X112214215Y-126000000D01*
X66600000Y-111529215D02*
X81070785Y-126000000D01*
X70080015Y-94446485D02*
X66600000Y-97926500D01*
X66600000Y-97926500D02*
X66600000Y-111529215D01*
G04 #@! TO.N,/Nixie_Block1/Cath_1*
X111999994Y-124800006D02*
X114900000Y-121900000D01*
X96800000Y-124000000D02*
X110651465Y-124000000D01*
X110651465Y-124000000D02*
X111451471Y-124800006D01*
X114900000Y-121900000D02*
X147300000Y-121900000D01*
X147300000Y-121900000D02*
X148400000Y-120800000D01*
X111451471Y-124800006D02*
X111999994Y-124800006D01*
G04 #@! TO.N,/Nixie_Boost/HV_EN*
X49670000Y-81930000D02*
X41600000Y-90000000D01*
X209400000Y-81930000D02*
X49670000Y-81930000D01*
G04 #@! TO.N,/Nixie_Block1/Cath_6*
X90425735Y-100525735D02*
X81300000Y-91400000D01*
X90425735Y-120074265D02*
X90425735Y-100525735D01*
X90351470Y-120148530D02*
X90425735Y-120074265D01*
G04 #@! TO.N,/Nixie_Block1/Cath_5*
X89725000Y-100925000D02*
X80000000Y-91200000D01*
X89825735Y-118774265D02*
X89725000Y-118673530D01*
X80000000Y-91200000D02*
X77500000Y-91200000D01*
X89725000Y-118673530D02*
X89725000Y-100925000D01*
G04 #@! TO.N,/Nixie_Block1/Cath_4*
X88600000Y-116700000D02*
X87725000Y-115825000D01*
X80502462Y-92900000D02*
X75300000Y-92900000D01*
X87725000Y-100122538D02*
X80502462Y-92900000D01*
X87725000Y-115825000D02*
X87725000Y-100122538D01*
G04 #@! TO.N,/Nixie_Block1/Cath_7*
X91400000Y-121352031D02*
X91400000Y-100000000D01*
X91400000Y-100000000D02*
X83800000Y-92400000D01*
G04 #@! TO.N,/Nixie_Block1/Cath_9*
X86525000Y-105875000D02*
X86600000Y-105800000D01*
X111700000Y-122600000D02*
X90236471Y-122600000D01*
X90236471Y-122600000D02*
X86525000Y-118888529D01*
X86525000Y-118888529D02*
X86525000Y-105875000D01*
G04 #@! TO.N,/Nixie_Block1/Comma_R*
X110851468Y-123400000D02*
X86500000Y-123400000D01*
X86500000Y-123400000D02*
X84900000Y-125000000D01*
X111700000Y-124200006D02*
X111499997Y-124000003D01*
X111451471Y-124000003D02*
X110851468Y-123400000D01*
X111499997Y-124000003D02*
X111451471Y-124000003D01*
G04 #@! TO.N,/Nixie_Block1/Comma_L*
X111651474Y-123400003D02*
X111251471Y-123000000D01*
X82700000Y-123000000D02*
X73200000Y-113500000D01*
X111700000Y-123400003D02*
X111651474Y-123400003D01*
X111251471Y-123000000D02*
X82700000Y-123000000D01*
G04 #@! TO.N,/Nixie_Block1/Cath_8*
X115600000Y-112600000D02*
X115600000Y-96628971D01*
X115600000Y-96628971D02*
X108571029Y-89600000D01*
X108571029Y-89600000D02*
X88700000Y-89600000D01*
X122400000Y-119400000D02*
X115600000Y-112600000D01*
G04 #@! TD*
M02*
