%TF.GenerationSoftware,KiCad,Pcbnew,8.0.5+1*%
%TF.CreationDate,2024-11-03T00:00:47+00:00*%
%TF.ProjectId,nixie_clock,6e697869-655f-4636-9c6f-636b2e6b6963,rev?*%
%TF.SameCoordinates,Original*%
%TF.FileFunction,Drillmap*%
%TF.FilePolarity,Positive*%
%FSLAX45Y45*%
G04 Gerber Fmt 4.5, Leading zero omitted, Abs format (unit mm)*
G04 Created by KiCad (PCBNEW 8.0.5+1) date 2024-11-03 00:00:47*
%MOMM*%
%LPD*%
G01*
G04 APERTURE LIST*
%ADD10C,0.200000*%
%ADD11C,0.100000*%
G04 APERTURE END LIST*
D10*
X2920000Y-7780000D02*
X26545000Y-7780000D01*
X26545000Y-13105000D01*
X2920000Y-13105000D01*
X2920000Y-7780000D01*
D11*
X3877000Y-8480000D02*
X3907000Y-8510000D01*
X3907000Y-8480000D02*
X3877000Y-8510000D01*
X3877000Y-11020000D02*
X3907000Y-11050000D01*
X3907000Y-11020000D02*
X3877000Y-11050000D01*
X3877000Y-12290000D02*
X3907000Y-12320000D01*
X3907000Y-12290000D02*
X3877000Y-12320000D01*
X4145000Y-8985000D02*
X4175000Y-9015000D01*
X4175000Y-8985000D02*
X4145000Y-9015000D01*
X4185000Y-9755000D02*
X4215000Y-9785000D01*
X4215000Y-9755000D02*
X4185000Y-9785000D01*
X4235000Y-9025000D02*
X4265000Y-9055000D01*
X4265000Y-9025000D02*
X4235000Y-9055000D01*
X4295000Y-11855000D02*
X4325000Y-11885000D01*
X4325000Y-11855000D02*
X4295000Y-11885000D01*
X4325000Y-10655000D02*
X4355000Y-10685000D01*
X4355000Y-10655000D02*
X4325000Y-10685000D01*
X5235000Y-9135000D02*
X5265000Y-9165000D01*
X5265000Y-9135000D02*
X5235000Y-9165000D01*
X5255000Y-10575000D02*
X5285000Y-10605000D01*
X5285000Y-10575000D02*
X5255000Y-10605000D01*
X5255000Y-11815000D02*
X5285000Y-11845000D01*
X5285000Y-11815000D02*
X5255000Y-11845000D01*
X5655000Y-7972000D02*
X5685000Y-8002000D01*
X5685000Y-7972000D02*
X5655000Y-8002000D01*
X5655000Y-8480000D02*
X5685000Y-8510000D01*
X5685000Y-8480000D02*
X5655000Y-8510000D01*
X5655000Y-11020000D02*
X5685000Y-11050000D01*
X5685000Y-11020000D02*
X5655000Y-11050000D01*
X5655000Y-12290000D02*
X5685000Y-12320000D01*
X5685000Y-12290000D02*
X5655000Y-12320000D01*
X6505000Y-8395000D02*
X6535000Y-8425000D01*
X6535000Y-8395000D02*
X6505000Y-8425000D01*
X6705000Y-11075000D02*
X6735000Y-11105000D01*
X6735000Y-11075000D02*
X6705000Y-11105000D01*
X6847500Y-8649000D02*
X6877500Y-8679000D01*
X6877500Y-8649000D02*
X6847500Y-8679000D01*
X6847500Y-11049000D02*
X6877500Y-11079000D01*
X6877500Y-11049000D02*
X6847500Y-11079000D01*
X6993001Y-9429649D02*
X7023001Y-9459649D01*
X7023001Y-9429649D02*
X6993001Y-9459649D01*
X7015000Y-12695000D02*
X7045000Y-12725000D01*
X7045000Y-12695000D02*
X7015000Y-12725000D01*
X7147500Y-8399000D02*
X7177500Y-8429000D01*
X7177500Y-8399000D02*
X7147500Y-8429000D01*
X7147500Y-11499000D02*
X7177500Y-11529000D01*
X7177500Y-11499000D02*
X7147500Y-11529000D01*
X7305000Y-11335000D02*
X7335000Y-11365000D01*
X7335000Y-11335000D02*
X7305000Y-11365000D01*
X7457500Y-11599000D02*
X7487500Y-11629000D01*
X7487500Y-11599000D02*
X7457500Y-11629000D01*
X7497500Y-8299000D02*
X7527500Y-8329000D01*
X7527500Y-8299000D02*
X7497500Y-8329000D01*
X7515000Y-9275000D02*
X7545000Y-9305000D01*
X7545000Y-9275000D02*
X7515000Y-9305000D01*
X7735000Y-9105000D02*
X7765000Y-9135000D01*
X7765000Y-9105000D02*
X7735000Y-9135000D01*
X7897500Y-8299000D02*
X7927500Y-8329000D01*
X7927500Y-8299000D02*
X7897500Y-8329000D01*
X8115000Y-9125000D02*
X8145000Y-9155000D01*
X8145000Y-9125000D02*
X8115000Y-9155000D01*
X8197500Y-8349000D02*
X8227500Y-8379000D01*
X8227500Y-8349000D02*
X8197500Y-8379000D01*
X8365000Y-9225000D02*
X8395000Y-9255000D01*
X8395000Y-9225000D02*
X8365000Y-9255000D01*
X8397500Y-11549000D02*
X8427500Y-11579000D01*
X8427500Y-11549000D02*
X8397500Y-11579000D01*
X8475000Y-12485000D02*
X8505000Y-12515000D01*
X8505000Y-12485000D02*
X8475000Y-12515000D01*
X8597500Y-8599000D02*
X8627500Y-8629000D01*
X8627500Y-8599000D02*
X8597500Y-8629000D01*
X8645000Y-10565000D02*
X8675000Y-10595000D01*
X8675000Y-10565000D02*
X8645000Y-10595000D01*
X8697500Y-11399000D02*
X8727500Y-11429000D01*
X8727500Y-11399000D02*
X8697500Y-11429000D01*
X8775000Y-11875000D02*
X8805000Y-11905000D01*
X8805000Y-11875000D02*
X8775000Y-11905000D01*
X8845000Y-11655000D02*
X8875000Y-11685000D01*
X8875000Y-11655000D02*
X8845000Y-11685000D01*
X8855000Y-8945000D02*
X8885000Y-8975000D01*
X8885000Y-8945000D02*
X8855000Y-8975000D01*
X8897500Y-11049000D02*
X8927500Y-11079000D01*
X8927500Y-11049000D02*
X8897500Y-11079000D01*
X8967574Y-11862426D02*
X8997574Y-11892426D01*
X8997574Y-11862426D02*
X8967574Y-11892426D01*
X9020147Y-11999853D02*
X9050147Y-12029853D01*
X9050147Y-11999853D02*
X9020147Y-12029853D01*
X9125000Y-12120203D02*
X9155000Y-12150203D01*
X9155000Y-12120203D02*
X9125000Y-12150203D01*
X9202250Y-11545000D02*
X9232250Y-11575000D01*
X9232250Y-11545000D02*
X9202250Y-11575000D01*
X9247500Y-8649000D02*
X9277500Y-8679000D01*
X9277500Y-8649000D02*
X9247500Y-8679000D01*
X9247500Y-11049000D02*
X9277500Y-11079000D01*
X9277500Y-11049000D02*
X9247500Y-11079000D01*
X9365000Y-12805000D02*
X9395000Y-12835000D01*
X9395000Y-12805000D02*
X9365000Y-12835000D01*
X9442250Y-9370000D02*
X9472250Y-9400000D01*
X9472250Y-9370000D02*
X9442250Y-9400000D01*
X9449824Y-11877426D02*
X9479824Y-11907426D01*
X9479824Y-11877426D02*
X9449824Y-11907426D01*
X9547500Y-8399000D02*
X9577500Y-8429000D01*
X9577500Y-8399000D02*
X9547500Y-8429000D01*
X9547500Y-11499000D02*
X9577500Y-11529000D01*
X9577500Y-11499000D02*
X9547500Y-11529000D01*
X9665000Y-12385000D02*
X9695000Y-12415000D01*
X9695000Y-12385000D02*
X9665000Y-12415000D01*
X9717250Y-9110000D02*
X9747250Y-9140000D01*
X9747250Y-9110000D02*
X9717250Y-9140000D01*
X9767250Y-11690000D02*
X9797250Y-11720000D01*
X9797250Y-11690000D02*
X9767250Y-11720000D01*
X9795000Y-12715000D02*
X9825000Y-12745000D01*
X9825000Y-12715000D02*
X9795000Y-12745000D01*
X9857500Y-11599000D02*
X9887500Y-11629000D01*
X9887500Y-11599000D02*
X9857500Y-11629000D01*
X9897500Y-8299000D02*
X9927500Y-8329000D01*
X9927500Y-8299000D02*
X9897500Y-8329000D01*
X9972250Y-12470203D02*
X10002250Y-12500203D01*
X10002250Y-12470203D02*
X9972250Y-12500203D01*
X9995000Y-12805000D02*
X10025000Y-12835000D01*
X10025000Y-12805000D02*
X9995000Y-12835000D01*
X10047250Y-9075000D02*
X10077250Y-9105000D01*
X10077250Y-9075000D02*
X10047250Y-9105000D01*
X10067250Y-11635000D02*
X10097250Y-11665000D01*
X10097250Y-11635000D02*
X10067250Y-11665000D01*
X10117250Y-11145000D02*
X10147250Y-11175000D01*
X10147250Y-11145000D02*
X10117250Y-11175000D01*
X10162250Y-11730203D02*
X10192250Y-11760203D01*
X10192250Y-11730203D02*
X10162250Y-11760203D01*
X10195000Y-12445000D02*
X10225000Y-12475000D01*
X10225000Y-12445000D02*
X10195000Y-12475000D01*
X10297500Y-8299000D02*
X10327500Y-8329000D01*
X10327500Y-8299000D02*
X10297500Y-8329000D01*
X10357250Y-11665203D02*
X10387250Y-11695203D01*
X10387250Y-11665203D02*
X10357250Y-11695203D01*
X10481392Y-11474142D02*
X10511392Y-11504142D01*
X10511392Y-11474142D02*
X10481392Y-11504142D01*
X10543108Y-11355858D02*
X10573108Y-11385858D01*
X10573108Y-11355858D02*
X10543108Y-11385858D01*
X10562250Y-9180000D02*
X10592250Y-9210000D01*
X10592250Y-9180000D02*
X10562250Y-9210000D01*
X10582250Y-11830203D02*
X10612250Y-11860203D01*
X10612250Y-11830203D02*
X10582250Y-11860203D01*
X10582250Y-11915203D02*
X10612250Y-11945203D01*
X10612250Y-11915203D02*
X10582250Y-11945203D01*
X10582250Y-11995203D02*
X10612250Y-12025203D01*
X10612250Y-11995203D02*
X10582250Y-12025203D01*
X10587950Y-12075000D02*
X10617950Y-12105000D01*
X10617950Y-12075000D02*
X10587950Y-12105000D01*
X10597500Y-8349000D02*
X10627500Y-8379000D01*
X10627500Y-8349000D02*
X10597500Y-8379000D01*
X10607250Y-11210000D02*
X10637250Y-11240000D01*
X10637250Y-11210000D02*
X10607250Y-11240000D01*
X10797500Y-11549000D02*
X10827500Y-11579000D01*
X10827500Y-11549000D02*
X10797500Y-11579000D01*
X10832250Y-9120000D02*
X10862250Y-9150000D01*
X10862250Y-9120000D02*
X10832250Y-9150000D01*
X10997500Y-8599000D02*
X11027500Y-8629000D01*
X11027500Y-8599000D02*
X10997500Y-8629000D01*
X11097500Y-11399000D02*
X11127500Y-11429000D01*
X11127500Y-11399000D02*
X11097500Y-11429000D01*
X11132250Y-11580000D02*
X11162250Y-11610000D01*
X11162250Y-11580000D02*
X11132250Y-11610000D01*
X11152250Y-9340000D02*
X11182250Y-9370000D01*
X11182250Y-9340000D02*
X11152250Y-9370000D01*
X11155000Y-12245000D02*
X11185000Y-12275000D01*
X11185000Y-12245000D02*
X11155000Y-12275000D01*
X11155000Y-12325000D02*
X11185000Y-12355000D01*
X11185000Y-12325000D02*
X11155000Y-12355000D01*
X11155000Y-12405001D02*
X11185000Y-12435001D01*
X11185000Y-12405001D02*
X11155000Y-12435001D01*
X11297500Y-11049000D02*
X11327500Y-11079000D01*
X11327500Y-11049000D02*
X11297500Y-11079000D01*
X11735000Y-8985000D02*
X11765000Y-9015000D01*
X11765000Y-8985000D02*
X11735000Y-9015000D01*
X11825000Y-12505000D02*
X11855000Y-12535000D01*
X11855000Y-12505000D02*
X11825000Y-12535000D01*
X12102250Y-11545000D02*
X12132250Y-11575000D01*
X12132250Y-11545000D02*
X12102250Y-11575000D01*
X12147500Y-8649000D02*
X12177500Y-8679000D01*
X12177500Y-8649000D02*
X12147500Y-8679000D01*
X12147500Y-11049000D02*
X12177500Y-11079000D01*
X12177500Y-11049000D02*
X12147500Y-11079000D01*
X12225000Y-11925000D02*
X12255000Y-11955000D01*
X12255000Y-11925000D02*
X12225000Y-11955000D01*
X12342250Y-9370000D02*
X12372250Y-9400000D01*
X12372250Y-9370000D02*
X12342250Y-9400000D01*
X12349823Y-11877426D02*
X12379823Y-11907426D01*
X12379823Y-11877426D02*
X12349823Y-11907426D01*
X12447500Y-8399000D02*
X12477500Y-8429000D01*
X12477500Y-8399000D02*
X12447500Y-8429000D01*
X12447500Y-11499000D02*
X12477500Y-11529000D01*
X12477500Y-11499000D02*
X12447500Y-11529000D01*
X12605000Y-12715000D02*
X12635000Y-12745000D01*
X12635000Y-12715000D02*
X12605000Y-12745000D01*
X12617250Y-9110000D02*
X12647250Y-9140000D01*
X12647250Y-9110000D02*
X12617250Y-9140000D01*
X12667250Y-11690000D02*
X12697250Y-11720000D01*
X12697250Y-11690000D02*
X12667250Y-11720000D01*
X12757500Y-11599000D02*
X12787500Y-11629000D01*
X12787500Y-11599000D02*
X12757500Y-11629000D01*
X12797500Y-8299000D02*
X12827500Y-8329000D01*
X12827500Y-8299000D02*
X12797500Y-8329000D01*
X12872250Y-12470203D02*
X12902250Y-12500203D01*
X12902250Y-12470203D02*
X12872250Y-12500203D01*
X12915000Y-12805000D02*
X12945000Y-12835000D01*
X12945000Y-12805000D02*
X12915000Y-12835000D01*
X12947250Y-9075000D02*
X12977250Y-9105000D01*
X12977250Y-9075000D02*
X12947250Y-9105000D01*
X12967250Y-11635000D02*
X12997250Y-11665000D01*
X12997250Y-11635000D02*
X12967250Y-11665000D01*
X13017250Y-11145000D02*
X13047250Y-11175000D01*
X13047250Y-11145000D02*
X13017250Y-11175000D01*
X13062250Y-11730203D02*
X13092250Y-11760203D01*
X13092250Y-11730203D02*
X13062250Y-11760203D01*
X13125000Y-12455000D02*
X13155000Y-12485000D01*
X13155000Y-12455000D02*
X13125000Y-12485000D01*
X13197500Y-8299000D02*
X13227500Y-8329000D01*
X13227500Y-8299000D02*
X13197500Y-8329000D01*
X13257250Y-11665203D02*
X13287250Y-11695203D01*
X13287250Y-11665203D02*
X13257250Y-11695203D01*
X13381392Y-11474142D02*
X13411392Y-11504142D01*
X13411392Y-11474142D02*
X13381392Y-11504142D01*
X13443108Y-11355858D02*
X13473108Y-11385858D01*
X13473108Y-11355858D02*
X13443108Y-11385858D01*
X13462250Y-9180000D02*
X13492250Y-9210000D01*
X13492250Y-9180000D02*
X13462250Y-9210000D01*
X13482250Y-11830203D02*
X13512250Y-11860203D01*
X13512250Y-11830203D02*
X13482250Y-11860203D01*
X13482250Y-11915203D02*
X13512250Y-11945203D01*
X13512250Y-11915203D02*
X13482250Y-11945203D01*
X13482250Y-11995203D02*
X13512250Y-12025203D01*
X13512250Y-11995203D02*
X13482250Y-12025203D01*
X13487950Y-12075000D02*
X13517950Y-12105000D01*
X13517950Y-12075000D02*
X13487950Y-12105000D01*
X13497500Y-8349000D02*
X13527500Y-8379000D01*
X13527500Y-8349000D02*
X13497500Y-8379000D01*
X13507250Y-11210000D02*
X13537250Y-11240000D01*
X13537250Y-11210000D02*
X13507250Y-11240000D01*
X13697500Y-11549000D02*
X13727500Y-11579000D01*
X13727500Y-11549000D02*
X13697500Y-11579000D01*
X13732250Y-9120000D02*
X13762250Y-9150000D01*
X13762250Y-9120000D02*
X13732250Y-9150000D01*
X13897500Y-8599000D02*
X13927500Y-8629000D01*
X13927500Y-8599000D02*
X13897500Y-8629000D01*
X13955000Y-12555000D02*
X13985000Y-12585000D01*
X13985000Y-12555000D02*
X13955000Y-12585000D01*
X13997500Y-11399000D02*
X14027500Y-11429000D01*
X14027500Y-11399000D02*
X13997500Y-11429000D01*
X14032250Y-11580000D02*
X14062250Y-11610000D01*
X14062250Y-11580000D02*
X14032250Y-11610000D01*
X14052250Y-9340000D02*
X14082250Y-9370000D01*
X14082250Y-9340000D02*
X14052250Y-9370000D01*
X14055000Y-12275000D02*
X14085000Y-12305000D01*
X14085000Y-12275000D02*
X14055000Y-12305000D01*
X14195000Y-12235000D02*
X14225000Y-12265000D01*
X14225000Y-12235000D02*
X14195000Y-12265000D01*
X14197500Y-11049000D02*
X14227500Y-11079000D01*
X14227500Y-11049000D02*
X14197500Y-11079000D01*
X14275000Y-8645000D02*
X14305000Y-8675000D01*
X14305000Y-8645000D02*
X14275000Y-8675000D01*
X14502250Y-11545000D02*
X14532250Y-11575000D01*
X14532250Y-11545000D02*
X14502250Y-11575000D01*
X14547500Y-8649000D02*
X14577500Y-8679000D01*
X14577500Y-8649000D02*
X14547500Y-8679000D01*
X14547500Y-11049000D02*
X14577500Y-11079000D01*
X14577500Y-11049000D02*
X14547500Y-11079000D01*
X14725000Y-12005000D02*
X14755000Y-12035000D01*
X14755000Y-12005000D02*
X14725000Y-12035000D01*
X14742250Y-9370000D02*
X14772250Y-9400000D01*
X14772250Y-9370000D02*
X14742250Y-9400000D01*
X14749823Y-11877426D02*
X14779823Y-11907426D01*
X14779823Y-11877426D02*
X14749823Y-11907426D01*
X14825000Y-12065000D02*
X14855000Y-12095000D01*
X14855000Y-12065000D02*
X14825000Y-12095000D01*
X14847500Y-8399000D02*
X14877500Y-8429000D01*
X14877500Y-8399000D02*
X14847500Y-8429000D01*
X14847500Y-11499000D02*
X14877500Y-11529000D01*
X14877500Y-11499000D02*
X14847500Y-11529000D01*
X14995000Y-12715000D02*
X15025000Y-12745000D01*
X15025000Y-12715000D02*
X14995000Y-12745000D01*
X15017250Y-9110000D02*
X15047250Y-9140000D01*
X15047250Y-9110000D02*
X15017250Y-9140000D01*
X15067250Y-11690000D02*
X15097250Y-11720000D01*
X15097250Y-11690000D02*
X15067250Y-11720000D01*
X15157500Y-11599000D02*
X15187500Y-11629000D01*
X15187500Y-11599000D02*
X15157500Y-11629000D01*
X15197500Y-8299000D02*
X15227500Y-8329000D01*
X15227500Y-8299000D02*
X15197500Y-8329000D01*
X15272250Y-12470203D02*
X15302250Y-12500203D01*
X15302250Y-12470203D02*
X15272250Y-12500203D01*
X15325000Y-12805000D02*
X15355000Y-12835000D01*
X15355000Y-12805000D02*
X15325000Y-12835000D01*
X15347250Y-9075000D02*
X15377250Y-9105000D01*
X15377250Y-9075000D02*
X15347250Y-9105000D01*
X15367250Y-11635000D02*
X15397250Y-11665000D01*
X15397250Y-11635000D02*
X15367250Y-11665000D01*
X15417250Y-11145000D02*
X15447250Y-11175000D01*
X15447250Y-11145000D02*
X15417250Y-11175000D01*
X15462250Y-11730203D02*
X15492250Y-11760203D01*
X15492250Y-11730203D02*
X15462250Y-11760203D01*
X15525000Y-12475000D02*
X15555000Y-12505000D01*
X15555000Y-12475000D02*
X15525000Y-12505000D01*
X15597500Y-8299000D02*
X15627500Y-8329000D01*
X15627500Y-8299000D02*
X15597500Y-8329000D01*
X15657250Y-11665203D02*
X15687250Y-11695203D01*
X15687250Y-11665203D02*
X15657250Y-11695203D01*
X15781392Y-11474142D02*
X15811392Y-11504142D01*
X15811392Y-11474142D02*
X15781392Y-11504142D01*
X15843108Y-11355858D02*
X15873108Y-11385858D01*
X15873108Y-11355858D02*
X15843108Y-11385858D01*
X15862250Y-9180000D02*
X15892250Y-9210000D01*
X15892250Y-9180000D02*
X15862250Y-9210000D01*
X15865000Y-12265000D02*
X15895000Y-12295000D01*
X15895000Y-12265000D02*
X15865000Y-12295000D01*
X15875000Y-12195000D02*
X15905000Y-12225000D01*
X15905000Y-12195000D02*
X15875000Y-12225000D01*
X15882250Y-11830203D02*
X15912250Y-11860203D01*
X15912250Y-11830203D02*
X15882250Y-11860203D01*
X15882250Y-11915203D02*
X15912250Y-11945203D01*
X15912250Y-11915203D02*
X15882250Y-11945203D01*
X15882250Y-11995203D02*
X15912250Y-12025203D01*
X15912250Y-11995203D02*
X15882250Y-12025203D01*
X15887950Y-12075000D02*
X15917950Y-12105000D01*
X15917950Y-12075000D02*
X15887950Y-12105000D01*
X15897500Y-8349000D02*
X15927500Y-8379000D01*
X15927500Y-8349000D02*
X15897500Y-8379000D01*
X15907250Y-11210000D02*
X15937250Y-11240000D01*
X15937250Y-11210000D02*
X15907250Y-11240000D01*
X16097500Y-11549000D02*
X16127500Y-11579000D01*
X16127500Y-11549000D02*
X16097500Y-11579000D01*
X16132250Y-9120000D02*
X16162250Y-9150000D01*
X16162250Y-9120000D02*
X16132250Y-9150000D01*
X16297500Y-8599000D02*
X16327500Y-8629000D01*
X16327500Y-8599000D02*
X16297500Y-8629000D01*
X16397500Y-11399000D02*
X16427500Y-11429000D01*
X16427500Y-11399000D02*
X16397500Y-11429000D01*
X16432250Y-11580000D02*
X16462250Y-11610000D01*
X16462250Y-11580000D02*
X16432250Y-11610000D01*
X16452250Y-9340000D02*
X16482250Y-9370000D01*
X16482250Y-9340000D02*
X16452250Y-9370000D01*
X16597500Y-11049000D02*
X16627500Y-11079000D01*
X16627500Y-11049000D02*
X16597500Y-11079000D01*
X16615000Y-12195000D02*
X16645000Y-12225000D01*
X16645000Y-12195000D02*
X16615000Y-12225000D01*
X16895000Y-8695000D02*
X16925000Y-8725000D01*
X16925000Y-8695000D02*
X16895000Y-8725000D01*
X17402250Y-11545000D02*
X17432250Y-11575000D01*
X17432250Y-11545000D02*
X17402250Y-11575000D01*
X17447500Y-8649000D02*
X17477500Y-8679000D01*
X17477500Y-8649000D02*
X17447500Y-8679000D01*
X17447500Y-11049000D02*
X17477500Y-11079000D01*
X17477500Y-11049000D02*
X17447500Y-11079000D01*
X17642250Y-9370000D02*
X17672250Y-9400000D01*
X17672250Y-9370000D02*
X17642250Y-9400000D01*
X17649824Y-11877426D02*
X17679824Y-11907426D01*
X17679824Y-11877426D02*
X17649824Y-11907426D01*
X17747500Y-8399000D02*
X17777500Y-8429000D01*
X17777500Y-8399000D02*
X17747500Y-8429000D01*
X17747500Y-11499000D02*
X17777500Y-11529000D01*
X17777500Y-11499000D02*
X17747500Y-11529000D01*
X17895000Y-12715000D02*
X17925000Y-12745000D01*
X17925000Y-12715000D02*
X17895000Y-12745000D01*
X17917250Y-9110000D02*
X17947250Y-9140000D01*
X17947250Y-9110000D02*
X17917250Y-9140000D01*
X17967250Y-11690000D02*
X17997250Y-11720000D01*
X17997250Y-11690000D02*
X17967250Y-11720000D01*
X18057500Y-11599000D02*
X18087500Y-11629000D01*
X18087500Y-11599000D02*
X18057500Y-11629000D01*
X18097500Y-8299000D02*
X18127500Y-8329000D01*
X18127500Y-8299000D02*
X18097500Y-8329000D01*
X18172250Y-12470203D02*
X18202250Y-12500203D01*
X18202250Y-12470203D02*
X18172250Y-12500203D01*
X18235000Y-12805000D02*
X18265000Y-12835000D01*
X18265000Y-12805000D02*
X18235000Y-12835000D01*
X18247250Y-9075000D02*
X18277250Y-9105000D01*
X18277250Y-9075000D02*
X18247250Y-9105000D01*
X18267250Y-11635000D02*
X18297250Y-11665000D01*
X18297250Y-11635000D02*
X18267250Y-11665000D01*
X18317250Y-11145000D02*
X18347250Y-11175000D01*
X18347250Y-11145000D02*
X18317250Y-11175000D01*
X18362250Y-11730203D02*
X18392250Y-11760203D01*
X18392250Y-11730203D02*
X18362250Y-11760203D01*
X18465000Y-12455000D02*
X18495000Y-12485000D01*
X18495000Y-12455000D02*
X18465000Y-12485000D01*
X18497500Y-8299000D02*
X18527500Y-8329000D01*
X18527500Y-8299000D02*
X18497500Y-8329000D01*
X18557250Y-11665203D02*
X18587250Y-11695203D01*
X18587250Y-11665203D02*
X18557250Y-11695203D01*
X18681392Y-11474142D02*
X18711392Y-11504142D01*
X18711392Y-11474142D02*
X18681392Y-11504142D01*
X18743108Y-11355858D02*
X18773108Y-11385858D01*
X18773108Y-11355858D02*
X18743108Y-11385858D01*
X18762250Y-9180000D02*
X18792250Y-9210000D01*
X18792250Y-9180000D02*
X18762250Y-9210000D01*
X18782250Y-11830203D02*
X18812250Y-11860203D01*
X18812250Y-11830203D02*
X18782250Y-11860203D01*
X18782250Y-11915203D02*
X18812250Y-11945203D01*
X18812250Y-11915203D02*
X18782250Y-11945203D01*
X18782250Y-11995203D02*
X18812250Y-12025203D01*
X18812250Y-11995203D02*
X18782250Y-12025203D01*
X18787950Y-12075000D02*
X18817950Y-12105000D01*
X18817950Y-12075000D02*
X18787950Y-12105000D01*
X18797500Y-8349000D02*
X18827500Y-8379000D01*
X18827500Y-8349000D02*
X18797500Y-8379000D01*
X18807250Y-11210000D02*
X18837250Y-11240000D01*
X18837250Y-11210000D02*
X18807250Y-11240000D01*
X18997500Y-11549000D02*
X19027500Y-11579000D01*
X19027500Y-11549000D02*
X18997500Y-11579000D01*
X19032250Y-9120000D02*
X19062250Y-9150000D01*
X19062250Y-9120000D02*
X19032250Y-9150000D01*
X19197500Y-8599000D02*
X19227500Y-8629000D01*
X19227500Y-8599000D02*
X19197500Y-8629000D01*
X19297500Y-11399000D02*
X19327500Y-11429000D01*
X19327500Y-11399000D02*
X19297500Y-11429000D01*
X19332250Y-11580000D02*
X19362250Y-11610000D01*
X19362250Y-11580000D02*
X19332250Y-11610000D01*
X19352250Y-9340000D02*
X19382250Y-9370000D01*
X19382250Y-9340000D02*
X19352250Y-9370000D01*
X19497500Y-11049000D02*
X19527500Y-11079000D01*
X19527500Y-11049000D02*
X19497500Y-11079000D01*
X19565000Y-8655000D02*
X19595000Y-8685000D01*
X19595000Y-8655000D02*
X19565000Y-8685000D01*
X19625000Y-12215000D02*
X19655000Y-12245000D01*
X19655000Y-12215000D02*
X19625000Y-12245000D01*
X19802250Y-11545000D02*
X19832250Y-11575000D01*
X19832250Y-11545000D02*
X19802250Y-11575000D01*
X19847500Y-8649000D02*
X19877500Y-8679000D01*
X19877500Y-8649000D02*
X19847500Y-8679000D01*
X19847500Y-11049000D02*
X19877500Y-11079000D01*
X19877500Y-11049000D02*
X19847500Y-11079000D01*
X20042250Y-9370000D02*
X20072250Y-9400000D01*
X20072250Y-9370000D02*
X20042250Y-9400000D01*
X20049824Y-11877426D02*
X20079824Y-11907426D01*
X20079824Y-11877426D02*
X20049824Y-11907426D01*
X20147500Y-8399000D02*
X20177500Y-8429000D01*
X20177500Y-8399000D02*
X20147500Y-8429000D01*
X20147500Y-11499000D02*
X20177500Y-11529000D01*
X20177500Y-11499000D02*
X20147500Y-11529000D01*
X20265000Y-12715000D02*
X20295000Y-12745000D01*
X20295000Y-12715000D02*
X20265000Y-12745000D01*
X20317250Y-9110000D02*
X20347250Y-9140000D01*
X20347250Y-9110000D02*
X20317250Y-9140000D01*
X20365000Y-12795000D02*
X20395000Y-12825000D01*
X20395000Y-12795000D02*
X20365000Y-12825000D01*
X20367250Y-11690000D02*
X20397250Y-11720000D01*
X20397250Y-11690000D02*
X20367250Y-11720000D01*
X20457500Y-11599000D02*
X20487500Y-11629000D01*
X20487500Y-11599000D02*
X20457500Y-11629000D01*
X20497500Y-8299000D02*
X20527500Y-8329000D01*
X20527500Y-8299000D02*
X20497500Y-8329000D01*
X20572250Y-12470203D02*
X20602250Y-12500203D01*
X20602250Y-12470203D02*
X20572250Y-12500203D01*
X20647250Y-9075000D02*
X20677250Y-9105000D01*
X20677250Y-9075000D02*
X20647250Y-9105000D01*
X20667250Y-11635000D02*
X20697250Y-11665000D01*
X20697250Y-11635000D02*
X20667250Y-11665000D01*
X20717250Y-11145000D02*
X20747250Y-11175000D01*
X20747250Y-11145000D02*
X20717250Y-11175000D01*
X20762250Y-11730203D02*
X20792250Y-11760203D01*
X20792250Y-11730203D02*
X20762250Y-11760203D01*
X20895000Y-12475000D02*
X20925000Y-12505000D01*
X20925000Y-12475000D02*
X20895000Y-12505000D01*
X20897500Y-8299000D02*
X20927500Y-8329000D01*
X20927500Y-8299000D02*
X20897500Y-8329000D01*
X20925000Y-8178000D02*
X20955000Y-8208000D01*
X20955000Y-8178000D02*
X20925000Y-8208000D01*
X20957250Y-11665203D02*
X20987250Y-11695203D01*
X20987250Y-11665203D02*
X20957250Y-11695203D01*
X21081392Y-11474142D02*
X21111392Y-11504142D01*
X21111392Y-11474142D02*
X21081392Y-11504142D01*
X21143108Y-11355858D02*
X21173108Y-11385858D01*
X21173108Y-11355858D02*
X21143108Y-11385858D01*
X21162250Y-9180000D02*
X21192250Y-9210000D01*
X21192250Y-9180000D02*
X21162250Y-9210000D01*
X21182250Y-11830203D02*
X21212250Y-11860203D01*
X21212250Y-11830203D02*
X21182250Y-11860203D01*
X21182250Y-11915203D02*
X21212250Y-11945203D01*
X21212250Y-11915203D02*
X21182250Y-11945203D01*
X21182250Y-11995203D02*
X21212250Y-12025203D01*
X21212250Y-11995203D02*
X21182250Y-12025203D01*
X21187950Y-12075000D02*
X21217950Y-12105000D01*
X21217950Y-12075000D02*
X21187950Y-12105000D01*
X21197500Y-8349000D02*
X21227500Y-8379000D01*
X21227500Y-8349000D02*
X21197500Y-8379000D01*
X21207250Y-11210000D02*
X21237250Y-11240000D01*
X21237250Y-11210000D02*
X21207250Y-11240000D01*
X21397500Y-11549000D02*
X21427500Y-11579000D01*
X21427500Y-11549000D02*
X21397500Y-11579000D01*
X21432250Y-9120000D02*
X21462250Y-9150000D01*
X21462250Y-9120000D02*
X21432250Y-9150000D01*
X21597500Y-8599000D02*
X21627500Y-8629000D01*
X21627500Y-8599000D02*
X21597500Y-8629000D01*
X21697500Y-11399000D02*
X21727500Y-11429000D01*
X21727500Y-11399000D02*
X21697500Y-11429000D01*
X21732250Y-11580000D02*
X21762250Y-11610000D01*
X21762250Y-11580000D02*
X21732250Y-11610000D01*
X21752250Y-9340000D02*
X21782250Y-9370000D01*
X21782250Y-9340000D02*
X21752250Y-9370000D01*
X21897500Y-11049000D02*
X21927500Y-11079000D01*
X21927500Y-11049000D02*
X21897500Y-11079000D01*
X22105000Y-9191500D02*
X22135000Y-9221500D01*
X22135000Y-9191500D02*
X22105000Y-9221500D01*
X22295000Y-9896500D02*
X22325000Y-9926500D01*
X22325000Y-9896500D02*
X22295000Y-9926500D01*
X22300000Y-10041500D02*
X22330000Y-10071500D01*
X22330000Y-10041500D02*
X22300000Y-10071500D01*
X22325000Y-8461500D02*
X22355000Y-8491500D01*
X22355000Y-8461500D02*
X22325000Y-8491500D01*
X22405000Y-9291500D02*
X22435000Y-9321500D01*
X22435000Y-9291500D02*
X22405000Y-9321500D01*
X22525000Y-9991500D02*
X22555000Y-10021500D01*
X22555000Y-9991500D02*
X22525000Y-10021500D01*
X22567560Y-9513115D02*
X22597560Y-9543115D01*
X22597560Y-9513115D02*
X22567560Y-9543115D01*
X22595000Y-8649000D02*
X22625000Y-8679000D01*
X22625000Y-8649000D02*
X22595000Y-8679000D01*
X22595000Y-12175000D02*
X22625000Y-12205000D01*
X22625000Y-12175000D02*
X22595000Y-12205000D01*
X22675000Y-9991500D02*
X22705000Y-10021500D01*
X22705000Y-9991500D02*
X22675000Y-10021500D01*
X22695000Y-10855000D02*
X22725000Y-10885000D01*
X22725000Y-10855000D02*
X22695000Y-10885000D01*
X22735000Y-9234000D02*
X22765000Y-9264000D01*
X22765000Y-9234000D02*
X22735000Y-9264000D01*
X22916000Y-8623000D02*
X22946000Y-8653000D01*
X22946000Y-8623000D02*
X22916000Y-8653000D01*
X23245000Y-11680000D02*
X23275000Y-11710000D01*
X23275000Y-11680000D02*
X23245000Y-11710000D01*
X23245000Y-11751500D02*
X23275000Y-11781500D01*
X23275000Y-11751500D02*
X23245000Y-11781500D01*
X23245000Y-11881500D02*
X23275000Y-11911500D01*
X23275000Y-11881500D02*
X23245000Y-11911500D01*
X23245000Y-12041500D02*
X23275000Y-12071500D01*
X23275000Y-12041500D02*
X23245000Y-12071500D01*
X23245000Y-12141500D02*
X23275000Y-12171500D01*
X23275000Y-12141500D02*
X23245000Y-12171500D01*
X23245000Y-12221500D02*
X23275000Y-12251500D01*
X23275000Y-12221500D02*
X23245000Y-12251500D01*
X23250000Y-12321500D02*
X23280000Y-12351500D01*
X23280000Y-12321500D02*
X23250000Y-12351500D01*
X23250000Y-12411500D02*
X23280000Y-12441500D01*
X23280000Y-12411500D02*
X23250000Y-12441500D01*
X23250000Y-12496500D02*
X23280000Y-12526500D01*
X23280000Y-12496500D02*
X23250000Y-12526500D01*
X23540000Y-11885000D02*
X23570000Y-11915000D01*
X23570000Y-11885000D02*
X23540000Y-11915000D01*
X23550000Y-8561500D02*
X23580000Y-8591500D01*
X23580000Y-8561500D02*
X23550000Y-8591500D01*
X23550000Y-8891500D02*
X23580000Y-8921500D01*
X23580000Y-8891500D02*
X23550000Y-8921500D01*
X23585000Y-9151500D02*
X23615000Y-9181500D01*
X23615000Y-9151500D02*
X23585000Y-9181500D01*
X23765000Y-10648000D02*
X23795000Y-10678000D01*
X23795000Y-10648000D02*
X23765000Y-10678000D01*
X23765000Y-12281500D02*
X23795000Y-12311500D01*
X23795000Y-12281500D02*
X23765000Y-12311500D01*
X23775000Y-9151500D02*
X23805000Y-9181500D01*
X23805000Y-9151500D02*
X23775000Y-9181500D01*
X23845000Y-8561500D02*
X23875000Y-8591500D01*
X23875000Y-8561500D02*
X23845000Y-8591500D01*
X23845000Y-8891500D02*
X23875000Y-8921500D01*
X23875000Y-8891500D02*
X23845000Y-8921500D01*
X24079352Y-11388371D02*
X24109352Y-11418371D01*
X24109352Y-11388371D02*
X24079352Y-11418371D01*
X24135000Y-12085000D02*
X24165000Y-12115000D01*
X24165000Y-12085000D02*
X24135000Y-12115000D01*
X24185000Y-8495000D02*
X24215000Y-8525000D01*
X24215000Y-8495000D02*
X24185000Y-8525000D01*
X24225000Y-9105000D02*
X24255000Y-9135000D01*
X24255000Y-9105000D02*
X24225000Y-9135000D01*
X7292110Y-10066295D02*
G75*
G02*
X7215910Y-10066295I-38100J0D01*
G01*
X7215910Y-10066295D02*
G75*
G02*
X7292110Y-10066295I38100J0D01*
G01*
X7323841Y-9804967D02*
G75*
G02*
X7247641Y-9804967I-38100J0D01*
G01*
X7247641Y-9804967D02*
G75*
G02*
X7323841Y-9804967I38100J0D01*
G01*
X7385459Y-10312436D02*
G75*
G02*
X7309259Y-10312436I-38100J0D01*
G01*
X7309259Y-10312436D02*
G75*
G02*
X7385459Y-10312436I38100J0D01*
G01*
X7473382Y-9588319D02*
G75*
G02*
X7397182Y-9588319I-38100J0D01*
G01*
X7397182Y-9588319D02*
G75*
G02*
X7473382Y-9588319I38100J0D01*
G01*
X7582502Y-10487001D02*
G75*
G02*
X7506302Y-10487001I-38100J0D01*
G01*
X7506302Y-10487001D02*
G75*
G02*
X7582502Y-10487001I38100J0D01*
G01*
X7706476Y-9465982D02*
G75*
G02*
X7630276Y-9465982I-38100J0D01*
G01*
X7630276Y-9465982D02*
G75*
G02*
X7706476Y-9465982I38100J0D01*
G01*
X7838100Y-10550000D02*
G75*
G02*
X7761900Y-10550000I-38100J0D01*
G01*
X7761900Y-10550000D02*
G75*
G02*
X7838100Y-10550000I38100J0D01*
G01*
X7969724Y-9465982D02*
G75*
G02*
X7893524Y-9465982I-38100J0D01*
G01*
X7893524Y-9465982D02*
G75*
G02*
X7969724Y-9465982I38100J0D01*
G01*
X8093698Y-10487001D02*
G75*
G02*
X8017498Y-10487001I-38100J0D01*
G01*
X8017498Y-10487001D02*
G75*
G02*
X8093698Y-10487001I38100J0D01*
G01*
X8202817Y-9588319D02*
G75*
G02*
X8126617Y-9588319I-38100J0D01*
G01*
X8126617Y-9588319D02*
G75*
G02*
X8202817Y-9588319I38100J0D01*
G01*
X8290741Y-10312436D02*
G75*
G02*
X8214541Y-10312436I-38100J0D01*
G01*
X8214541Y-10312436D02*
G75*
G02*
X8290741Y-10312436I38100J0D01*
G01*
X8352359Y-9804967D02*
G75*
G02*
X8276159Y-9804967I-38100J0D01*
G01*
X8276159Y-9804967D02*
G75*
G02*
X8352359Y-9804967I38100J0D01*
G01*
X8384090Y-10066295D02*
G75*
G02*
X8307890Y-10066295I-38100J0D01*
G01*
X8307890Y-10066295D02*
G75*
G02*
X8384090Y-10066295I38100J0D01*
G01*
X9692110Y-10066295D02*
G75*
G02*
X9615910Y-10066295I-38100J0D01*
G01*
X9615910Y-10066295D02*
G75*
G02*
X9692110Y-10066295I38100J0D01*
G01*
X9723841Y-9804967D02*
G75*
G02*
X9647641Y-9804967I-38100J0D01*
G01*
X9647641Y-9804967D02*
G75*
G02*
X9723841Y-9804967I38100J0D01*
G01*
X9785459Y-10312436D02*
G75*
G02*
X9709259Y-10312436I-38100J0D01*
G01*
X9709259Y-10312436D02*
G75*
G02*
X9785459Y-10312436I38100J0D01*
G01*
X9873383Y-9588319D02*
G75*
G02*
X9797183Y-9588319I-38100J0D01*
G01*
X9797183Y-9588319D02*
G75*
G02*
X9873383Y-9588319I38100J0D01*
G01*
X9982502Y-10487001D02*
G75*
G02*
X9906302Y-10487001I-38100J0D01*
G01*
X9906302Y-10487001D02*
G75*
G02*
X9982502Y-10487001I38100J0D01*
G01*
X10106476Y-9465982D02*
G75*
G02*
X10030276Y-9465982I-38100J0D01*
G01*
X10030276Y-9465982D02*
G75*
G02*
X10106476Y-9465982I38100J0D01*
G01*
X10238100Y-10550000D02*
G75*
G02*
X10161900Y-10550000I-38100J0D01*
G01*
X10161900Y-10550000D02*
G75*
G02*
X10238100Y-10550000I38100J0D01*
G01*
X10369724Y-9465982D02*
G75*
G02*
X10293524Y-9465982I-38100J0D01*
G01*
X10293524Y-9465982D02*
G75*
G02*
X10369724Y-9465982I38100J0D01*
G01*
X10493698Y-10487001D02*
G75*
G02*
X10417498Y-10487001I-38100J0D01*
G01*
X10417498Y-10487001D02*
G75*
G02*
X10493698Y-10487001I38100J0D01*
G01*
X10602818Y-9588319D02*
G75*
G02*
X10526618Y-9588319I-38100J0D01*
G01*
X10526618Y-9588319D02*
G75*
G02*
X10602818Y-9588319I38100J0D01*
G01*
X10690741Y-10312436D02*
G75*
G02*
X10614541Y-10312436I-38100J0D01*
G01*
X10614541Y-10312436D02*
G75*
G02*
X10690741Y-10312436I38100J0D01*
G01*
X10752359Y-9804967D02*
G75*
G02*
X10676159Y-9804967I-38100J0D01*
G01*
X10676159Y-9804967D02*
G75*
G02*
X10752359Y-9804967I38100J0D01*
G01*
X10784090Y-10066295D02*
G75*
G02*
X10707890Y-10066295I-38100J0D01*
G01*
X10707890Y-10066295D02*
G75*
G02*
X10784090Y-10066295I38100J0D01*
G01*
X12592110Y-10066295D02*
G75*
G02*
X12515910Y-10066295I-38100J0D01*
G01*
X12515910Y-10066295D02*
G75*
G02*
X12592110Y-10066295I38100J0D01*
G01*
X12623841Y-9804967D02*
G75*
G02*
X12547641Y-9804967I-38100J0D01*
G01*
X12547641Y-9804967D02*
G75*
G02*
X12623841Y-9804967I38100J0D01*
G01*
X12685459Y-10312436D02*
G75*
G02*
X12609259Y-10312436I-38100J0D01*
G01*
X12609259Y-10312436D02*
G75*
G02*
X12685459Y-10312436I38100J0D01*
G01*
X12773382Y-9588319D02*
G75*
G02*
X12697182Y-9588319I-38100J0D01*
G01*
X12697182Y-9588319D02*
G75*
G02*
X12773382Y-9588319I38100J0D01*
G01*
X12882502Y-10487001D02*
G75*
G02*
X12806302Y-10487001I-38100J0D01*
G01*
X12806302Y-10487001D02*
G75*
G02*
X12882502Y-10487001I38100J0D01*
G01*
X13006476Y-9465982D02*
G75*
G02*
X12930276Y-9465982I-38100J0D01*
G01*
X12930276Y-9465982D02*
G75*
G02*
X13006476Y-9465982I38100J0D01*
G01*
X13138100Y-10550000D02*
G75*
G02*
X13061900Y-10550000I-38100J0D01*
G01*
X13061900Y-10550000D02*
G75*
G02*
X13138100Y-10550000I38100J0D01*
G01*
X13269724Y-9465982D02*
G75*
G02*
X13193524Y-9465982I-38100J0D01*
G01*
X13193524Y-9465982D02*
G75*
G02*
X13269724Y-9465982I38100J0D01*
G01*
X13393698Y-10487001D02*
G75*
G02*
X13317498Y-10487001I-38100J0D01*
G01*
X13317498Y-10487001D02*
G75*
G02*
X13393698Y-10487001I38100J0D01*
G01*
X13502817Y-9588319D02*
G75*
G02*
X13426617Y-9588319I-38100J0D01*
G01*
X13426617Y-9588319D02*
G75*
G02*
X13502817Y-9588319I38100J0D01*
G01*
X13590741Y-10312436D02*
G75*
G02*
X13514541Y-10312436I-38100J0D01*
G01*
X13514541Y-10312436D02*
G75*
G02*
X13590741Y-10312436I38100J0D01*
G01*
X13652359Y-9804967D02*
G75*
G02*
X13576159Y-9804967I-38100J0D01*
G01*
X13576159Y-9804967D02*
G75*
G02*
X13652359Y-9804967I38100J0D01*
G01*
X13684090Y-10066295D02*
G75*
G02*
X13607890Y-10066295I-38100J0D01*
G01*
X13607890Y-10066295D02*
G75*
G02*
X13684090Y-10066295I38100J0D01*
G01*
X14992110Y-10066295D02*
G75*
G02*
X14915910Y-10066295I-38100J0D01*
G01*
X14915910Y-10066295D02*
G75*
G02*
X14992110Y-10066295I38100J0D01*
G01*
X15023841Y-9804967D02*
G75*
G02*
X14947641Y-9804967I-38100J0D01*
G01*
X14947641Y-9804967D02*
G75*
G02*
X15023841Y-9804967I38100J0D01*
G01*
X15085459Y-10312436D02*
G75*
G02*
X15009259Y-10312436I-38100J0D01*
G01*
X15009259Y-10312436D02*
G75*
G02*
X15085459Y-10312436I38100J0D01*
G01*
X15173382Y-9588319D02*
G75*
G02*
X15097182Y-9588319I-38100J0D01*
G01*
X15097182Y-9588319D02*
G75*
G02*
X15173382Y-9588319I38100J0D01*
G01*
X15282502Y-10487001D02*
G75*
G02*
X15206302Y-10487001I-38100J0D01*
G01*
X15206302Y-10487001D02*
G75*
G02*
X15282502Y-10487001I38100J0D01*
G01*
X15406476Y-9465982D02*
G75*
G02*
X15330276Y-9465982I-38100J0D01*
G01*
X15330276Y-9465982D02*
G75*
G02*
X15406476Y-9465982I38100J0D01*
G01*
X15538100Y-10550000D02*
G75*
G02*
X15461900Y-10550000I-38100J0D01*
G01*
X15461900Y-10550000D02*
G75*
G02*
X15538100Y-10550000I38100J0D01*
G01*
X15669724Y-9465982D02*
G75*
G02*
X15593524Y-9465982I-38100J0D01*
G01*
X15593524Y-9465982D02*
G75*
G02*
X15669724Y-9465982I38100J0D01*
G01*
X15793698Y-10487001D02*
G75*
G02*
X15717498Y-10487001I-38100J0D01*
G01*
X15717498Y-10487001D02*
G75*
G02*
X15793698Y-10487001I38100J0D01*
G01*
X15902817Y-9588319D02*
G75*
G02*
X15826617Y-9588319I-38100J0D01*
G01*
X15826617Y-9588319D02*
G75*
G02*
X15902817Y-9588319I38100J0D01*
G01*
X15990741Y-10312436D02*
G75*
G02*
X15914541Y-10312436I-38100J0D01*
G01*
X15914541Y-10312436D02*
G75*
G02*
X15990741Y-10312436I38100J0D01*
G01*
X16052359Y-9804967D02*
G75*
G02*
X15976159Y-9804967I-38100J0D01*
G01*
X15976159Y-9804967D02*
G75*
G02*
X16052359Y-9804967I38100J0D01*
G01*
X16084090Y-10066295D02*
G75*
G02*
X16007890Y-10066295I-38100J0D01*
G01*
X16007890Y-10066295D02*
G75*
G02*
X16084090Y-10066295I38100J0D01*
G01*
X17892110Y-10066295D02*
G75*
G02*
X17815910Y-10066295I-38100J0D01*
G01*
X17815910Y-10066295D02*
G75*
G02*
X17892110Y-10066295I38100J0D01*
G01*
X17923841Y-9804967D02*
G75*
G02*
X17847641Y-9804967I-38100J0D01*
G01*
X17847641Y-9804967D02*
G75*
G02*
X17923841Y-9804967I38100J0D01*
G01*
X17985459Y-10312436D02*
G75*
G02*
X17909259Y-10312436I-38100J0D01*
G01*
X17909259Y-10312436D02*
G75*
G02*
X17985459Y-10312436I38100J0D01*
G01*
X18073383Y-9588319D02*
G75*
G02*
X17997183Y-9588319I-38100J0D01*
G01*
X17997183Y-9588319D02*
G75*
G02*
X18073383Y-9588319I38100J0D01*
G01*
X18182502Y-10487001D02*
G75*
G02*
X18106302Y-10487001I-38100J0D01*
G01*
X18106302Y-10487001D02*
G75*
G02*
X18182502Y-10487001I38100J0D01*
G01*
X18306476Y-9465982D02*
G75*
G02*
X18230276Y-9465982I-38100J0D01*
G01*
X18230276Y-9465982D02*
G75*
G02*
X18306476Y-9465982I38100J0D01*
G01*
X18438100Y-10550000D02*
G75*
G02*
X18361900Y-10550000I-38100J0D01*
G01*
X18361900Y-10550000D02*
G75*
G02*
X18438100Y-10550000I38100J0D01*
G01*
X18569724Y-9465982D02*
G75*
G02*
X18493524Y-9465982I-38100J0D01*
G01*
X18493524Y-9465982D02*
G75*
G02*
X18569724Y-9465982I38100J0D01*
G01*
X18693698Y-10487001D02*
G75*
G02*
X18617498Y-10487001I-38100J0D01*
G01*
X18617498Y-10487001D02*
G75*
G02*
X18693698Y-10487001I38100J0D01*
G01*
X18802818Y-9588319D02*
G75*
G02*
X18726618Y-9588319I-38100J0D01*
G01*
X18726618Y-9588319D02*
G75*
G02*
X18802818Y-9588319I38100J0D01*
G01*
X18890741Y-10312436D02*
G75*
G02*
X18814541Y-10312436I-38100J0D01*
G01*
X18814541Y-10312436D02*
G75*
G02*
X18890741Y-10312436I38100J0D01*
G01*
X18952359Y-9804967D02*
G75*
G02*
X18876159Y-9804967I-38100J0D01*
G01*
X18876159Y-9804967D02*
G75*
G02*
X18952359Y-9804967I38100J0D01*
G01*
X18984090Y-10066295D02*
G75*
G02*
X18907890Y-10066295I-38100J0D01*
G01*
X18907890Y-10066295D02*
G75*
G02*
X18984090Y-10066295I38100J0D01*
G01*
X20292110Y-10066295D02*
G75*
G02*
X20215910Y-10066295I-38100J0D01*
G01*
X20215910Y-10066295D02*
G75*
G02*
X20292110Y-10066295I38100J0D01*
G01*
X20323841Y-9804967D02*
G75*
G02*
X20247641Y-9804967I-38100J0D01*
G01*
X20247641Y-9804967D02*
G75*
G02*
X20323841Y-9804967I38100J0D01*
G01*
X20385459Y-10312436D02*
G75*
G02*
X20309259Y-10312436I-38100J0D01*
G01*
X20309259Y-10312436D02*
G75*
G02*
X20385459Y-10312436I38100J0D01*
G01*
X20473383Y-9588319D02*
G75*
G02*
X20397183Y-9588319I-38100J0D01*
G01*
X20397183Y-9588319D02*
G75*
G02*
X20473383Y-9588319I38100J0D01*
G01*
X20582502Y-10487001D02*
G75*
G02*
X20506302Y-10487001I-38100J0D01*
G01*
X20506302Y-10487001D02*
G75*
G02*
X20582502Y-10487001I38100J0D01*
G01*
X20706476Y-9465982D02*
G75*
G02*
X20630276Y-9465982I-38100J0D01*
G01*
X20630276Y-9465982D02*
G75*
G02*
X20706476Y-9465982I38100J0D01*
G01*
X20838100Y-10550000D02*
G75*
G02*
X20761900Y-10550000I-38100J0D01*
G01*
X20761900Y-10550000D02*
G75*
G02*
X20838100Y-10550000I38100J0D01*
G01*
X20969724Y-9465982D02*
G75*
G02*
X20893524Y-9465982I-38100J0D01*
G01*
X20893524Y-9465982D02*
G75*
G02*
X20969724Y-9465982I38100J0D01*
G01*
X21093698Y-10487001D02*
G75*
G02*
X21017498Y-10487001I-38100J0D01*
G01*
X21017498Y-10487001D02*
G75*
G02*
X21093698Y-10487001I38100J0D01*
G01*
X21202818Y-9588319D02*
G75*
G02*
X21126618Y-9588319I-38100J0D01*
G01*
X21126618Y-9588319D02*
G75*
G02*
X21202818Y-9588319I38100J0D01*
G01*
X21290741Y-10312436D02*
G75*
G02*
X21214541Y-10312436I-38100J0D01*
G01*
X21214541Y-10312436D02*
G75*
G02*
X21290741Y-10312436I38100J0D01*
G01*
X21352359Y-9804967D02*
G75*
G02*
X21276159Y-9804967I-38100J0D01*
G01*
X21276159Y-9804967D02*
G75*
G02*
X21352359Y-9804967I38100J0D01*
G01*
X21384090Y-10066295D02*
G75*
G02*
X21307890Y-10066295I-38100J0D01*
G01*
X21307890Y-10066295D02*
G75*
G02*
X21384090Y-10066295I38100J0D01*
G01*
D10*
X3170777Y-13426484D02*
X3170777Y-13226484D01*
X3170777Y-13226484D02*
X3218396Y-13226484D01*
X3218396Y-13226484D02*
X3246967Y-13236008D01*
X3246967Y-13236008D02*
X3266015Y-13255055D01*
X3266015Y-13255055D02*
X3275539Y-13274103D01*
X3275539Y-13274103D02*
X3285062Y-13312198D01*
X3285062Y-13312198D02*
X3285062Y-13340769D01*
X3285062Y-13340769D02*
X3275539Y-13378865D01*
X3275539Y-13378865D02*
X3266015Y-13397912D01*
X3266015Y-13397912D02*
X3246967Y-13416960D01*
X3246967Y-13416960D02*
X3218396Y-13426484D01*
X3218396Y-13426484D02*
X3170777Y-13426484D01*
X3370777Y-13426484D02*
X3370777Y-13293150D01*
X3370777Y-13331246D02*
X3380301Y-13312198D01*
X3380301Y-13312198D02*
X3389824Y-13302674D01*
X3389824Y-13302674D02*
X3408872Y-13293150D01*
X3408872Y-13293150D02*
X3427920Y-13293150D01*
X3494586Y-13426484D02*
X3494586Y-13293150D01*
X3494586Y-13226484D02*
X3485062Y-13236008D01*
X3485062Y-13236008D02*
X3494586Y-13245531D01*
X3494586Y-13245531D02*
X3504110Y-13236008D01*
X3504110Y-13236008D02*
X3494586Y-13226484D01*
X3494586Y-13226484D02*
X3494586Y-13245531D01*
X3618396Y-13426484D02*
X3599348Y-13416960D01*
X3599348Y-13416960D02*
X3589824Y-13397912D01*
X3589824Y-13397912D02*
X3589824Y-13226484D01*
X3723158Y-13426484D02*
X3704110Y-13416960D01*
X3704110Y-13416960D02*
X3694586Y-13397912D01*
X3694586Y-13397912D02*
X3694586Y-13226484D01*
X3951729Y-13426484D02*
X3951729Y-13226484D01*
X3951729Y-13226484D02*
X4018396Y-13369341D01*
X4018396Y-13369341D02*
X4085062Y-13226484D01*
X4085062Y-13226484D02*
X4085062Y-13426484D01*
X4266015Y-13426484D02*
X4266015Y-13321722D01*
X4266015Y-13321722D02*
X4256491Y-13302674D01*
X4256491Y-13302674D02*
X4237444Y-13293150D01*
X4237444Y-13293150D02*
X4199348Y-13293150D01*
X4199348Y-13293150D02*
X4180301Y-13302674D01*
X4266015Y-13416960D02*
X4246967Y-13426484D01*
X4246967Y-13426484D02*
X4199348Y-13426484D01*
X4199348Y-13426484D02*
X4180301Y-13416960D01*
X4180301Y-13416960D02*
X4170777Y-13397912D01*
X4170777Y-13397912D02*
X4170777Y-13378865D01*
X4170777Y-13378865D02*
X4180301Y-13359817D01*
X4180301Y-13359817D02*
X4199348Y-13350293D01*
X4199348Y-13350293D02*
X4246967Y-13350293D01*
X4246967Y-13350293D02*
X4266015Y-13340769D01*
X4361253Y-13293150D02*
X4361253Y-13493150D01*
X4361253Y-13302674D02*
X4380301Y-13293150D01*
X4380301Y-13293150D02*
X4418396Y-13293150D01*
X4418396Y-13293150D02*
X4437444Y-13302674D01*
X4437444Y-13302674D02*
X4446967Y-13312198D01*
X4446967Y-13312198D02*
X4456491Y-13331246D01*
X4456491Y-13331246D02*
X4456491Y-13388388D01*
X4456491Y-13388388D02*
X4446967Y-13407436D01*
X4446967Y-13407436D02*
X4437444Y-13416960D01*
X4437444Y-13416960D02*
X4418396Y-13426484D01*
X4418396Y-13426484D02*
X4380301Y-13426484D01*
X4380301Y-13426484D02*
X4361253Y-13416960D01*
X4542205Y-13407436D02*
X4551729Y-13416960D01*
X4551729Y-13416960D02*
X4542205Y-13426484D01*
X4542205Y-13426484D02*
X4532682Y-13416960D01*
X4532682Y-13416960D02*
X4542205Y-13407436D01*
X4542205Y-13407436D02*
X4542205Y-13426484D01*
X4542205Y-13302674D02*
X4551729Y-13312198D01*
X4551729Y-13312198D02*
X4542205Y-13321722D01*
X4542205Y-13321722D02*
X4532682Y-13312198D01*
X4532682Y-13312198D02*
X4542205Y-13302674D01*
X4542205Y-13302674D02*
X4542205Y-13321722D01*
D11*
X2880000Y-13740000D02*
X2910000Y-13770000D01*
X2910000Y-13740000D02*
X2880000Y-13770000D01*
D10*
X3208872Y-13646484D02*
X3227920Y-13646484D01*
X3227920Y-13646484D02*
X3246967Y-13656008D01*
X3246967Y-13656008D02*
X3256491Y-13665531D01*
X3256491Y-13665531D02*
X3266015Y-13684579D01*
X3266015Y-13684579D02*
X3275539Y-13722674D01*
X3275539Y-13722674D02*
X3275539Y-13770293D01*
X3275539Y-13770293D02*
X3266015Y-13808388D01*
X3266015Y-13808388D02*
X3256491Y-13827436D01*
X3256491Y-13827436D02*
X3246967Y-13836960D01*
X3246967Y-13836960D02*
X3227920Y-13846484D01*
X3227920Y-13846484D02*
X3208872Y-13846484D01*
X3208872Y-13846484D02*
X3189824Y-13836960D01*
X3189824Y-13836960D02*
X3180301Y-13827436D01*
X3180301Y-13827436D02*
X3170777Y-13808388D01*
X3170777Y-13808388D02*
X3161253Y-13770293D01*
X3161253Y-13770293D02*
X3161253Y-13722674D01*
X3161253Y-13722674D02*
X3170777Y-13684579D01*
X3170777Y-13684579D02*
X3180301Y-13665531D01*
X3180301Y-13665531D02*
X3189824Y-13656008D01*
X3189824Y-13656008D02*
X3208872Y-13646484D01*
X3361253Y-13827436D02*
X3370777Y-13836960D01*
X3370777Y-13836960D02*
X3361253Y-13846484D01*
X3361253Y-13846484D02*
X3351729Y-13836960D01*
X3351729Y-13836960D02*
X3361253Y-13827436D01*
X3361253Y-13827436D02*
X3361253Y-13846484D01*
X3437443Y-13646484D02*
X3561253Y-13646484D01*
X3561253Y-13646484D02*
X3494586Y-13722674D01*
X3494586Y-13722674D02*
X3523158Y-13722674D01*
X3523158Y-13722674D02*
X3542205Y-13732198D01*
X3542205Y-13732198D02*
X3551729Y-13741722D01*
X3551729Y-13741722D02*
X3561253Y-13760769D01*
X3561253Y-13760769D02*
X3561253Y-13808388D01*
X3561253Y-13808388D02*
X3551729Y-13827436D01*
X3551729Y-13827436D02*
X3542205Y-13836960D01*
X3542205Y-13836960D02*
X3523158Y-13846484D01*
X3523158Y-13846484D02*
X3466015Y-13846484D01*
X3466015Y-13846484D02*
X3446967Y-13836960D01*
X3446967Y-13836960D02*
X3437443Y-13827436D01*
X3685062Y-13646484D02*
X3704110Y-13646484D01*
X3704110Y-13646484D02*
X3723158Y-13656008D01*
X3723158Y-13656008D02*
X3732682Y-13665531D01*
X3732682Y-13665531D02*
X3742205Y-13684579D01*
X3742205Y-13684579D02*
X3751729Y-13722674D01*
X3751729Y-13722674D02*
X3751729Y-13770293D01*
X3751729Y-13770293D02*
X3742205Y-13808388D01*
X3742205Y-13808388D02*
X3732682Y-13827436D01*
X3732682Y-13827436D02*
X3723158Y-13836960D01*
X3723158Y-13836960D02*
X3704110Y-13846484D01*
X3704110Y-13846484D02*
X3685062Y-13846484D01*
X3685062Y-13846484D02*
X3666015Y-13836960D01*
X3666015Y-13836960D02*
X3656491Y-13827436D01*
X3656491Y-13827436D02*
X3646967Y-13808388D01*
X3646967Y-13808388D02*
X3637443Y-13770293D01*
X3637443Y-13770293D02*
X3637443Y-13722674D01*
X3637443Y-13722674D02*
X3646967Y-13684579D01*
X3646967Y-13684579D02*
X3656491Y-13665531D01*
X3656491Y-13665531D02*
X3666015Y-13656008D01*
X3666015Y-13656008D02*
X3685062Y-13646484D01*
X3875539Y-13646484D02*
X3894586Y-13646484D01*
X3894586Y-13646484D02*
X3913634Y-13656008D01*
X3913634Y-13656008D02*
X3923158Y-13665531D01*
X3923158Y-13665531D02*
X3932682Y-13684579D01*
X3932682Y-13684579D02*
X3942205Y-13722674D01*
X3942205Y-13722674D02*
X3942205Y-13770293D01*
X3942205Y-13770293D02*
X3932682Y-13808388D01*
X3932682Y-13808388D02*
X3923158Y-13827436D01*
X3923158Y-13827436D02*
X3913634Y-13836960D01*
X3913634Y-13836960D02*
X3894586Y-13846484D01*
X3894586Y-13846484D02*
X3875539Y-13846484D01*
X3875539Y-13846484D02*
X3856491Y-13836960D01*
X3856491Y-13836960D02*
X3846967Y-13827436D01*
X3846967Y-13827436D02*
X3837443Y-13808388D01*
X3837443Y-13808388D02*
X3827920Y-13770293D01*
X3827920Y-13770293D02*
X3827920Y-13722674D01*
X3827920Y-13722674D02*
X3837443Y-13684579D01*
X3837443Y-13684579D02*
X3846967Y-13665531D01*
X3846967Y-13665531D02*
X3856491Y-13656008D01*
X3856491Y-13656008D02*
X3875539Y-13646484D01*
X4027920Y-13846484D02*
X4027920Y-13713150D01*
X4027920Y-13732198D02*
X4037443Y-13722674D01*
X4037443Y-13722674D02*
X4056491Y-13713150D01*
X4056491Y-13713150D02*
X4085063Y-13713150D01*
X4085063Y-13713150D02*
X4104110Y-13722674D01*
X4104110Y-13722674D02*
X4113634Y-13741722D01*
X4113634Y-13741722D02*
X4113634Y-13846484D01*
X4113634Y-13741722D02*
X4123158Y-13722674D01*
X4123158Y-13722674D02*
X4142205Y-13713150D01*
X4142205Y-13713150D02*
X4170777Y-13713150D01*
X4170777Y-13713150D02*
X4189824Y-13722674D01*
X4189824Y-13722674D02*
X4199348Y-13741722D01*
X4199348Y-13741722D02*
X4199348Y-13846484D01*
X4294586Y-13846484D02*
X4294586Y-13713150D01*
X4294586Y-13732198D02*
X4304110Y-13722674D01*
X4304110Y-13722674D02*
X4323158Y-13713150D01*
X4323158Y-13713150D02*
X4351729Y-13713150D01*
X4351729Y-13713150D02*
X4370777Y-13722674D01*
X4370777Y-13722674D02*
X4380301Y-13741722D01*
X4380301Y-13741722D02*
X4380301Y-13846484D01*
X4380301Y-13741722D02*
X4389825Y-13722674D01*
X4389825Y-13722674D02*
X4408872Y-13713150D01*
X4408872Y-13713150D02*
X4437444Y-13713150D01*
X4437444Y-13713150D02*
X4456491Y-13722674D01*
X4456491Y-13722674D02*
X4466015Y-13741722D01*
X4466015Y-13741722D02*
X4466015Y-13846484D01*
X4856491Y-13636960D02*
X4685063Y-13894103D01*
X5113634Y-13646484D02*
X5132682Y-13646484D01*
X5132682Y-13646484D02*
X5151729Y-13656008D01*
X5151729Y-13656008D02*
X5161253Y-13665531D01*
X5161253Y-13665531D02*
X5170777Y-13684579D01*
X5170777Y-13684579D02*
X5180301Y-13722674D01*
X5180301Y-13722674D02*
X5180301Y-13770293D01*
X5180301Y-13770293D02*
X5170777Y-13808388D01*
X5170777Y-13808388D02*
X5161253Y-13827436D01*
X5161253Y-13827436D02*
X5151729Y-13836960D01*
X5151729Y-13836960D02*
X5132682Y-13846484D01*
X5132682Y-13846484D02*
X5113634Y-13846484D01*
X5113634Y-13846484D02*
X5094587Y-13836960D01*
X5094587Y-13836960D02*
X5085063Y-13827436D01*
X5085063Y-13827436D02*
X5075539Y-13808388D01*
X5075539Y-13808388D02*
X5066015Y-13770293D01*
X5066015Y-13770293D02*
X5066015Y-13722674D01*
X5066015Y-13722674D02*
X5075539Y-13684579D01*
X5075539Y-13684579D02*
X5085063Y-13665531D01*
X5085063Y-13665531D02*
X5094587Y-13656008D01*
X5094587Y-13656008D02*
X5113634Y-13646484D01*
X5266015Y-13827436D02*
X5275539Y-13836960D01*
X5275539Y-13836960D02*
X5266015Y-13846484D01*
X5266015Y-13846484D02*
X5256491Y-13836960D01*
X5256491Y-13836960D02*
X5266015Y-13827436D01*
X5266015Y-13827436D02*
X5266015Y-13846484D01*
X5399348Y-13646484D02*
X5418396Y-13646484D01*
X5418396Y-13646484D02*
X5437444Y-13656008D01*
X5437444Y-13656008D02*
X5446968Y-13665531D01*
X5446968Y-13665531D02*
X5456491Y-13684579D01*
X5456491Y-13684579D02*
X5466015Y-13722674D01*
X5466015Y-13722674D02*
X5466015Y-13770293D01*
X5466015Y-13770293D02*
X5456491Y-13808388D01*
X5456491Y-13808388D02*
X5446968Y-13827436D01*
X5446968Y-13827436D02*
X5437444Y-13836960D01*
X5437444Y-13836960D02*
X5418396Y-13846484D01*
X5418396Y-13846484D02*
X5399348Y-13846484D01*
X5399348Y-13846484D02*
X5380301Y-13836960D01*
X5380301Y-13836960D02*
X5370777Y-13827436D01*
X5370777Y-13827436D02*
X5361253Y-13808388D01*
X5361253Y-13808388D02*
X5351729Y-13770293D01*
X5351729Y-13770293D02*
X5351729Y-13722674D01*
X5351729Y-13722674D02*
X5361253Y-13684579D01*
X5361253Y-13684579D02*
X5370777Y-13665531D01*
X5370777Y-13665531D02*
X5380301Y-13656008D01*
X5380301Y-13656008D02*
X5399348Y-13646484D01*
X5656491Y-13846484D02*
X5542206Y-13846484D01*
X5599348Y-13846484D02*
X5599348Y-13646484D01*
X5599348Y-13646484D02*
X5580301Y-13675055D01*
X5580301Y-13675055D02*
X5561253Y-13694103D01*
X5561253Y-13694103D02*
X5542206Y-13703627D01*
X5846967Y-13846484D02*
X5732682Y-13846484D01*
X5789825Y-13846484D02*
X5789825Y-13646484D01*
X5789825Y-13646484D02*
X5770777Y-13675055D01*
X5770777Y-13675055D02*
X5751729Y-13694103D01*
X5751729Y-13694103D02*
X5732682Y-13703627D01*
X5961253Y-13732198D02*
X5942206Y-13722674D01*
X5942206Y-13722674D02*
X5932682Y-13713150D01*
X5932682Y-13713150D02*
X5923158Y-13694103D01*
X5923158Y-13694103D02*
X5923158Y-13684579D01*
X5923158Y-13684579D02*
X5932682Y-13665531D01*
X5932682Y-13665531D02*
X5942206Y-13656008D01*
X5942206Y-13656008D02*
X5961253Y-13646484D01*
X5961253Y-13646484D02*
X5999348Y-13646484D01*
X5999348Y-13646484D02*
X6018396Y-13656008D01*
X6018396Y-13656008D02*
X6027920Y-13665531D01*
X6027920Y-13665531D02*
X6037444Y-13684579D01*
X6037444Y-13684579D02*
X6037444Y-13694103D01*
X6037444Y-13694103D02*
X6027920Y-13713150D01*
X6027920Y-13713150D02*
X6018396Y-13722674D01*
X6018396Y-13722674D02*
X5999348Y-13732198D01*
X5999348Y-13732198D02*
X5961253Y-13732198D01*
X5961253Y-13732198D02*
X5942206Y-13741722D01*
X5942206Y-13741722D02*
X5932682Y-13751246D01*
X5932682Y-13751246D02*
X5923158Y-13770293D01*
X5923158Y-13770293D02*
X5923158Y-13808388D01*
X5923158Y-13808388D02*
X5932682Y-13827436D01*
X5932682Y-13827436D02*
X5942206Y-13836960D01*
X5942206Y-13836960D02*
X5961253Y-13846484D01*
X5961253Y-13846484D02*
X5999348Y-13846484D01*
X5999348Y-13846484D02*
X6018396Y-13836960D01*
X6018396Y-13836960D02*
X6027920Y-13827436D01*
X6027920Y-13827436D02*
X6037444Y-13808388D01*
X6037444Y-13808388D02*
X6037444Y-13770293D01*
X6037444Y-13770293D02*
X6027920Y-13751246D01*
X6027920Y-13751246D02*
X6018396Y-13741722D01*
X6018396Y-13741722D02*
X5999348Y-13732198D01*
X6113634Y-13646484D02*
X6113634Y-13684579D01*
X6189825Y-13646484D02*
X6189825Y-13684579D01*
X6485063Y-13922674D02*
X6475539Y-13913150D01*
X6475539Y-13913150D02*
X6456491Y-13884579D01*
X6456491Y-13884579D02*
X6446968Y-13865531D01*
X6446968Y-13865531D02*
X6437444Y-13836960D01*
X6437444Y-13836960D02*
X6427920Y-13789341D01*
X6427920Y-13789341D02*
X6427920Y-13751246D01*
X6427920Y-13751246D02*
X6437444Y-13703627D01*
X6437444Y-13703627D02*
X6446968Y-13675055D01*
X6446968Y-13675055D02*
X6456491Y-13656008D01*
X6456491Y-13656008D02*
X6475539Y-13627436D01*
X6475539Y-13627436D02*
X6485063Y-13617912D01*
X6551729Y-13665531D02*
X6561253Y-13656008D01*
X6561253Y-13656008D02*
X6580301Y-13646484D01*
X6580301Y-13646484D02*
X6627920Y-13646484D01*
X6627920Y-13646484D02*
X6646968Y-13656008D01*
X6646968Y-13656008D02*
X6656491Y-13665531D01*
X6656491Y-13665531D02*
X6666015Y-13684579D01*
X6666015Y-13684579D02*
X6666015Y-13703627D01*
X6666015Y-13703627D02*
X6656491Y-13732198D01*
X6656491Y-13732198D02*
X6542206Y-13846484D01*
X6542206Y-13846484D02*
X6666015Y-13846484D01*
X6780301Y-13732198D02*
X6761253Y-13722674D01*
X6761253Y-13722674D02*
X6751729Y-13713150D01*
X6751729Y-13713150D02*
X6742206Y-13694103D01*
X6742206Y-13694103D02*
X6742206Y-13684579D01*
X6742206Y-13684579D02*
X6751729Y-13665531D01*
X6751729Y-13665531D02*
X6761253Y-13656008D01*
X6761253Y-13656008D02*
X6780301Y-13646484D01*
X6780301Y-13646484D02*
X6818396Y-13646484D01*
X6818396Y-13646484D02*
X6837444Y-13656008D01*
X6837444Y-13656008D02*
X6846968Y-13665531D01*
X6846968Y-13665531D02*
X6856491Y-13684579D01*
X6856491Y-13684579D02*
X6856491Y-13694103D01*
X6856491Y-13694103D02*
X6846968Y-13713150D01*
X6846968Y-13713150D02*
X6837444Y-13722674D01*
X6837444Y-13722674D02*
X6818396Y-13732198D01*
X6818396Y-13732198D02*
X6780301Y-13732198D01*
X6780301Y-13732198D02*
X6761253Y-13741722D01*
X6761253Y-13741722D02*
X6751729Y-13751246D01*
X6751729Y-13751246D02*
X6742206Y-13770293D01*
X6742206Y-13770293D02*
X6742206Y-13808388D01*
X6742206Y-13808388D02*
X6751729Y-13827436D01*
X6751729Y-13827436D02*
X6761253Y-13836960D01*
X6761253Y-13836960D02*
X6780301Y-13846484D01*
X6780301Y-13846484D02*
X6818396Y-13846484D01*
X6818396Y-13846484D02*
X6837444Y-13836960D01*
X6837444Y-13836960D02*
X6846968Y-13827436D01*
X6846968Y-13827436D02*
X6856491Y-13808388D01*
X6856491Y-13808388D02*
X6856491Y-13770293D01*
X6856491Y-13770293D02*
X6846968Y-13751246D01*
X6846968Y-13751246D02*
X6837444Y-13741722D01*
X6837444Y-13741722D02*
X6818396Y-13732198D01*
X7037444Y-13646484D02*
X6942206Y-13646484D01*
X6942206Y-13646484D02*
X6932682Y-13741722D01*
X6932682Y-13741722D02*
X6942206Y-13732198D01*
X6942206Y-13732198D02*
X6961253Y-13722674D01*
X6961253Y-13722674D02*
X7008872Y-13722674D01*
X7008872Y-13722674D02*
X7027920Y-13732198D01*
X7027920Y-13732198D02*
X7037444Y-13741722D01*
X7037444Y-13741722D02*
X7046968Y-13760769D01*
X7046968Y-13760769D02*
X7046968Y-13808388D01*
X7046968Y-13808388D02*
X7037444Y-13827436D01*
X7037444Y-13827436D02*
X7027920Y-13836960D01*
X7027920Y-13836960D02*
X7008872Y-13846484D01*
X7008872Y-13846484D02*
X6961253Y-13846484D01*
X6961253Y-13846484D02*
X6942206Y-13836960D01*
X6942206Y-13836960D02*
X6932682Y-13827436D01*
X7285063Y-13846484D02*
X7285063Y-13646484D01*
X7370777Y-13846484D02*
X7370777Y-13741722D01*
X7370777Y-13741722D02*
X7361253Y-13722674D01*
X7361253Y-13722674D02*
X7342206Y-13713150D01*
X7342206Y-13713150D02*
X7313634Y-13713150D01*
X7313634Y-13713150D02*
X7294587Y-13722674D01*
X7294587Y-13722674D02*
X7285063Y-13732198D01*
X7494587Y-13846484D02*
X7475539Y-13836960D01*
X7475539Y-13836960D02*
X7466015Y-13827436D01*
X7466015Y-13827436D02*
X7456491Y-13808388D01*
X7456491Y-13808388D02*
X7456491Y-13751246D01*
X7456491Y-13751246D02*
X7466015Y-13732198D01*
X7466015Y-13732198D02*
X7475539Y-13722674D01*
X7475539Y-13722674D02*
X7494587Y-13713150D01*
X7494587Y-13713150D02*
X7523158Y-13713150D01*
X7523158Y-13713150D02*
X7542206Y-13722674D01*
X7542206Y-13722674D02*
X7551730Y-13732198D01*
X7551730Y-13732198D02*
X7561253Y-13751246D01*
X7561253Y-13751246D02*
X7561253Y-13808388D01*
X7561253Y-13808388D02*
X7551730Y-13827436D01*
X7551730Y-13827436D02*
X7542206Y-13836960D01*
X7542206Y-13836960D02*
X7523158Y-13846484D01*
X7523158Y-13846484D02*
X7494587Y-13846484D01*
X7675539Y-13846484D02*
X7656491Y-13836960D01*
X7656491Y-13836960D02*
X7646968Y-13817912D01*
X7646968Y-13817912D02*
X7646968Y-13646484D01*
X7827920Y-13836960D02*
X7808872Y-13846484D01*
X7808872Y-13846484D02*
X7770777Y-13846484D01*
X7770777Y-13846484D02*
X7751730Y-13836960D01*
X7751730Y-13836960D02*
X7742206Y-13817912D01*
X7742206Y-13817912D02*
X7742206Y-13741722D01*
X7742206Y-13741722D02*
X7751730Y-13722674D01*
X7751730Y-13722674D02*
X7770777Y-13713150D01*
X7770777Y-13713150D02*
X7808872Y-13713150D01*
X7808872Y-13713150D02*
X7827920Y-13722674D01*
X7827920Y-13722674D02*
X7837444Y-13741722D01*
X7837444Y-13741722D02*
X7837444Y-13760769D01*
X7837444Y-13760769D02*
X7742206Y-13779817D01*
X7913634Y-13836960D02*
X7932682Y-13846484D01*
X7932682Y-13846484D02*
X7970777Y-13846484D01*
X7970777Y-13846484D02*
X7989825Y-13836960D01*
X7989825Y-13836960D02*
X7999349Y-13817912D01*
X7999349Y-13817912D02*
X7999349Y-13808388D01*
X7999349Y-13808388D02*
X7989825Y-13789341D01*
X7989825Y-13789341D02*
X7970777Y-13779817D01*
X7970777Y-13779817D02*
X7942206Y-13779817D01*
X7942206Y-13779817D02*
X7923158Y-13770293D01*
X7923158Y-13770293D02*
X7913634Y-13751246D01*
X7913634Y-13751246D02*
X7913634Y-13741722D01*
X7913634Y-13741722D02*
X7923158Y-13722674D01*
X7923158Y-13722674D02*
X7942206Y-13713150D01*
X7942206Y-13713150D02*
X7970777Y-13713150D01*
X7970777Y-13713150D02*
X7989825Y-13722674D01*
X8066015Y-13922674D02*
X8075539Y-13913150D01*
X8075539Y-13913150D02*
X8094587Y-13884579D01*
X8094587Y-13884579D02*
X8104111Y-13865531D01*
X8104111Y-13865531D02*
X8113634Y-13836960D01*
X8113634Y-13836960D02*
X8123158Y-13789341D01*
X8123158Y-13789341D02*
X8123158Y-13751246D01*
X8123158Y-13751246D02*
X8113634Y-13703627D01*
X8113634Y-13703627D02*
X8104111Y-13675055D01*
X8104111Y-13675055D02*
X8094587Y-13656008D01*
X8094587Y-13656008D02*
X8075539Y-13627436D01*
X8075539Y-13627436D02*
X8066015Y-13617912D01*
D11*
X2910000Y-14019000D02*
G75*
G02*
X2833800Y-14019000I-38100J0D01*
G01*
X2833800Y-14019000D02*
G75*
G02*
X2910000Y-14019000I38100J0D01*
G01*
D10*
X3208872Y-13910484D02*
X3227920Y-13910484D01*
X3227920Y-13910484D02*
X3246967Y-13920008D01*
X3246967Y-13920008D02*
X3256491Y-13929531D01*
X3256491Y-13929531D02*
X3266015Y-13948579D01*
X3266015Y-13948579D02*
X3275539Y-13986674D01*
X3275539Y-13986674D02*
X3275539Y-14034293D01*
X3275539Y-14034293D02*
X3266015Y-14072388D01*
X3266015Y-14072388D02*
X3256491Y-14091436D01*
X3256491Y-14091436D02*
X3246967Y-14100960D01*
X3246967Y-14100960D02*
X3227920Y-14110484D01*
X3227920Y-14110484D02*
X3208872Y-14110484D01*
X3208872Y-14110484D02*
X3189824Y-14100960D01*
X3189824Y-14100960D02*
X3180301Y-14091436D01*
X3180301Y-14091436D02*
X3170777Y-14072388D01*
X3170777Y-14072388D02*
X3161253Y-14034293D01*
X3161253Y-14034293D02*
X3161253Y-13986674D01*
X3161253Y-13986674D02*
X3170777Y-13948579D01*
X3170777Y-13948579D02*
X3180301Y-13929531D01*
X3180301Y-13929531D02*
X3189824Y-13920008D01*
X3189824Y-13920008D02*
X3208872Y-13910484D01*
X3361253Y-14091436D02*
X3370777Y-14100960D01*
X3370777Y-14100960D02*
X3361253Y-14110484D01*
X3361253Y-14110484D02*
X3351729Y-14100960D01*
X3351729Y-14100960D02*
X3361253Y-14091436D01*
X3361253Y-14091436D02*
X3361253Y-14110484D01*
X3437443Y-13910484D02*
X3570777Y-13910484D01*
X3570777Y-13910484D02*
X3485062Y-14110484D01*
X3732682Y-13910484D02*
X3694586Y-13910484D01*
X3694586Y-13910484D02*
X3675539Y-13920008D01*
X3675539Y-13920008D02*
X3666015Y-13929531D01*
X3666015Y-13929531D02*
X3646967Y-13958103D01*
X3646967Y-13958103D02*
X3637443Y-13996198D01*
X3637443Y-13996198D02*
X3637443Y-14072388D01*
X3637443Y-14072388D02*
X3646967Y-14091436D01*
X3646967Y-14091436D02*
X3656491Y-14100960D01*
X3656491Y-14100960D02*
X3675539Y-14110484D01*
X3675539Y-14110484D02*
X3713634Y-14110484D01*
X3713634Y-14110484D02*
X3732682Y-14100960D01*
X3732682Y-14100960D02*
X3742205Y-14091436D01*
X3742205Y-14091436D02*
X3751729Y-14072388D01*
X3751729Y-14072388D02*
X3751729Y-14024769D01*
X3751729Y-14024769D02*
X3742205Y-14005722D01*
X3742205Y-14005722D02*
X3732682Y-13996198D01*
X3732682Y-13996198D02*
X3713634Y-13986674D01*
X3713634Y-13986674D02*
X3675539Y-13986674D01*
X3675539Y-13986674D02*
X3656491Y-13996198D01*
X3656491Y-13996198D02*
X3646967Y-14005722D01*
X3646967Y-14005722D02*
X3637443Y-14024769D01*
X3827920Y-13929531D02*
X3837443Y-13920008D01*
X3837443Y-13920008D02*
X3856491Y-13910484D01*
X3856491Y-13910484D02*
X3904110Y-13910484D01*
X3904110Y-13910484D02*
X3923158Y-13920008D01*
X3923158Y-13920008D02*
X3932682Y-13929531D01*
X3932682Y-13929531D02*
X3942205Y-13948579D01*
X3942205Y-13948579D02*
X3942205Y-13967627D01*
X3942205Y-13967627D02*
X3932682Y-13996198D01*
X3932682Y-13996198D02*
X3818396Y-14110484D01*
X3818396Y-14110484D02*
X3942205Y-14110484D01*
X4027920Y-14110484D02*
X4027920Y-13977150D01*
X4027920Y-13996198D02*
X4037443Y-13986674D01*
X4037443Y-13986674D02*
X4056491Y-13977150D01*
X4056491Y-13977150D02*
X4085063Y-13977150D01*
X4085063Y-13977150D02*
X4104110Y-13986674D01*
X4104110Y-13986674D02*
X4113634Y-14005722D01*
X4113634Y-14005722D02*
X4113634Y-14110484D01*
X4113634Y-14005722D02*
X4123158Y-13986674D01*
X4123158Y-13986674D02*
X4142205Y-13977150D01*
X4142205Y-13977150D02*
X4170777Y-13977150D01*
X4170777Y-13977150D02*
X4189824Y-13986674D01*
X4189824Y-13986674D02*
X4199348Y-14005722D01*
X4199348Y-14005722D02*
X4199348Y-14110484D01*
X4294586Y-14110484D02*
X4294586Y-13977150D01*
X4294586Y-13996198D02*
X4304110Y-13986674D01*
X4304110Y-13986674D02*
X4323158Y-13977150D01*
X4323158Y-13977150D02*
X4351729Y-13977150D01*
X4351729Y-13977150D02*
X4370777Y-13986674D01*
X4370777Y-13986674D02*
X4380301Y-14005722D01*
X4380301Y-14005722D02*
X4380301Y-14110484D01*
X4380301Y-14005722D02*
X4389825Y-13986674D01*
X4389825Y-13986674D02*
X4408872Y-13977150D01*
X4408872Y-13977150D02*
X4437444Y-13977150D01*
X4437444Y-13977150D02*
X4456491Y-13986674D01*
X4456491Y-13986674D02*
X4466015Y-14005722D01*
X4466015Y-14005722D02*
X4466015Y-14110484D01*
X4856491Y-13900960D02*
X4685063Y-14158103D01*
X5113634Y-13910484D02*
X5132682Y-13910484D01*
X5132682Y-13910484D02*
X5151729Y-13920008D01*
X5151729Y-13920008D02*
X5161253Y-13929531D01*
X5161253Y-13929531D02*
X5170777Y-13948579D01*
X5170777Y-13948579D02*
X5180301Y-13986674D01*
X5180301Y-13986674D02*
X5180301Y-14034293D01*
X5180301Y-14034293D02*
X5170777Y-14072388D01*
X5170777Y-14072388D02*
X5161253Y-14091436D01*
X5161253Y-14091436D02*
X5151729Y-14100960D01*
X5151729Y-14100960D02*
X5132682Y-14110484D01*
X5132682Y-14110484D02*
X5113634Y-14110484D01*
X5113634Y-14110484D02*
X5094587Y-14100960D01*
X5094587Y-14100960D02*
X5085063Y-14091436D01*
X5085063Y-14091436D02*
X5075539Y-14072388D01*
X5075539Y-14072388D02*
X5066015Y-14034293D01*
X5066015Y-14034293D02*
X5066015Y-13986674D01*
X5066015Y-13986674D02*
X5075539Y-13948579D01*
X5075539Y-13948579D02*
X5085063Y-13929531D01*
X5085063Y-13929531D02*
X5094587Y-13920008D01*
X5094587Y-13920008D02*
X5113634Y-13910484D01*
X5266015Y-14091436D02*
X5275539Y-14100960D01*
X5275539Y-14100960D02*
X5266015Y-14110484D01*
X5266015Y-14110484D02*
X5256491Y-14100960D01*
X5256491Y-14100960D02*
X5266015Y-14091436D01*
X5266015Y-14091436D02*
X5266015Y-14110484D01*
X5399348Y-13910484D02*
X5418396Y-13910484D01*
X5418396Y-13910484D02*
X5437444Y-13920008D01*
X5437444Y-13920008D02*
X5446968Y-13929531D01*
X5446968Y-13929531D02*
X5456491Y-13948579D01*
X5456491Y-13948579D02*
X5466015Y-13986674D01*
X5466015Y-13986674D02*
X5466015Y-14034293D01*
X5466015Y-14034293D02*
X5456491Y-14072388D01*
X5456491Y-14072388D02*
X5446968Y-14091436D01*
X5446968Y-14091436D02*
X5437444Y-14100960D01*
X5437444Y-14100960D02*
X5418396Y-14110484D01*
X5418396Y-14110484D02*
X5399348Y-14110484D01*
X5399348Y-14110484D02*
X5380301Y-14100960D01*
X5380301Y-14100960D02*
X5370777Y-14091436D01*
X5370777Y-14091436D02*
X5361253Y-14072388D01*
X5361253Y-14072388D02*
X5351729Y-14034293D01*
X5351729Y-14034293D02*
X5351729Y-13986674D01*
X5351729Y-13986674D02*
X5361253Y-13948579D01*
X5361253Y-13948579D02*
X5370777Y-13929531D01*
X5370777Y-13929531D02*
X5380301Y-13920008D01*
X5380301Y-13920008D02*
X5399348Y-13910484D01*
X5532682Y-13910484D02*
X5656491Y-13910484D01*
X5656491Y-13910484D02*
X5589825Y-13986674D01*
X5589825Y-13986674D02*
X5618396Y-13986674D01*
X5618396Y-13986674D02*
X5637444Y-13996198D01*
X5637444Y-13996198D02*
X5646967Y-14005722D01*
X5646967Y-14005722D02*
X5656491Y-14024769D01*
X5656491Y-14024769D02*
X5656491Y-14072388D01*
X5656491Y-14072388D02*
X5646967Y-14091436D01*
X5646967Y-14091436D02*
X5637444Y-14100960D01*
X5637444Y-14100960D02*
X5618396Y-14110484D01*
X5618396Y-14110484D02*
X5561253Y-14110484D01*
X5561253Y-14110484D02*
X5542206Y-14100960D01*
X5542206Y-14100960D02*
X5532682Y-14091436D01*
X5780301Y-13910484D02*
X5799348Y-13910484D01*
X5799348Y-13910484D02*
X5818396Y-13920008D01*
X5818396Y-13920008D02*
X5827920Y-13929531D01*
X5827920Y-13929531D02*
X5837444Y-13948579D01*
X5837444Y-13948579D02*
X5846967Y-13986674D01*
X5846967Y-13986674D02*
X5846967Y-14034293D01*
X5846967Y-14034293D02*
X5837444Y-14072388D01*
X5837444Y-14072388D02*
X5827920Y-14091436D01*
X5827920Y-14091436D02*
X5818396Y-14100960D01*
X5818396Y-14100960D02*
X5799348Y-14110484D01*
X5799348Y-14110484D02*
X5780301Y-14110484D01*
X5780301Y-14110484D02*
X5761253Y-14100960D01*
X5761253Y-14100960D02*
X5751729Y-14091436D01*
X5751729Y-14091436D02*
X5742206Y-14072388D01*
X5742206Y-14072388D02*
X5732682Y-14034293D01*
X5732682Y-14034293D02*
X5732682Y-13986674D01*
X5732682Y-13986674D02*
X5742206Y-13948579D01*
X5742206Y-13948579D02*
X5751729Y-13929531D01*
X5751729Y-13929531D02*
X5761253Y-13920008D01*
X5761253Y-13920008D02*
X5780301Y-13910484D01*
X5970777Y-13910484D02*
X5989825Y-13910484D01*
X5989825Y-13910484D02*
X6008872Y-13920008D01*
X6008872Y-13920008D02*
X6018396Y-13929531D01*
X6018396Y-13929531D02*
X6027920Y-13948579D01*
X6027920Y-13948579D02*
X6037444Y-13986674D01*
X6037444Y-13986674D02*
X6037444Y-14034293D01*
X6037444Y-14034293D02*
X6027920Y-14072388D01*
X6027920Y-14072388D02*
X6018396Y-14091436D01*
X6018396Y-14091436D02*
X6008872Y-14100960D01*
X6008872Y-14100960D02*
X5989825Y-14110484D01*
X5989825Y-14110484D02*
X5970777Y-14110484D01*
X5970777Y-14110484D02*
X5951729Y-14100960D01*
X5951729Y-14100960D02*
X5942206Y-14091436D01*
X5942206Y-14091436D02*
X5932682Y-14072388D01*
X5932682Y-14072388D02*
X5923158Y-14034293D01*
X5923158Y-14034293D02*
X5923158Y-13986674D01*
X5923158Y-13986674D02*
X5932682Y-13948579D01*
X5932682Y-13948579D02*
X5942206Y-13929531D01*
X5942206Y-13929531D02*
X5951729Y-13920008D01*
X5951729Y-13920008D02*
X5970777Y-13910484D01*
X6113634Y-13910484D02*
X6113634Y-13948579D01*
X6189825Y-13910484D02*
X6189825Y-13948579D01*
X6485063Y-14186674D02*
X6475539Y-14177150D01*
X6475539Y-14177150D02*
X6456491Y-14148579D01*
X6456491Y-14148579D02*
X6446968Y-14129531D01*
X6446968Y-14129531D02*
X6437444Y-14100960D01*
X6437444Y-14100960D02*
X6427920Y-14053341D01*
X6427920Y-14053341D02*
X6427920Y-14015246D01*
X6427920Y-14015246D02*
X6437444Y-13967627D01*
X6437444Y-13967627D02*
X6446968Y-13939055D01*
X6446968Y-13939055D02*
X6456491Y-13920008D01*
X6456491Y-13920008D02*
X6475539Y-13891436D01*
X6475539Y-13891436D02*
X6485063Y-13881912D01*
X6542206Y-13910484D02*
X6675539Y-13910484D01*
X6675539Y-13910484D02*
X6589825Y-14110484D01*
X6780301Y-13996198D02*
X6761253Y-13986674D01*
X6761253Y-13986674D02*
X6751729Y-13977150D01*
X6751729Y-13977150D02*
X6742206Y-13958103D01*
X6742206Y-13958103D02*
X6742206Y-13948579D01*
X6742206Y-13948579D02*
X6751729Y-13929531D01*
X6751729Y-13929531D02*
X6761253Y-13920008D01*
X6761253Y-13920008D02*
X6780301Y-13910484D01*
X6780301Y-13910484D02*
X6818396Y-13910484D01*
X6818396Y-13910484D02*
X6837444Y-13920008D01*
X6837444Y-13920008D02*
X6846968Y-13929531D01*
X6846968Y-13929531D02*
X6856491Y-13948579D01*
X6856491Y-13948579D02*
X6856491Y-13958103D01*
X6856491Y-13958103D02*
X6846968Y-13977150D01*
X6846968Y-13977150D02*
X6837444Y-13986674D01*
X6837444Y-13986674D02*
X6818396Y-13996198D01*
X6818396Y-13996198D02*
X6780301Y-13996198D01*
X6780301Y-13996198D02*
X6761253Y-14005722D01*
X6761253Y-14005722D02*
X6751729Y-14015246D01*
X6751729Y-14015246D02*
X6742206Y-14034293D01*
X6742206Y-14034293D02*
X6742206Y-14072388D01*
X6742206Y-14072388D02*
X6751729Y-14091436D01*
X6751729Y-14091436D02*
X6761253Y-14100960D01*
X6761253Y-14100960D02*
X6780301Y-14110484D01*
X6780301Y-14110484D02*
X6818396Y-14110484D01*
X6818396Y-14110484D02*
X6837444Y-14100960D01*
X6837444Y-14100960D02*
X6846968Y-14091436D01*
X6846968Y-14091436D02*
X6856491Y-14072388D01*
X6856491Y-14072388D02*
X6856491Y-14034293D01*
X6856491Y-14034293D02*
X6846968Y-14015246D01*
X6846968Y-14015246D02*
X6837444Y-14005722D01*
X6837444Y-14005722D02*
X6818396Y-13996198D01*
X7094587Y-14110484D02*
X7094587Y-13910484D01*
X7180301Y-14110484D02*
X7180301Y-14005722D01*
X7180301Y-14005722D02*
X7170777Y-13986674D01*
X7170777Y-13986674D02*
X7151730Y-13977150D01*
X7151730Y-13977150D02*
X7123158Y-13977150D01*
X7123158Y-13977150D02*
X7104110Y-13986674D01*
X7104110Y-13986674D02*
X7094587Y-13996198D01*
X7304110Y-14110484D02*
X7285063Y-14100960D01*
X7285063Y-14100960D02*
X7275539Y-14091436D01*
X7275539Y-14091436D02*
X7266015Y-14072388D01*
X7266015Y-14072388D02*
X7266015Y-14015246D01*
X7266015Y-14015246D02*
X7275539Y-13996198D01*
X7275539Y-13996198D02*
X7285063Y-13986674D01*
X7285063Y-13986674D02*
X7304110Y-13977150D01*
X7304110Y-13977150D02*
X7332682Y-13977150D01*
X7332682Y-13977150D02*
X7351730Y-13986674D01*
X7351730Y-13986674D02*
X7361253Y-13996198D01*
X7361253Y-13996198D02*
X7370777Y-14015246D01*
X7370777Y-14015246D02*
X7370777Y-14072388D01*
X7370777Y-14072388D02*
X7361253Y-14091436D01*
X7361253Y-14091436D02*
X7351730Y-14100960D01*
X7351730Y-14100960D02*
X7332682Y-14110484D01*
X7332682Y-14110484D02*
X7304110Y-14110484D01*
X7485063Y-14110484D02*
X7466015Y-14100960D01*
X7466015Y-14100960D02*
X7456491Y-14081912D01*
X7456491Y-14081912D02*
X7456491Y-13910484D01*
X7637444Y-14100960D02*
X7618396Y-14110484D01*
X7618396Y-14110484D02*
X7580301Y-14110484D01*
X7580301Y-14110484D02*
X7561253Y-14100960D01*
X7561253Y-14100960D02*
X7551730Y-14081912D01*
X7551730Y-14081912D02*
X7551730Y-14005722D01*
X7551730Y-14005722D02*
X7561253Y-13986674D01*
X7561253Y-13986674D02*
X7580301Y-13977150D01*
X7580301Y-13977150D02*
X7618396Y-13977150D01*
X7618396Y-13977150D02*
X7637444Y-13986674D01*
X7637444Y-13986674D02*
X7646968Y-14005722D01*
X7646968Y-14005722D02*
X7646968Y-14024769D01*
X7646968Y-14024769D02*
X7551730Y-14043817D01*
X7723158Y-14100960D02*
X7742206Y-14110484D01*
X7742206Y-14110484D02*
X7780301Y-14110484D01*
X7780301Y-14110484D02*
X7799349Y-14100960D01*
X7799349Y-14100960D02*
X7808872Y-14081912D01*
X7808872Y-14081912D02*
X7808872Y-14072388D01*
X7808872Y-14072388D02*
X7799349Y-14053341D01*
X7799349Y-14053341D02*
X7780301Y-14043817D01*
X7780301Y-14043817D02*
X7751730Y-14043817D01*
X7751730Y-14043817D02*
X7732682Y-14034293D01*
X7732682Y-14034293D02*
X7723158Y-14015246D01*
X7723158Y-14015246D02*
X7723158Y-14005722D01*
X7723158Y-14005722D02*
X7732682Y-13986674D01*
X7732682Y-13986674D02*
X7751730Y-13977150D01*
X7751730Y-13977150D02*
X7780301Y-13977150D01*
X7780301Y-13977150D02*
X7799349Y-13986674D01*
X7875539Y-14186674D02*
X7885063Y-14177150D01*
X7885063Y-14177150D02*
X7904111Y-14148579D01*
X7904111Y-14148579D02*
X7913634Y-14129531D01*
X7913634Y-14129531D02*
X7923158Y-14100960D01*
X7923158Y-14100960D02*
X7932682Y-14053341D01*
X7932682Y-14053341D02*
X7932682Y-14015246D01*
X7932682Y-14015246D02*
X7923158Y-13967627D01*
X7923158Y-13967627D02*
X7913634Y-13939055D01*
X7913634Y-13939055D02*
X7904111Y-13920008D01*
X7904111Y-13920008D02*
X7885063Y-13891436D01*
X7885063Y-13891436D02*
X7875539Y-13881912D01*
M02*
