%TF.GenerationSoftware,KiCad,Pcbnew,8.0.5+1*%
%TF.CreationDate,2024-11-03T00:00:47+00:00*%
%TF.ProjectId,nixie_clock,6e697869-655f-4636-9c6f-636b2e6b6963,rev?*%
%TF.SameCoordinates,Original*%
%TF.FileFunction,Drillmap*%
%TF.FilePolarity,Positive*%
%FSLAX45Y45*%
G04 Gerber Fmt 4.5, Leading zero omitted, Abs format (unit mm)*
G04 Created by KiCad (PCBNEW 8.0.5+1) date 2024-11-03 00:00:47*
%MOMM*%
%LPD*%
G01*
G04 APERTURE LIST*
%ADD10C,0.200000*%
%ADD11C,0.150000*%
%ADD12C,0.180000*%
G04 APERTURE END LIST*
D10*
X2920000Y-7780000D02*
X26545000Y-7780000D01*
X26545000Y-13105000D01*
X2920000Y-13105000D01*
X2920000Y-7780000D01*
D11*
X4463500Y-8228000D02*
X4613500Y-8378000D01*
X4613500Y-8228000D02*
X4463500Y-8378000D01*
X4948500Y-8228000D02*
X5098500Y-8378000D01*
X5098500Y-8228000D02*
X4948500Y-8378000D01*
D12*
X4598500Y-8000000D02*
G75*
G02*
X4418500Y-8000000I-90000J0D01*
G01*
X4418500Y-8000000D02*
G75*
G02*
X4598500Y-8000000I90000J0D01*
G01*
X5143500Y-8000000D02*
G75*
G02*
X4963500Y-8000000I-90000J0D01*
G01*
X4963500Y-8000000D02*
G75*
G02*
X5143500Y-8000000I90000J0D01*
G01*
D10*
X3170777Y-13426484D02*
X3170777Y-13226484D01*
X3170777Y-13226484D02*
X3218396Y-13226484D01*
X3218396Y-13226484D02*
X3246967Y-13236008D01*
X3246967Y-13236008D02*
X3266015Y-13255055D01*
X3266015Y-13255055D02*
X3275539Y-13274103D01*
X3275539Y-13274103D02*
X3285062Y-13312198D01*
X3285062Y-13312198D02*
X3285062Y-13340769D01*
X3285062Y-13340769D02*
X3275539Y-13378865D01*
X3275539Y-13378865D02*
X3266015Y-13397912D01*
X3266015Y-13397912D02*
X3246967Y-13416960D01*
X3246967Y-13416960D02*
X3218396Y-13426484D01*
X3218396Y-13426484D02*
X3170777Y-13426484D01*
X3370777Y-13426484D02*
X3370777Y-13293150D01*
X3370777Y-13331246D02*
X3380301Y-13312198D01*
X3380301Y-13312198D02*
X3389824Y-13302674D01*
X3389824Y-13302674D02*
X3408872Y-13293150D01*
X3408872Y-13293150D02*
X3427920Y-13293150D01*
X3494586Y-13426484D02*
X3494586Y-13293150D01*
X3494586Y-13226484D02*
X3485062Y-13236008D01*
X3485062Y-13236008D02*
X3494586Y-13245531D01*
X3494586Y-13245531D02*
X3504110Y-13236008D01*
X3504110Y-13236008D02*
X3494586Y-13226484D01*
X3494586Y-13226484D02*
X3494586Y-13245531D01*
X3618396Y-13426484D02*
X3599348Y-13416960D01*
X3599348Y-13416960D02*
X3589824Y-13397912D01*
X3589824Y-13397912D02*
X3589824Y-13226484D01*
X3723158Y-13426484D02*
X3704110Y-13416960D01*
X3704110Y-13416960D02*
X3694586Y-13397912D01*
X3694586Y-13397912D02*
X3694586Y-13226484D01*
X3951729Y-13426484D02*
X3951729Y-13226484D01*
X3951729Y-13226484D02*
X4018396Y-13369341D01*
X4018396Y-13369341D02*
X4085062Y-13226484D01*
X4085062Y-13226484D02*
X4085062Y-13426484D01*
X4266015Y-13426484D02*
X4266015Y-13321722D01*
X4266015Y-13321722D02*
X4256491Y-13302674D01*
X4256491Y-13302674D02*
X4237444Y-13293150D01*
X4237444Y-13293150D02*
X4199348Y-13293150D01*
X4199348Y-13293150D02*
X4180301Y-13302674D01*
X4266015Y-13416960D02*
X4246967Y-13426484D01*
X4246967Y-13426484D02*
X4199348Y-13426484D01*
X4199348Y-13426484D02*
X4180301Y-13416960D01*
X4180301Y-13416960D02*
X4170777Y-13397912D01*
X4170777Y-13397912D02*
X4170777Y-13378865D01*
X4170777Y-13378865D02*
X4180301Y-13359817D01*
X4180301Y-13359817D02*
X4199348Y-13350293D01*
X4199348Y-13350293D02*
X4246967Y-13350293D01*
X4246967Y-13350293D02*
X4266015Y-13340769D01*
X4361253Y-13293150D02*
X4361253Y-13493150D01*
X4361253Y-13302674D02*
X4380301Y-13293150D01*
X4380301Y-13293150D02*
X4418396Y-13293150D01*
X4418396Y-13293150D02*
X4437444Y-13302674D01*
X4437444Y-13302674D02*
X4446967Y-13312198D01*
X4446967Y-13312198D02*
X4456491Y-13331246D01*
X4456491Y-13331246D02*
X4456491Y-13388388D01*
X4456491Y-13388388D02*
X4446967Y-13407436D01*
X4446967Y-13407436D02*
X4437444Y-13416960D01*
X4437444Y-13416960D02*
X4418396Y-13426484D01*
X4418396Y-13426484D02*
X4380301Y-13426484D01*
X4380301Y-13426484D02*
X4361253Y-13416960D01*
X4542205Y-13407436D02*
X4551729Y-13416960D01*
X4551729Y-13416960D02*
X4542205Y-13426484D01*
X4542205Y-13426484D02*
X4532682Y-13416960D01*
X4532682Y-13416960D02*
X4542205Y-13407436D01*
X4542205Y-13407436D02*
X4542205Y-13426484D01*
X4542205Y-13302674D02*
X4551729Y-13312198D01*
X4551729Y-13312198D02*
X4542205Y-13321722D01*
X4542205Y-13321722D02*
X4532682Y-13312198D01*
X4532682Y-13312198D02*
X4542205Y-13302674D01*
X4542205Y-13302674D02*
X4542205Y-13321722D01*
D11*
X2760000Y-13680000D02*
X2910000Y-13830000D01*
X2910000Y-13680000D02*
X2760000Y-13830000D01*
D10*
X3275539Y-13846484D02*
X3161253Y-13846484D01*
X3218396Y-13846484D02*
X3218396Y-13646484D01*
X3218396Y-13646484D02*
X3199348Y-13675055D01*
X3199348Y-13675055D02*
X3180301Y-13694103D01*
X3180301Y-13694103D02*
X3161253Y-13703627D01*
X3361253Y-13827436D02*
X3370777Y-13836960D01*
X3370777Y-13836960D02*
X3361253Y-13846484D01*
X3361253Y-13846484D02*
X3351729Y-13836960D01*
X3351729Y-13836960D02*
X3361253Y-13827436D01*
X3361253Y-13827436D02*
X3361253Y-13846484D01*
X3551729Y-13646484D02*
X3456491Y-13646484D01*
X3456491Y-13646484D02*
X3446967Y-13741722D01*
X3446967Y-13741722D02*
X3456491Y-13732198D01*
X3456491Y-13732198D02*
X3475539Y-13722674D01*
X3475539Y-13722674D02*
X3523158Y-13722674D01*
X3523158Y-13722674D02*
X3542205Y-13732198D01*
X3542205Y-13732198D02*
X3551729Y-13741722D01*
X3551729Y-13741722D02*
X3561253Y-13760769D01*
X3561253Y-13760769D02*
X3561253Y-13808388D01*
X3561253Y-13808388D02*
X3551729Y-13827436D01*
X3551729Y-13827436D02*
X3542205Y-13836960D01*
X3542205Y-13836960D02*
X3523158Y-13846484D01*
X3523158Y-13846484D02*
X3475539Y-13846484D01*
X3475539Y-13846484D02*
X3456491Y-13836960D01*
X3456491Y-13836960D02*
X3446967Y-13827436D01*
X3685062Y-13646484D02*
X3704110Y-13646484D01*
X3704110Y-13646484D02*
X3723158Y-13656008D01*
X3723158Y-13656008D02*
X3732682Y-13665531D01*
X3732682Y-13665531D02*
X3742205Y-13684579D01*
X3742205Y-13684579D02*
X3751729Y-13722674D01*
X3751729Y-13722674D02*
X3751729Y-13770293D01*
X3751729Y-13770293D02*
X3742205Y-13808388D01*
X3742205Y-13808388D02*
X3732682Y-13827436D01*
X3732682Y-13827436D02*
X3723158Y-13836960D01*
X3723158Y-13836960D02*
X3704110Y-13846484D01*
X3704110Y-13846484D02*
X3685062Y-13846484D01*
X3685062Y-13846484D02*
X3666015Y-13836960D01*
X3666015Y-13836960D02*
X3656491Y-13827436D01*
X3656491Y-13827436D02*
X3646967Y-13808388D01*
X3646967Y-13808388D02*
X3637443Y-13770293D01*
X3637443Y-13770293D02*
X3637443Y-13722674D01*
X3637443Y-13722674D02*
X3646967Y-13684579D01*
X3646967Y-13684579D02*
X3656491Y-13665531D01*
X3656491Y-13665531D02*
X3666015Y-13656008D01*
X3666015Y-13656008D02*
X3685062Y-13646484D01*
X3875539Y-13646484D02*
X3894586Y-13646484D01*
X3894586Y-13646484D02*
X3913634Y-13656008D01*
X3913634Y-13656008D02*
X3923158Y-13665531D01*
X3923158Y-13665531D02*
X3932682Y-13684579D01*
X3932682Y-13684579D02*
X3942205Y-13722674D01*
X3942205Y-13722674D02*
X3942205Y-13770293D01*
X3942205Y-13770293D02*
X3932682Y-13808388D01*
X3932682Y-13808388D02*
X3923158Y-13827436D01*
X3923158Y-13827436D02*
X3913634Y-13836960D01*
X3913634Y-13836960D02*
X3894586Y-13846484D01*
X3894586Y-13846484D02*
X3875539Y-13846484D01*
X3875539Y-13846484D02*
X3856491Y-13836960D01*
X3856491Y-13836960D02*
X3846967Y-13827436D01*
X3846967Y-13827436D02*
X3837443Y-13808388D01*
X3837443Y-13808388D02*
X3827920Y-13770293D01*
X3827920Y-13770293D02*
X3827920Y-13722674D01*
X3827920Y-13722674D02*
X3837443Y-13684579D01*
X3837443Y-13684579D02*
X3846967Y-13665531D01*
X3846967Y-13665531D02*
X3856491Y-13656008D01*
X3856491Y-13656008D02*
X3875539Y-13646484D01*
X4027920Y-13846484D02*
X4027920Y-13713150D01*
X4027920Y-13732198D02*
X4037443Y-13722674D01*
X4037443Y-13722674D02*
X4056491Y-13713150D01*
X4056491Y-13713150D02*
X4085063Y-13713150D01*
X4085063Y-13713150D02*
X4104110Y-13722674D01*
X4104110Y-13722674D02*
X4113634Y-13741722D01*
X4113634Y-13741722D02*
X4113634Y-13846484D01*
X4113634Y-13741722D02*
X4123158Y-13722674D01*
X4123158Y-13722674D02*
X4142205Y-13713150D01*
X4142205Y-13713150D02*
X4170777Y-13713150D01*
X4170777Y-13713150D02*
X4189824Y-13722674D01*
X4189824Y-13722674D02*
X4199348Y-13741722D01*
X4199348Y-13741722D02*
X4199348Y-13846484D01*
X4294586Y-13846484D02*
X4294586Y-13713150D01*
X4294586Y-13732198D02*
X4304110Y-13722674D01*
X4304110Y-13722674D02*
X4323158Y-13713150D01*
X4323158Y-13713150D02*
X4351729Y-13713150D01*
X4351729Y-13713150D02*
X4370777Y-13722674D01*
X4370777Y-13722674D02*
X4380301Y-13741722D01*
X4380301Y-13741722D02*
X4380301Y-13846484D01*
X4380301Y-13741722D02*
X4389825Y-13722674D01*
X4389825Y-13722674D02*
X4408872Y-13713150D01*
X4408872Y-13713150D02*
X4437444Y-13713150D01*
X4437444Y-13713150D02*
X4456491Y-13722674D01*
X4456491Y-13722674D02*
X4466015Y-13741722D01*
X4466015Y-13741722D02*
X4466015Y-13846484D01*
X4856491Y-13636960D02*
X4685063Y-13894103D01*
X5113634Y-13646484D02*
X5132682Y-13646484D01*
X5132682Y-13646484D02*
X5151729Y-13656008D01*
X5151729Y-13656008D02*
X5161253Y-13665531D01*
X5161253Y-13665531D02*
X5170777Y-13684579D01*
X5170777Y-13684579D02*
X5180301Y-13722674D01*
X5180301Y-13722674D02*
X5180301Y-13770293D01*
X5180301Y-13770293D02*
X5170777Y-13808388D01*
X5170777Y-13808388D02*
X5161253Y-13827436D01*
X5161253Y-13827436D02*
X5151729Y-13836960D01*
X5151729Y-13836960D02*
X5132682Y-13846484D01*
X5132682Y-13846484D02*
X5113634Y-13846484D01*
X5113634Y-13846484D02*
X5094587Y-13836960D01*
X5094587Y-13836960D02*
X5085063Y-13827436D01*
X5085063Y-13827436D02*
X5075539Y-13808388D01*
X5075539Y-13808388D02*
X5066015Y-13770293D01*
X5066015Y-13770293D02*
X5066015Y-13722674D01*
X5066015Y-13722674D02*
X5075539Y-13684579D01*
X5075539Y-13684579D02*
X5085063Y-13665531D01*
X5085063Y-13665531D02*
X5094587Y-13656008D01*
X5094587Y-13656008D02*
X5113634Y-13646484D01*
X5266015Y-13827436D02*
X5275539Y-13836960D01*
X5275539Y-13836960D02*
X5266015Y-13846484D01*
X5266015Y-13846484D02*
X5256491Y-13836960D01*
X5256491Y-13836960D02*
X5266015Y-13827436D01*
X5266015Y-13827436D02*
X5266015Y-13846484D01*
X5399348Y-13646484D02*
X5418396Y-13646484D01*
X5418396Y-13646484D02*
X5437444Y-13656008D01*
X5437444Y-13656008D02*
X5446968Y-13665531D01*
X5446968Y-13665531D02*
X5456491Y-13684579D01*
X5456491Y-13684579D02*
X5466015Y-13722674D01*
X5466015Y-13722674D02*
X5466015Y-13770293D01*
X5466015Y-13770293D02*
X5456491Y-13808388D01*
X5456491Y-13808388D02*
X5446968Y-13827436D01*
X5446968Y-13827436D02*
X5437444Y-13836960D01*
X5437444Y-13836960D02*
X5418396Y-13846484D01*
X5418396Y-13846484D02*
X5399348Y-13846484D01*
X5399348Y-13846484D02*
X5380301Y-13836960D01*
X5380301Y-13836960D02*
X5370777Y-13827436D01*
X5370777Y-13827436D02*
X5361253Y-13808388D01*
X5361253Y-13808388D02*
X5351729Y-13770293D01*
X5351729Y-13770293D02*
X5351729Y-13722674D01*
X5351729Y-13722674D02*
X5361253Y-13684579D01*
X5361253Y-13684579D02*
X5370777Y-13665531D01*
X5370777Y-13665531D02*
X5380301Y-13656008D01*
X5380301Y-13656008D02*
X5399348Y-13646484D01*
X5646967Y-13646484D02*
X5551729Y-13646484D01*
X5551729Y-13646484D02*
X5542206Y-13741722D01*
X5542206Y-13741722D02*
X5551729Y-13732198D01*
X5551729Y-13732198D02*
X5570777Y-13722674D01*
X5570777Y-13722674D02*
X5618396Y-13722674D01*
X5618396Y-13722674D02*
X5637444Y-13732198D01*
X5637444Y-13732198D02*
X5646967Y-13741722D01*
X5646967Y-13741722D02*
X5656491Y-13760769D01*
X5656491Y-13760769D02*
X5656491Y-13808388D01*
X5656491Y-13808388D02*
X5646967Y-13827436D01*
X5646967Y-13827436D02*
X5637444Y-13836960D01*
X5637444Y-13836960D02*
X5618396Y-13846484D01*
X5618396Y-13846484D02*
X5570777Y-13846484D01*
X5570777Y-13846484D02*
X5551729Y-13836960D01*
X5551729Y-13836960D02*
X5542206Y-13827436D01*
X5751729Y-13846484D02*
X5789825Y-13846484D01*
X5789825Y-13846484D02*
X5808872Y-13836960D01*
X5808872Y-13836960D02*
X5818396Y-13827436D01*
X5818396Y-13827436D02*
X5837444Y-13798865D01*
X5837444Y-13798865D02*
X5846967Y-13760769D01*
X5846967Y-13760769D02*
X5846967Y-13684579D01*
X5846967Y-13684579D02*
X5837444Y-13665531D01*
X5837444Y-13665531D02*
X5827920Y-13656008D01*
X5827920Y-13656008D02*
X5808872Y-13646484D01*
X5808872Y-13646484D02*
X5770777Y-13646484D01*
X5770777Y-13646484D02*
X5751729Y-13656008D01*
X5751729Y-13656008D02*
X5742206Y-13665531D01*
X5742206Y-13665531D02*
X5732682Y-13684579D01*
X5732682Y-13684579D02*
X5732682Y-13732198D01*
X5732682Y-13732198D02*
X5742206Y-13751246D01*
X5742206Y-13751246D02*
X5751729Y-13760769D01*
X5751729Y-13760769D02*
X5770777Y-13770293D01*
X5770777Y-13770293D02*
X5808872Y-13770293D01*
X5808872Y-13770293D02*
X5827920Y-13760769D01*
X5827920Y-13760769D02*
X5837444Y-13751246D01*
X5837444Y-13751246D02*
X5846967Y-13732198D01*
X6037444Y-13846484D02*
X5923158Y-13846484D01*
X5980301Y-13846484D02*
X5980301Y-13646484D01*
X5980301Y-13646484D02*
X5961253Y-13675055D01*
X5961253Y-13675055D02*
X5942206Y-13694103D01*
X5942206Y-13694103D02*
X5923158Y-13703627D01*
X6113634Y-13646484D02*
X6113634Y-13684579D01*
X6189825Y-13646484D02*
X6189825Y-13684579D01*
X6485063Y-13922674D02*
X6475539Y-13913150D01*
X6475539Y-13913150D02*
X6456491Y-13884579D01*
X6456491Y-13884579D02*
X6446968Y-13865531D01*
X6446968Y-13865531D02*
X6437444Y-13836960D01*
X6437444Y-13836960D02*
X6427920Y-13789341D01*
X6427920Y-13789341D02*
X6427920Y-13751246D01*
X6427920Y-13751246D02*
X6437444Y-13703627D01*
X6437444Y-13703627D02*
X6446968Y-13675055D01*
X6446968Y-13675055D02*
X6456491Y-13656008D01*
X6456491Y-13656008D02*
X6475539Y-13627436D01*
X6475539Y-13627436D02*
X6485063Y-13617912D01*
X6551729Y-13665531D02*
X6561253Y-13656008D01*
X6561253Y-13656008D02*
X6580301Y-13646484D01*
X6580301Y-13646484D02*
X6627920Y-13646484D01*
X6627920Y-13646484D02*
X6646968Y-13656008D01*
X6646968Y-13656008D02*
X6656491Y-13665531D01*
X6656491Y-13665531D02*
X6666015Y-13684579D01*
X6666015Y-13684579D02*
X6666015Y-13703627D01*
X6666015Y-13703627D02*
X6656491Y-13732198D01*
X6656491Y-13732198D02*
X6542206Y-13846484D01*
X6542206Y-13846484D02*
X6666015Y-13846484D01*
X6904110Y-13846484D02*
X6904110Y-13646484D01*
X6989825Y-13846484D02*
X6989825Y-13741722D01*
X6989825Y-13741722D02*
X6980301Y-13722674D01*
X6980301Y-13722674D02*
X6961253Y-13713150D01*
X6961253Y-13713150D02*
X6932682Y-13713150D01*
X6932682Y-13713150D02*
X6913634Y-13722674D01*
X6913634Y-13722674D02*
X6904110Y-13732198D01*
X7113634Y-13846484D02*
X7094587Y-13836960D01*
X7094587Y-13836960D02*
X7085063Y-13827436D01*
X7085063Y-13827436D02*
X7075539Y-13808388D01*
X7075539Y-13808388D02*
X7075539Y-13751246D01*
X7075539Y-13751246D02*
X7085063Y-13732198D01*
X7085063Y-13732198D02*
X7094587Y-13722674D01*
X7094587Y-13722674D02*
X7113634Y-13713150D01*
X7113634Y-13713150D02*
X7142206Y-13713150D01*
X7142206Y-13713150D02*
X7161253Y-13722674D01*
X7161253Y-13722674D02*
X7170777Y-13732198D01*
X7170777Y-13732198D02*
X7180301Y-13751246D01*
X7180301Y-13751246D02*
X7180301Y-13808388D01*
X7180301Y-13808388D02*
X7170777Y-13827436D01*
X7170777Y-13827436D02*
X7161253Y-13836960D01*
X7161253Y-13836960D02*
X7142206Y-13846484D01*
X7142206Y-13846484D02*
X7113634Y-13846484D01*
X7294587Y-13846484D02*
X7275539Y-13836960D01*
X7275539Y-13836960D02*
X7266015Y-13817912D01*
X7266015Y-13817912D02*
X7266015Y-13646484D01*
X7446968Y-13836960D02*
X7427920Y-13846484D01*
X7427920Y-13846484D02*
X7389825Y-13846484D01*
X7389825Y-13846484D02*
X7370777Y-13836960D01*
X7370777Y-13836960D02*
X7361253Y-13817912D01*
X7361253Y-13817912D02*
X7361253Y-13741722D01*
X7361253Y-13741722D02*
X7370777Y-13722674D01*
X7370777Y-13722674D02*
X7389825Y-13713150D01*
X7389825Y-13713150D02*
X7427920Y-13713150D01*
X7427920Y-13713150D02*
X7446968Y-13722674D01*
X7446968Y-13722674D02*
X7456491Y-13741722D01*
X7456491Y-13741722D02*
X7456491Y-13760769D01*
X7456491Y-13760769D02*
X7361253Y-13779817D01*
X7532682Y-13836960D02*
X7551730Y-13846484D01*
X7551730Y-13846484D02*
X7589825Y-13846484D01*
X7589825Y-13846484D02*
X7608872Y-13836960D01*
X7608872Y-13836960D02*
X7618396Y-13817912D01*
X7618396Y-13817912D02*
X7618396Y-13808388D01*
X7618396Y-13808388D02*
X7608872Y-13789341D01*
X7608872Y-13789341D02*
X7589825Y-13779817D01*
X7589825Y-13779817D02*
X7561253Y-13779817D01*
X7561253Y-13779817D02*
X7542206Y-13770293D01*
X7542206Y-13770293D02*
X7532682Y-13751246D01*
X7532682Y-13751246D02*
X7532682Y-13741722D01*
X7532682Y-13741722D02*
X7542206Y-13722674D01*
X7542206Y-13722674D02*
X7561253Y-13713150D01*
X7561253Y-13713150D02*
X7589825Y-13713150D01*
X7589825Y-13713150D02*
X7608872Y-13722674D01*
X7685063Y-13922674D02*
X7694587Y-13913150D01*
X7694587Y-13913150D02*
X7713634Y-13884579D01*
X7713634Y-13884579D02*
X7723158Y-13865531D01*
X7723158Y-13865531D02*
X7732682Y-13836960D01*
X7732682Y-13836960D02*
X7742206Y-13789341D01*
X7742206Y-13789341D02*
X7742206Y-13751246D01*
X7742206Y-13751246D02*
X7732682Y-13703627D01*
X7732682Y-13703627D02*
X7723158Y-13675055D01*
X7723158Y-13675055D02*
X7713634Y-13656008D01*
X7713634Y-13656008D02*
X7694587Y-13627436D01*
X7694587Y-13627436D02*
X7685063Y-13617912D01*
X8046968Y-13922674D02*
X8037444Y-13913150D01*
X8037444Y-13913150D02*
X8018396Y-13884579D01*
X8018396Y-13884579D02*
X8008872Y-13865531D01*
X8008872Y-13865531D02*
X7999349Y-13836960D01*
X7999349Y-13836960D02*
X7989825Y-13789341D01*
X7989825Y-13789341D02*
X7989825Y-13751246D01*
X7989825Y-13751246D02*
X7999349Y-13703627D01*
X7999349Y-13703627D02*
X8008872Y-13675055D01*
X8008872Y-13675055D02*
X8018396Y-13656008D01*
X8018396Y-13656008D02*
X8037444Y-13627436D01*
X8037444Y-13627436D02*
X8046968Y-13617912D01*
X8123158Y-13713150D02*
X8123158Y-13846484D01*
X8123158Y-13732198D02*
X8132682Y-13722674D01*
X8132682Y-13722674D02*
X8151730Y-13713150D01*
X8151730Y-13713150D02*
X8180301Y-13713150D01*
X8180301Y-13713150D02*
X8199349Y-13722674D01*
X8199349Y-13722674D02*
X8208872Y-13741722D01*
X8208872Y-13741722D02*
X8208872Y-13846484D01*
X8332682Y-13846484D02*
X8313634Y-13836960D01*
X8313634Y-13836960D02*
X8304111Y-13827436D01*
X8304111Y-13827436D02*
X8294587Y-13808388D01*
X8294587Y-13808388D02*
X8294587Y-13751246D01*
X8294587Y-13751246D02*
X8304111Y-13732198D01*
X8304111Y-13732198D02*
X8313634Y-13722674D01*
X8313634Y-13722674D02*
X8332682Y-13713150D01*
X8332682Y-13713150D02*
X8361253Y-13713150D01*
X8361253Y-13713150D02*
X8380301Y-13722674D01*
X8380301Y-13722674D02*
X8389825Y-13732198D01*
X8389825Y-13732198D02*
X8399349Y-13751246D01*
X8399349Y-13751246D02*
X8399349Y-13808388D01*
X8399349Y-13808388D02*
X8389825Y-13827436D01*
X8389825Y-13827436D02*
X8380301Y-13836960D01*
X8380301Y-13836960D02*
X8361253Y-13846484D01*
X8361253Y-13846484D02*
X8332682Y-13846484D01*
X8456492Y-13713150D02*
X8532682Y-13713150D01*
X8485063Y-13646484D02*
X8485063Y-13817912D01*
X8485063Y-13817912D02*
X8494587Y-13836960D01*
X8494587Y-13836960D02*
X8513634Y-13846484D01*
X8513634Y-13846484D02*
X8532682Y-13846484D01*
X8751730Y-13713150D02*
X8751730Y-13913150D01*
X8751730Y-13722674D02*
X8770777Y-13713150D01*
X8770777Y-13713150D02*
X8808873Y-13713150D01*
X8808873Y-13713150D02*
X8827920Y-13722674D01*
X8827920Y-13722674D02*
X8837444Y-13732198D01*
X8837444Y-13732198D02*
X8846968Y-13751246D01*
X8846968Y-13751246D02*
X8846968Y-13808388D01*
X8846968Y-13808388D02*
X8837444Y-13827436D01*
X8837444Y-13827436D02*
X8827920Y-13836960D01*
X8827920Y-13836960D02*
X8808873Y-13846484D01*
X8808873Y-13846484D02*
X8770777Y-13846484D01*
X8770777Y-13846484D02*
X8751730Y-13836960D01*
X8961254Y-13846484D02*
X8942206Y-13836960D01*
X8942206Y-13836960D02*
X8932682Y-13817912D01*
X8932682Y-13817912D02*
X8932682Y-13646484D01*
X9123158Y-13846484D02*
X9123158Y-13741722D01*
X9123158Y-13741722D02*
X9113635Y-13722674D01*
X9113635Y-13722674D02*
X9094587Y-13713150D01*
X9094587Y-13713150D02*
X9056492Y-13713150D01*
X9056492Y-13713150D02*
X9037444Y-13722674D01*
X9123158Y-13836960D02*
X9104111Y-13846484D01*
X9104111Y-13846484D02*
X9056492Y-13846484D01*
X9056492Y-13846484D02*
X9037444Y-13836960D01*
X9037444Y-13836960D02*
X9027920Y-13817912D01*
X9027920Y-13817912D02*
X9027920Y-13798865D01*
X9027920Y-13798865D02*
X9037444Y-13779817D01*
X9037444Y-13779817D02*
X9056492Y-13770293D01*
X9056492Y-13770293D02*
X9104111Y-13770293D01*
X9104111Y-13770293D02*
X9123158Y-13760769D01*
X9189825Y-13713150D02*
X9266015Y-13713150D01*
X9218396Y-13646484D02*
X9218396Y-13817912D01*
X9218396Y-13817912D02*
X9227920Y-13836960D01*
X9227920Y-13836960D02*
X9246968Y-13846484D01*
X9246968Y-13846484D02*
X9266015Y-13846484D01*
X9408873Y-13836960D02*
X9389825Y-13846484D01*
X9389825Y-13846484D02*
X9351730Y-13846484D01*
X9351730Y-13846484D02*
X9332682Y-13836960D01*
X9332682Y-13836960D02*
X9323158Y-13817912D01*
X9323158Y-13817912D02*
X9323158Y-13741722D01*
X9323158Y-13741722D02*
X9332682Y-13722674D01*
X9332682Y-13722674D02*
X9351730Y-13713150D01*
X9351730Y-13713150D02*
X9389825Y-13713150D01*
X9389825Y-13713150D02*
X9408873Y-13722674D01*
X9408873Y-13722674D02*
X9418396Y-13741722D01*
X9418396Y-13741722D02*
X9418396Y-13760769D01*
X9418396Y-13760769D02*
X9323158Y-13779817D01*
X9589825Y-13846484D02*
X9589825Y-13646484D01*
X9589825Y-13836960D02*
X9570777Y-13846484D01*
X9570777Y-13846484D02*
X9532682Y-13846484D01*
X9532682Y-13846484D02*
X9513635Y-13836960D01*
X9513635Y-13836960D02*
X9504111Y-13827436D01*
X9504111Y-13827436D02*
X9494587Y-13808388D01*
X9494587Y-13808388D02*
X9494587Y-13751246D01*
X9494587Y-13751246D02*
X9504111Y-13732198D01*
X9504111Y-13732198D02*
X9513635Y-13722674D01*
X9513635Y-13722674D02*
X9532682Y-13713150D01*
X9532682Y-13713150D02*
X9570777Y-13713150D01*
X9570777Y-13713150D02*
X9589825Y-13722674D01*
X9666016Y-13922674D02*
X9675539Y-13913150D01*
X9675539Y-13913150D02*
X9694587Y-13884579D01*
X9694587Y-13884579D02*
X9704111Y-13865531D01*
X9704111Y-13865531D02*
X9713635Y-13836960D01*
X9713635Y-13836960D02*
X9723158Y-13789341D01*
X9723158Y-13789341D02*
X9723158Y-13751246D01*
X9723158Y-13751246D02*
X9713635Y-13703627D01*
X9713635Y-13703627D02*
X9704111Y-13675055D01*
X9704111Y-13675055D02*
X9694587Y-13656008D01*
X9694587Y-13656008D02*
X9675539Y-13627436D01*
X9675539Y-13627436D02*
X9666016Y-13617912D01*
D12*
X2910000Y-14025000D02*
G75*
G02*
X2730000Y-14025000I-90000J0D01*
G01*
X2730000Y-14025000D02*
G75*
G02*
X2910000Y-14025000I90000J0D01*
G01*
D10*
X3275539Y-14116484D02*
X3161253Y-14116484D01*
X3218396Y-14116484D02*
X3218396Y-13916484D01*
X3218396Y-13916484D02*
X3199348Y-13945055D01*
X3199348Y-13945055D02*
X3180301Y-13964103D01*
X3180301Y-13964103D02*
X3161253Y-13973627D01*
X3361253Y-14097436D02*
X3370777Y-14106960D01*
X3370777Y-14106960D02*
X3361253Y-14116484D01*
X3361253Y-14116484D02*
X3351729Y-14106960D01*
X3351729Y-14106960D02*
X3361253Y-14097436D01*
X3361253Y-14097436D02*
X3361253Y-14116484D01*
X3485062Y-14002198D02*
X3466015Y-13992674D01*
X3466015Y-13992674D02*
X3456491Y-13983150D01*
X3456491Y-13983150D02*
X3446967Y-13964103D01*
X3446967Y-13964103D02*
X3446967Y-13954579D01*
X3446967Y-13954579D02*
X3456491Y-13935531D01*
X3456491Y-13935531D02*
X3466015Y-13926008D01*
X3466015Y-13926008D02*
X3485062Y-13916484D01*
X3485062Y-13916484D02*
X3523158Y-13916484D01*
X3523158Y-13916484D02*
X3542205Y-13926008D01*
X3542205Y-13926008D02*
X3551729Y-13935531D01*
X3551729Y-13935531D02*
X3561253Y-13954579D01*
X3561253Y-13954579D02*
X3561253Y-13964103D01*
X3561253Y-13964103D02*
X3551729Y-13983150D01*
X3551729Y-13983150D02*
X3542205Y-13992674D01*
X3542205Y-13992674D02*
X3523158Y-14002198D01*
X3523158Y-14002198D02*
X3485062Y-14002198D01*
X3485062Y-14002198D02*
X3466015Y-14011722D01*
X3466015Y-14011722D02*
X3456491Y-14021246D01*
X3456491Y-14021246D02*
X3446967Y-14040293D01*
X3446967Y-14040293D02*
X3446967Y-14078388D01*
X3446967Y-14078388D02*
X3456491Y-14097436D01*
X3456491Y-14097436D02*
X3466015Y-14106960D01*
X3466015Y-14106960D02*
X3485062Y-14116484D01*
X3485062Y-14116484D02*
X3523158Y-14116484D01*
X3523158Y-14116484D02*
X3542205Y-14106960D01*
X3542205Y-14106960D02*
X3551729Y-14097436D01*
X3551729Y-14097436D02*
X3561253Y-14078388D01*
X3561253Y-14078388D02*
X3561253Y-14040293D01*
X3561253Y-14040293D02*
X3551729Y-14021246D01*
X3551729Y-14021246D02*
X3542205Y-14011722D01*
X3542205Y-14011722D02*
X3523158Y-14002198D01*
X3685062Y-13916484D02*
X3704110Y-13916484D01*
X3704110Y-13916484D02*
X3723158Y-13926008D01*
X3723158Y-13926008D02*
X3732682Y-13935531D01*
X3732682Y-13935531D02*
X3742205Y-13954579D01*
X3742205Y-13954579D02*
X3751729Y-13992674D01*
X3751729Y-13992674D02*
X3751729Y-14040293D01*
X3751729Y-14040293D02*
X3742205Y-14078388D01*
X3742205Y-14078388D02*
X3732682Y-14097436D01*
X3732682Y-14097436D02*
X3723158Y-14106960D01*
X3723158Y-14106960D02*
X3704110Y-14116484D01*
X3704110Y-14116484D02*
X3685062Y-14116484D01*
X3685062Y-14116484D02*
X3666015Y-14106960D01*
X3666015Y-14106960D02*
X3656491Y-14097436D01*
X3656491Y-14097436D02*
X3646967Y-14078388D01*
X3646967Y-14078388D02*
X3637443Y-14040293D01*
X3637443Y-14040293D02*
X3637443Y-13992674D01*
X3637443Y-13992674D02*
X3646967Y-13954579D01*
X3646967Y-13954579D02*
X3656491Y-13935531D01*
X3656491Y-13935531D02*
X3666015Y-13926008D01*
X3666015Y-13926008D02*
X3685062Y-13916484D01*
X3875539Y-13916484D02*
X3894586Y-13916484D01*
X3894586Y-13916484D02*
X3913634Y-13926008D01*
X3913634Y-13926008D02*
X3923158Y-13935531D01*
X3923158Y-13935531D02*
X3932682Y-13954579D01*
X3932682Y-13954579D02*
X3942205Y-13992674D01*
X3942205Y-13992674D02*
X3942205Y-14040293D01*
X3942205Y-14040293D02*
X3932682Y-14078388D01*
X3932682Y-14078388D02*
X3923158Y-14097436D01*
X3923158Y-14097436D02*
X3913634Y-14106960D01*
X3913634Y-14106960D02*
X3894586Y-14116484D01*
X3894586Y-14116484D02*
X3875539Y-14116484D01*
X3875539Y-14116484D02*
X3856491Y-14106960D01*
X3856491Y-14106960D02*
X3846967Y-14097436D01*
X3846967Y-14097436D02*
X3837443Y-14078388D01*
X3837443Y-14078388D02*
X3827920Y-14040293D01*
X3827920Y-14040293D02*
X3827920Y-13992674D01*
X3827920Y-13992674D02*
X3837443Y-13954579D01*
X3837443Y-13954579D02*
X3846967Y-13935531D01*
X3846967Y-13935531D02*
X3856491Y-13926008D01*
X3856491Y-13926008D02*
X3875539Y-13916484D01*
X4027920Y-14116484D02*
X4027920Y-13983150D01*
X4027920Y-14002198D02*
X4037443Y-13992674D01*
X4037443Y-13992674D02*
X4056491Y-13983150D01*
X4056491Y-13983150D02*
X4085063Y-13983150D01*
X4085063Y-13983150D02*
X4104110Y-13992674D01*
X4104110Y-13992674D02*
X4113634Y-14011722D01*
X4113634Y-14011722D02*
X4113634Y-14116484D01*
X4113634Y-14011722D02*
X4123158Y-13992674D01*
X4123158Y-13992674D02*
X4142205Y-13983150D01*
X4142205Y-13983150D02*
X4170777Y-13983150D01*
X4170777Y-13983150D02*
X4189824Y-13992674D01*
X4189824Y-13992674D02*
X4199348Y-14011722D01*
X4199348Y-14011722D02*
X4199348Y-14116484D01*
X4294586Y-14116484D02*
X4294586Y-13983150D01*
X4294586Y-14002198D02*
X4304110Y-13992674D01*
X4304110Y-13992674D02*
X4323158Y-13983150D01*
X4323158Y-13983150D02*
X4351729Y-13983150D01*
X4351729Y-13983150D02*
X4370777Y-13992674D01*
X4370777Y-13992674D02*
X4380301Y-14011722D01*
X4380301Y-14011722D02*
X4380301Y-14116484D01*
X4380301Y-14011722D02*
X4389825Y-13992674D01*
X4389825Y-13992674D02*
X4408872Y-13983150D01*
X4408872Y-13983150D02*
X4437444Y-13983150D01*
X4437444Y-13983150D02*
X4456491Y-13992674D01*
X4456491Y-13992674D02*
X4466015Y-14011722D01*
X4466015Y-14011722D02*
X4466015Y-14116484D01*
X4856491Y-13906960D02*
X4685063Y-14164103D01*
X5113634Y-13916484D02*
X5132682Y-13916484D01*
X5132682Y-13916484D02*
X5151729Y-13926008D01*
X5151729Y-13926008D02*
X5161253Y-13935531D01*
X5161253Y-13935531D02*
X5170777Y-13954579D01*
X5170777Y-13954579D02*
X5180301Y-13992674D01*
X5180301Y-13992674D02*
X5180301Y-14040293D01*
X5180301Y-14040293D02*
X5170777Y-14078388D01*
X5170777Y-14078388D02*
X5161253Y-14097436D01*
X5161253Y-14097436D02*
X5151729Y-14106960D01*
X5151729Y-14106960D02*
X5132682Y-14116484D01*
X5132682Y-14116484D02*
X5113634Y-14116484D01*
X5113634Y-14116484D02*
X5094587Y-14106960D01*
X5094587Y-14106960D02*
X5085063Y-14097436D01*
X5085063Y-14097436D02*
X5075539Y-14078388D01*
X5075539Y-14078388D02*
X5066015Y-14040293D01*
X5066015Y-14040293D02*
X5066015Y-13992674D01*
X5066015Y-13992674D02*
X5075539Y-13954579D01*
X5075539Y-13954579D02*
X5085063Y-13935531D01*
X5085063Y-13935531D02*
X5094587Y-13926008D01*
X5094587Y-13926008D02*
X5113634Y-13916484D01*
X5266015Y-14097436D02*
X5275539Y-14106960D01*
X5275539Y-14106960D02*
X5266015Y-14116484D01*
X5266015Y-14116484D02*
X5256491Y-14106960D01*
X5256491Y-14106960D02*
X5266015Y-14097436D01*
X5266015Y-14097436D02*
X5266015Y-14116484D01*
X5399348Y-13916484D02*
X5418396Y-13916484D01*
X5418396Y-13916484D02*
X5437444Y-13926008D01*
X5437444Y-13926008D02*
X5446968Y-13935531D01*
X5446968Y-13935531D02*
X5456491Y-13954579D01*
X5456491Y-13954579D02*
X5466015Y-13992674D01*
X5466015Y-13992674D02*
X5466015Y-14040293D01*
X5466015Y-14040293D02*
X5456491Y-14078388D01*
X5456491Y-14078388D02*
X5446968Y-14097436D01*
X5446968Y-14097436D02*
X5437444Y-14106960D01*
X5437444Y-14106960D02*
X5418396Y-14116484D01*
X5418396Y-14116484D02*
X5399348Y-14116484D01*
X5399348Y-14116484D02*
X5380301Y-14106960D01*
X5380301Y-14106960D02*
X5370777Y-14097436D01*
X5370777Y-14097436D02*
X5361253Y-14078388D01*
X5361253Y-14078388D02*
X5351729Y-14040293D01*
X5351729Y-14040293D02*
X5351729Y-13992674D01*
X5351729Y-13992674D02*
X5361253Y-13954579D01*
X5361253Y-13954579D02*
X5370777Y-13935531D01*
X5370777Y-13935531D02*
X5380301Y-13926008D01*
X5380301Y-13926008D02*
X5399348Y-13916484D01*
X5532682Y-13916484D02*
X5666015Y-13916484D01*
X5666015Y-13916484D02*
X5580301Y-14116484D01*
X5780301Y-13916484D02*
X5799348Y-13916484D01*
X5799348Y-13916484D02*
X5818396Y-13926008D01*
X5818396Y-13926008D02*
X5827920Y-13935531D01*
X5827920Y-13935531D02*
X5837444Y-13954579D01*
X5837444Y-13954579D02*
X5846967Y-13992674D01*
X5846967Y-13992674D02*
X5846967Y-14040293D01*
X5846967Y-14040293D02*
X5837444Y-14078388D01*
X5837444Y-14078388D02*
X5827920Y-14097436D01*
X5827920Y-14097436D02*
X5818396Y-14106960D01*
X5818396Y-14106960D02*
X5799348Y-14116484D01*
X5799348Y-14116484D02*
X5780301Y-14116484D01*
X5780301Y-14116484D02*
X5761253Y-14106960D01*
X5761253Y-14106960D02*
X5751729Y-14097436D01*
X5751729Y-14097436D02*
X5742206Y-14078388D01*
X5742206Y-14078388D02*
X5732682Y-14040293D01*
X5732682Y-14040293D02*
X5732682Y-13992674D01*
X5732682Y-13992674D02*
X5742206Y-13954579D01*
X5742206Y-13954579D02*
X5751729Y-13935531D01*
X5751729Y-13935531D02*
X5761253Y-13926008D01*
X5761253Y-13926008D02*
X5780301Y-13916484D01*
X5942206Y-14116484D02*
X5980301Y-14116484D01*
X5980301Y-14116484D02*
X5999348Y-14106960D01*
X5999348Y-14106960D02*
X6008872Y-14097436D01*
X6008872Y-14097436D02*
X6027920Y-14068865D01*
X6027920Y-14068865D02*
X6037444Y-14030769D01*
X6037444Y-14030769D02*
X6037444Y-13954579D01*
X6037444Y-13954579D02*
X6027920Y-13935531D01*
X6027920Y-13935531D02*
X6018396Y-13926008D01*
X6018396Y-13926008D02*
X5999348Y-13916484D01*
X5999348Y-13916484D02*
X5961253Y-13916484D01*
X5961253Y-13916484D02*
X5942206Y-13926008D01*
X5942206Y-13926008D02*
X5932682Y-13935531D01*
X5932682Y-13935531D02*
X5923158Y-13954579D01*
X5923158Y-13954579D02*
X5923158Y-14002198D01*
X5923158Y-14002198D02*
X5932682Y-14021246D01*
X5932682Y-14021246D02*
X5942206Y-14030769D01*
X5942206Y-14030769D02*
X5961253Y-14040293D01*
X5961253Y-14040293D02*
X5999348Y-14040293D01*
X5999348Y-14040293D02*
X6018396Y-14030769D01*
X6018396Y-14030769D02*
X6027920Y-14021246D01*
X6027920Y-14021246D02*
X6037444Y-14002198D01*
X6113634Y-13916484D02*
X6113634Y-13954579D01*
X6189825Y-13916484D02*
X6189825Y-13954579D01*
X6485063Y-14192674D02*
X6475539Y-14183150D01*
X6475539Y-14183150D02*
X6456491Y-14154579D01*
X6456491Y-14154579D02*
X6446968Y-14135531D01*
X6446968Y-14135531D02*
X6437444Y-14106960D01*
X6437444Y-14106960D02*
X6427920Y-14059341D01*
X6427920Y-14059341D02*
X6427920Y-14021246D01*
X6427920Y-14021246D02*
X6437444Y-13973627D01*
X6437444Y-13973627D02*
X6446968Y-13945055D01*
X6446968Y-13945055D02*
X6456491Y-13926008D01*
X6456491Y-13926008D02*
X6475539Y-13897436D01*
X6475539Y-13897436D02*
X6485063Y-13887912D01*
X6551729Y-13935531D02*
X6561253Y-13926008D01*
X6561253Y-13926008D02*
X6580301Y-13916484D01*
X6580301Y-13916484D02*
X6627920Y-13916484D01*
X6627920Y-13916484D02*
X6646968Y-13926008D01*
X6646968Y-13926008D02*
X6656491Y-13935531D01*
X6656491Y-13935531D02*
X6666015Y-13954579D01*
X6666015Y-13954579D02*
X6666015Y-13973627D01*
X6666015Y-13973627D02*
X6656491Y-14002198D01*
X6656491Y-14002198D02*
X6542206Y-14116484D01*
X6542206Y-14116484D02*
X6666015Y-14116484D01*
X6904110Y-14116484D02*
X6904110Y-13916484D01*
X6989825Y-14116484D02*
X6989825Y-14011722D01*
X6989825Y-14011722D02*
X6980301Y-13992674D01*
X6980301Y-13992674D02*
X6961253Y-13983150D01*
X6961253Y-13983150D02*
X6932682Y-13983150D01*
X6932682Y-13983150D02*
X6913634Y-13992674D01*
X6913634Y-13992674D02*
X6904110Y-14002198D01*
X7113634Y-14116484D02*
X7094587Y-14106960D01*
X7094587Y-14106960D02*
X7085063Y-14097436D01*
X7085063Y-14097436D02*
X7075539Y-14078388D01*
X7075539Y-14078388D02*
X7075539Y-14021246D01*
X7075539Y-14021246D02*
X7085063Y-14002198D01*
X7085063Y-14002198D02*
X7094587Y-13992674D01*
X7094587Y-13992674D02*
X7113634Y-13983150D01*
X7113634Y-13983150D02*
X7142206Y-13983150D01*
X7142206Y-13983150D02*
X7161253Y-13992674D01*
X7161253Y-13992674D02*
X7170777Y-14002198D01*
X7170777Y-14002198D02*
X7180301Y-14021246D01*
X7180301Y-14021246D02*
X7180301Y-14078388D01*
X7180301Y-14078388D02*
X7170777Y-14097436D01*
X7170777Y-14097436D02*
X7161253Y-14106960D01*
X7161253Y-14106960D02*
X7142206Y-14116484D01*
X7142206Y-14116484D02*
X7113634Y-14116484D01*
X7294587Y-14116484D02*
X7275539Y-14106960D01*
X7275539Y-14106960D02*
X7266015Y-14087912D01*
X7266015Y-14087912D02*
X7266015Y-13916484D01*
X7446968Y-14106960D02*
X7427920Y-14116484D01*
X7427920Y-14116484D02*
X7389825Y-14116484D01*
X7389825Y-14116484D02*
X7370777Y-14106960D01*
X7370777Y-14106960D02*
X7361253Y-14087912D01*
X7361253Y-14087912D02*
X7361253Y-14011722D01*
X7361253Y-14011722D02*
X7370777Y-13992674D01*
X7370777Y-13992674D02*
X7389825Y-13983150D01*
X7389825Y-13983150D02*
X7427920Y-13983150D01*
X7427920Y-13983150D02*
X7446968Y-13992674D01*
X7446968Y-13992674D02*
X7456491Y-14011722D01*
X7456491Y-14011722D02*
X7456491Y-14030769D01*
X7456491Y-14030769D02*
X7361253Y-14049817D01*
X7532682Y-14106960D02*
X7551730Y-14116484D01*
X7551730Y-14116484D02*
X7589825Y-14116484D01*
X7589825Y-14116484D02*
X7608872Y-14106960D01*
X7608872Y-14106960D02*
X7618396Y-14087912D01*
X7618396Y-14087912D02*
X7618396Y-14078388D01*
X7618396Y-14078388D02*
X7608872Y-14059341D01*
X7608872Y-14059341D02*
X7589825Y-14049817D01*
X7589825Y-14049817D02*
X7561253Y-14049817D01*
X7561253Y-14049817D02*
X7542206Y-14040293D01*
X7542206Y-14040293D02*
X7532682Y-14021246D01*
X7532682Y-14021246D02*
X7532682Y-14011722D01*
X7532682Y-14011722D02*
X7542206Y-13992674D01*
X7542206Y-13992674D02*
X7561253Y-13983150D01*
X7561253Y-13983150D02*
X7589825Y-13983150D01*
X7589825Y-13983150D02*
X7608872Y-13992674D01*
X7685063Y-14192674D02*
X7694587Y-14183150D01*
X7694587Y-14183150D02*
X7713634Y-14154579D01*
X7713634Y-14154579D02*
X7723158Y-14135531D01*
X7723158Y-14135531D02*
X7732682Y-14106960D01*
X7732682Y-14106960D02*
X7742206Y-14059341D01*
X7742206Y-14059341D02*
X7742206Y-14021246D01*
X7742206Y-14021246D02*
X7732682Y-13973627D01*
X7732682Y-13973627D02*
X7723158Y-13945055D01*
X7723158Y-13945055D02*
X7713634Y-13926008D01*
X7713634Y-13926008D02*
X7694587Y-13897436D01*
X7694587Y-13897436D02*
X7685063Y-13887912D01*
X8046968Y-14192674D02*
X8037444Y-14183150D01*
X8037444Y-14183150D02*
X8018396Y-14154579D01*
X8018396Y-14154579D02*
X8008872Y-14135531D01*
X8008872Y-14135531D02*
X7999349Y-14106960D01*
X7999349Y-14106960D02*
X7989825Y-14059341D01*
X7989825Y-14059341D02*
X7989825Y-14021246D01*
X7989825Y-14021246D02*
X7999349Y-13973627D01*
X7999349Y-13973627D02*
X8008872Y-13945055D01*
X8008872Y-13945055D02*
X8018396Y-13926008D01*
X8018396Y-13926008D02*
X8037444Y-13897436D01*
X8037444Y-13897436D02*
X8046968Y-13887912D01*
X8123158Y-13983150D02*
X8123158Y-14116484D01*
X8123158Y-14002198D02*
X8132682Y-13992674D01*
X8132682Y-13992674D02*
X8151730Y-13983150D01*
X8151730Y-13983150D02*
X8180301Y-13983150D01*
X8180301Y-13983150D02*
X8199349Y-13992674D01*
X8199349Y-13992674D02*
X8208872Y-14011722D01*
X8208872Y-14011722D02*
X8208872Y-14116484D01*
X8332682Y-14116484D02*
X8313634Y-14106960D01*
X8313634Y-14106960D02*
X8304111Y-14097436D01*
X8304111Y-14097436D02*
X8294587Y-14078388D01*
X8294587Y-14078388D02*
X8294587Y-14021246D01*
X8294587Y-14021246D02*
X8304111Y-14002198D01*
X8304111Y-14002198D02*
X8313634Y-13992674D01*
X8313634Y-13992674D02*
X8332682Y-13983150D01*
X8332682Y-13983150D02*
X8361253Y-13983150D01*
X8361253Y-13983150D02*
X8380301Y-13992674D01*
X8380301Y-13992674D02*
X8389825Y-14002198D01*
X8389825Y-14002198D02*
X8399349Y-14021246D01*
X8399349Y-14021246D02*
X8399349Y-14078388D01*
X8399349Y-14078388D02*
X8389825Y-14097436D01*
X8389825Y-14097436D02*
X8380301Y-14106960D01*
X8380301Y-14106960D02*
X8361253Y-14116484D01*
X8361253Y-14116484D02*
X8332682Y-14116484D01*
X8456492Y-13983150D02*
X8532682Y-13983150D01*
X8485063Y-13916484D02*
X8485063Y-14087912D01*
X8485063Y-14087912D02*
X8494587Y-14106960D01*
X8494587Y-14106960D02*
X8513634Y-14116484D01*
X8513634Y-14116484D02*
X8532682Y-14116484D01*
X8751730Y-13983150D02*
X8751730Y-14183150D01*
X8751730Y-13992674D02*
X8770777Y-13983150D01*
X8770777Y-13983150D02*
X8808873Y-13983150D01*
X8808873Y-13983150D02*
X8827920Y-13992674D01*
X8827920Y-13992674D02*
X8837444Y-14002198D01*
X8837444Y-14002198D02*
X8846968Y-14021246D01*
X8846968Y-14021246D02*
X8846968Y-14078388D01*
X8846968Y-14078388D02*
X8837444Y-14097436D01*
X8837444Y-14097436D02*
X8827920Y-14106960D01*
X8827920Y-14106960D02*
X8808873Y-14116484D01*
X8808873Y-14116484D02*
X8770777Y-14116484D01*
X8770777Y-14116484D02*
X8751730Y-14106960D01*
X8961254Y-14116484D02*
X8942206Y-14106960D01*
X8942206Y-14106960D02*
X8932682Y-14087912D01*
X8932682Y-14087912D02*
X8932682Y-13916484D01*
X9123158Y-14116484D02*
X9123158Y-14011722D01*
X9123158Y-14011722D02*
X9113635Y-13992674D01*
X9113635Y-13992674D02*
X9094587Y-13983150D01*
X9094587Y-13983150D02*
X9056492Y-13983150D01*
X9056492Y-13983150D02*
X9037444Y-13992674D01*
X9123158Y-14106960D02*
X9104111Y-14116484D01*
X9104111Y-14116484D02*
X9056492Y-14116484D01*
X9056492Y-14116484D02*
X9037444Y-14106960D01*
X9037444Y-14106960D02*
X9027920Y-14087912D01*
X9027920Y-14087912D02*
X9027920Y-14068865D01*
X9027920Y-14068865D02*
X9037444Y-14049817D01*
X9037444Y-14049817D02*
X9056492Y-14040293D01*
X9056492Y-14040293D02*
X9104111Y-14040293D01*
X9104111Y-14040293D02*
X9123158Y-14030769D01*
X9189825Y-13983150D02*
X9266015Y-13983150D01*
X9218396Y-13916484D02*
X9218396Y-14087912D01*
X9218396Y-14087912D02*
X9227920Y-14106960D01*
X9227920Y-14106960D02*
X9246968Y-14116484D01*
X9246968Y-14116484D02*
X9266015Y-14116484D01*
X9408873Y-14106960D02*
X9389825Y-14116484D01*
X9389825Y-14116484D02*
X9351730Y-14116484D01*
X9351730Y-14116484D02*
X9332682Y-14106960D01*
X9332682Y-14106960D02*
X9323158Y-14087912D01*
X9323158Y-14087912D02*
X9323158Y-14011722D01*
X9323158Y-14011722D02*
X9332682Y-13992674D01*
X9332682Y-13992674D02*
X9351730Y-13983150D01*
X9351730Y-13983150D02*
X9389825Y-13983150D01*
X9389825Y-13983150D02*
X9408873Y-13992674D01*
X9408873Y-13992674D02*
X9418396Y-14011722D01*
X9418396Y-14011722D02*
X9418396Y-14030769D01*
X9418396Y-14030769D02*
X9323158Y-14049817D01*
X9589825Y-14116484D02*
X9589825Y-13916484D01*
X9589825Y-14106960D02*
X9570777Y-14116484D01*
X9570777Y-14116484D02*
X9532682Y-14116484D01*
X9532682Y-14116484D02*
X9513635Y-14106960D01*
X9513635Y-14106960D02*
X9504111Y-14097436D01*
X9504111Y-14097436D02*
X9494587Y-14078388D01*
X9494587Y-14078388D02*
X9494587Y-14021246D01*
X9494587Y-14021246D02*
X9504111Y-14002198D01*
X9504111Y-14002198D02*
X9513635Y-13992674D01*
X9513635Y-13992674D02*
X9532682Y-13983150D01*
X9532682Y-13983150D02*
X9570777Y-13983150D01*
X9570777Y-13983150D02*
X9589825Y-13992674D01*
X9666016Y-14192674D02*
X9675539Y-14183150D01*
X9675539Y-14183150D02*
X9694587Y-14154579D01*
X9694587Y-14154579D02*
X9704111Y-14135531D01*
X9704111Y-14135531D02*
X9713635Y-14106960D01*
X9713635Y-14106960D02*
X9723158Y-14059341D01*
X9723158Y-14059341D02*
X9723158Y-14021246D01*
X9723158Y-14021246D02*
X9713635Y-13973627D01*
X9713635Y-13973627D02*
X9704111Y-13945055D01*
X9704111Y-13945055D02*
X9694587Y-13926008D01*
X9694587Y-13926008D02*
X9675539Y-13897436D01*
X9675539Y-13897436D02*
X9666016Y-13887912D01*
M02*
