G04 #@! TF.GenerationSoftware,KiCad,Pcbnew,8.0.5+1*
G04 #@! TF.CreationDate,2024-11-03T00:00:47+00:00*
G04 #@! TF.ProjectId,nixie_clock,6e697869-655f-4636-9c6f-636b2e6b6963,rev?*
G04 #@! TF.SameCoordinates,Original*
G04 #@! TF.FileFunction,OtherDrawing,Comment*
%FSLAX46Y46*%
G04 Gerber Fmt 4.6, Leading zero omitted, Abs format (unit mm)*
G04 Created by KiCad (PCBNEW 8.0.5+1) date 2024-11-03 00:00:47*
%MOMM*%
%LPD*%
G01*
G04 APERTURE LIST*
%ADD10C,0.120000*%
%ADD11C,0.100000*%
G04 APERTURE END LIST*
D10*
G04 #@! TO.C,U14*
X40710000Y-121000000D02*
X54910000Y-121000000D01*
X40710000Y-129500000D02*
X40710000Y-121000000D01*
X54910000Y-121000000D02*
X54910000Y-129500000D01*
D11*
X46310000Y-89100000D02*
X44310000Y-89100000D01*
X44310000Y-87100000D01*
X46310000Y-87100000D01*
X46310000Y-89100000D01*
G36*
X46310000Y-89100000D02*
G01*
X44310000Y-89100000D01*
X44310000Y-87100000D01*
X46310000Y-87100000D01*
X46310000Y-89100000D01*
G37*
X46310000Y-91600000D02*
X44310000Y-91600000D01*
X44310000Y-89600000D01*
X46310000Y-89600000D01*
X46310000Y-91600000D01*
G36*
X46310000Y-91600000D02*
G01*
X44310000Y-91600000D01*
X44310000Y-89600000D01*
X46310000Y-89600000D01*
X46310000Y-91600000D01*
G37*
X46310000Y-94100000D02*
X44310000Y-94100000D01*
X44310000Y-92100000D01*
X46310000Y-92100000D01*
X46310000Y-94100000D01*
G36*
X46310000Y-94100000D02*
G01*
X44310000Y-94100000D01*
X44310000Y-92100000D01*
X46310000Y-92100000D01*
X46310000Y-94100000D01*
G37*
X51510000Y-83800000D02*
X44110000Y-83800000D01*
X44110000Y-79100000D01*
X51510000Y-79100000D01*
X51510000Y-83800000D01*
G36*
X51510000Y-83800000D02*
G01*
X44110000Y-83800000D01*
X44110000Y-79100000D01*
X51510000Y-79100000D01*
X51510000Y-83800000D01*
G37*
G04 #@! TD*
M02*
