G04 #@! TF.GenerationSoftware,KiCad,Pcbnew,8.0.5+1*
G04 #@! TF.CreationDate,2024-11-03T00:00:47+00:00*
G04 #@! TF.ProjectId,nixie_clock,6e697869-655f-4636-9c6f-636b2e6b6963,rev?*
G04 #@! TF.SameCoordinates,Original*
G04 #@! TF.FileFunction,Soldermask,Top*
G04 #@! TF.FilePolarity,Negative*
%FSLAX46Y46*%
G04 Gerber Fmt 4.6, Leading zero omitted, Abs format (unit mm)*
G04 Created by KiCad (PCBNEW 8.0.5+1) date 2024-11-03 00:00:47*
%MOMM*%
%LPD*%
G01*
G04 APERTURE LIST*
G04 Aperture macros list*
%AMRoundRect*
0 Rectangle with rounded corners*
0 $1 Rounding radius*
0 $2 $3 $4 $5 $6 $7 $8 $9 X,Y pos of 4 corners*
0 Add a 4 corners polygon primitive as box body*
4,1,4,$2,$3,$4,$5,$6,$7,$8,$9,$2,$3,0*
0 Add four circle primitives for the rounded corners*
1,1,$1+$1,$2,$3*
1,1,$1+$1,$4,$5*
1,1,$1+$1,$6,$7*
1,1,$1+$1,$8,$9*
0 Add four rect primitives between the rounded corners*
20,1,$1+$1,$2,$3,$4,$5,0*
20,1,$1+$1,$4,$5,$6,$7,0*
20,1,$1+$1,$6,$7,$8,$9,0*
20,1,$1+$1,$8,$9,$2,$3,0*%
%AMFreePoly0*
4,1,21,3.024497,2.399497,3.045000,2.350000,3.045000,-2.350000,3.024497,-2.399497,2.975000,-2.420000,1.425000,-2.420000,1.375503,-2.399497,1.355000,-2.350000,1.355000,-2.170000,-1.650000,-2.170000,-1.699497,-2.149497,-1.720000,-2.100000,-1.720000,2.100000,-1.699497,2.149497,-1.650000,2.170000,1.355000,2.170000,1.355000,2.350000,1.375503,2.399497,1.425000,2.420000,2.975000,2.420000,
3.024497,2.399497,3.024497,2.399497,$1*%
G04 Aperture macros list end*
%ADD10R,0.457200X1.143000*%
%ADD11RoundRect,0.200000X-0.275000X0.200000X-0.275000X-0.200000X0.275000X-0.200000X0.275000X0.200000X0*%
%ADD12RoundRect,0.200000X0.275000X-0.200000X0.275000X0.200000X-0.275000X0.200000X-0.275000X-0.200000X0*%
%ADD13R,1.170000X2.080000*%
%ADD14RoundRect,0.075000X0.437500X0.075000X-0.437500X0.075000X-0.437500X-0.075000X0.437500X-0.075000X0*%
%ADD15RoundRect,0.075000X0.075000X0.437500X-0.075000X0.437500X-0.075000X-0.437500X0.075000X-0.437500X0*%
%ADD16R,4.250000X4.250000*%
%ADD17RoundRect,0.225000X-0.225000X-0.250000X0.225000X-0.250000X0.225000X0.250000X-0.225000X0.250000X0*%
%ADD18RoundRect,0.250000X0.325000X1.100000X-0.325000X1.100000X-0.325000X-1.100000X0.325000X-1.100000X0*%
%ADD19RoundRect,0.250000X-0.450000X0.262500X-0.450000X-0.262500X0.450000X-0.262500X0.450000X0.262500X0*%
%ADD20R,0.431800X1.333500*%
%ADD21R,2.946400X1.752600*%
%ADD22RoundRect,0.250000X0.650000X2.450000X-0.650000X2.450000X-0.650000X-2.450000X0.650000X-2.450000X0*%
%ADD23RoundRect,0.250000X0.250000X0.475000X-0.250000X0.475000X-0.250000X-0.475000X0.250000X-0.475000X0*%
%ADD24RoundRect,0.249999X1.450001X-0.450001X1.450001X0.450001X-1.450001X0.450001X-1.450001X-0.450001X0*%
%ADD25RoundRect,0.070000X0.350000X0.575000X-0.350000X0.575000X-0.350000X-0.575000X0.350000X-0.575000X0*%
%ADD26FreePoly0,270.000000*%
%ADD27RoundRect,0.225000X0.250000X-0.225000X0.250000X0.225000X-0.250000X0.225000X-0.250000X-0.225000X0*%
%ADD28O,1.800000X1.800000*%
%ADD29O,1.500000X1.500000*%
%ADD30R,3.500000X1.700000*%
%ADD31RoundRect,0.225000X0.225000X0.250000X-0.225000X0.250000X-0.225000X-0.250000X0.225000X-0.250000X0*%
%ADD32O,2.000000X3.000000*%
%ADD33C,2.000000*%
G04 APERTURE END LIST*
D10*
G04 #@! TO.C,U36*
X123228000Y-109640000D03*
X124625000Y-109640000D03*
X123926500Y-107658800D03*
G04 #@! TD*
D11*
G04 #@! TO.C,R73*
X74725000Y-113490000D03*
X74725000Y-115140000D03*
G04 #@! TD*
D10*
G04 #@! TO.C,U30*
X138728000Y-109140000D03*
X140125000Y-109140000D03*
X139426500Y-107158800D03*
G04 #@! TD*
G04 #@! TO.C,U56*
X215728000Y-109140000D03*
X217125000Y-109140000D03*
X216426500Y-107158800D03*
G04 #@! TD*
D12*
G04 #@! TO.C,R64*
X226100000Y-88290000D03*
X226100000Y-86640000D03*
G04 #@! TD*
D11*
G04 #@! TO.C,R14*
X111125000Y-110990000D03*
X111125000Y-112640000D03*
G04 #@! TD*
D10*
G04 #@! TO.C,U9*
X144228000Y-105640000D03*
X145625000Y-105640000D03*
X144926500Y-103658800D03*
G04 #@! TD*
D11*
G04 #@! TO.C,R15*
X113125000Y-107490000D03*
X113125000Y-109140000D03*
G04 #@! TD*
D13*
G04 #@! TO.C,T1*
X237800000Y-106630000D03*
X235300000Y-106630000D03*
X232800000Y-106630000D03*
X232800000Y-94970000D03*
X235300000Y-94970000D03*
X237800000Y-94970000D03*
G04 #@! TD*
D11*
G04 #@! TO.C,R33*
X121625000Y-107490000D03*
X121625000Y-109140000D03*
G04 #@! TD*
D12*
G04 #@! TO.C,R76*
X68625000Y-89640000D03*
X68625000Y-87990000D03*
G04 #@! TD*
D11*
G04 #@! TO.C,R32*
X124625000Y-111990000D03*
X124625000Y-113640000D03*
G04 #@! TD*
D12*
G04 #@! TO.C,R12*
X152125000Y-86140000D03*
X152125000Y-84490000D03*
G04 #@! TD*
D10*
G04 #@! TO.C,U38*
X123125000Y-91140000D03*
X121728000Y-91140000D03*
X122426500Y-93121200D03*
G04 #@! TD*
D11*
G04 #@! TO.C,R68*
X89125000Y-107490000D03*
X89125000Y-109140000D03*
G04 #@! TD*
D12*
G04 #@! TO.C,R47*
X177625000Y-87140000D03*
X177625000Y-85490000D03*
G04 #@! TD*
G04 #@! TO.C,R11*
X148625000Y-87140000D03*
X148625000Y-85490000D03*
G04 #@! TD*
G04 #@! TO.C,R41*
X188125000Y-86640000D03*
X188125000Y-84990000D03*
G04 #@! TD*
D11*
G04 #@! TO.C,R75*
X68625000Y-107490000D03*
X68625000Y-109140000D03*
G04 #@! TD*
D12*
G04 #@! TO.C,R63*
X223100000Y-99115000D03*
X223100000Y-97465000D03*
G04 #@! TD*
D11*
G04 #@! TO.C,R21*
X92625000Y-107490000D03*
X92625000Y-109140000D03*
G04 #@! TD*
D10*
G04 #@! TO.C,U32*
X140522000Y-90640000D03*
X139125000Y-90640000D03*
X139823500Y-92621200D03*
G04 #@! TD*
D12*
G04 #@! TO.C,R5*
X159125000Y-86640000D03*
X159125000Y-84990000D03*
G04 #@! TD*
G04 #@! TO.C,R4*
X163125000Y-89140000D03*
X163125000Y-87490000D03*
G04 #@! TD*
D10*
G04 #@! TO.C,U65*
X203125000Y-88640000D03*
X201728000Y-88640000D03*
X202426500Y-90621200D03*
G04 #@! TD*
D11*
G04 #@! TO.C,R1*
X161125000Y-112815000D03*
X161125000Y-114465000D03*
G04 #@! TD*
D14*
G04 #@! TO.C,U15*
X104610000Y-122702031D03*
X104610000Y-122052031D03*
X104610000Y-121402031D03*
X104610000Y-120752031D03*
X104610000Y-120102031D03*
X104610000Y-119452031D03*
X104610000Y-118802031D03*
D15*
X103722500Y-117914531D03*
X103072500Y-117914531D03*
X102422500Y-117914531D03*
X101772500Y-117914531D03*
X101122500Y-117914531D03*
X100472500Y-117914531D03*
X99822500Y-117914531D03*
D14*
X98935000Y-118802031D03*
X98935000Y-119452031D03*
X98935000Y-120102031D03*
X98935000Y-120752031D03*
X98935000Y-121402031D03*
X98935000Y-122052031D03*
X98935000Y-122702031D03*
D15*
X99822500Y-123589531D03*
X100472500Y-123589531D03*
X101122500Y-123589531D03*
X101772500Y-123589531D03*
X102422500Y-123589531D03*
X103072500Y-123589531D03*
X103722500Y-123589531D03*
D16*
X101772500Y-120752031D03*
G04 #@! TD*
D10*
G04 #@! TO.C,U43*
X191728000Y-109140000D03*
X193125000Y-109140000D03*
X192426500Y-107158800D03*
G04 #@! TD*
G04 #@! TO.C,U16*
X106728000Y-111140000D03*
X108125000Y-111140000D03*
X107426500Y-109158800D03*
G04 #@! TD*
D12*
G04 #@! TO.C,R46*
X174625000Y-89640000D03*
X174625000Y-87990000D03*
G04 #@! TD*
D10*
G04 #@! TO.C,U66*
X82728000Y-111140000D03*
X84125000Y-111140000D03*
X83426500Y-109158800D03*
G04 #@! TD*
D12*
G04 #@! TO.C,R71*
X79125000Y-85965000D03*
X79125000Y-84315000D03*
G04 #@! TD*
G04 #@! TO.C,R70*
X82125000Y-86640000D03*
X82125000Y-84990000D03*
G04 #@! TD*
D10*
G04 #@! TO.C,U64*
X200125000Y-91140000D03*
X198728000Y-91140000D03*
X199426500Y-93121200D03*
G04 #@! TD*
G04 #@! TO.C,U23*
X94228000Y-109640000D03*
X95625000Y-109640000D03*
X94926500Y-107658800D03*
G04 #@! TD*
D11*
G04 #@! TO.C,R39*
X195125000Y-107490000D03*
X195125000Y-109140000D03*
G04 #@! TD*
D10*
G04 #@! TO.C,U70*
X83625000Y-88640000D03*
X82228000Y-88640000D03*
X82926500Y-90621200D03*
G04 #@! TD*
D12*
G04 #@! TO.C,R35*
X124625000Y-87140000D03*
X124625000Y-85490000D03*
G04 #@! TD*
G04 #@! TO.C,R6*
X156125000Y-85965000D03*
X156125000Y-84315000D03*
G04 #@! TD*
D10*
G04 #@! TO.C,U17*
X109728000Y-109140000D03*
X111125000Y-109140000D03*
X110426500Y-107158800D03*
G04 #@! TD*
D11*
G04 #@! TO.C,R8*
X148625000Y-111990000D03*
X148625000Y-113640000D03*
G04 #@! TD*
D10*
G04 #@! TO.C,U50*
X173228000Y-105640000D03*
X174625000Y-105640000D03*
X173926500Y-103658800D03*
G04 #@! TD*
D17*
G04 #@! TO.C,C3*
X221600000Y-100565000D03*
X223150000Y-100565000D03*
G04 #@! TD*
D12*
G04 #@! TO.C,R23*
X95625000Y-87140000D03*
X95625000Y-85490000D03*
G04 #@! TD*
D10*
G04 #@! TO.C,U22*
X97228000Y-111640000D03*
X98625000Y-111640000D03*
X97926500Y-109658800D03*
G04 #@! TD*
D14*
G04 #@! TO.C,U54*
X210610000Y-122702031D03*
X210610000Y-122052031D03*
X210610000Y-121402031D03*
X210610000Y-120752031D03*
X210610000Y-120102031D03*
X210610000Y-119452031D03*
X210610000Y-118802031D03*
D15*
X209722500Y-117914531D03*
X209072500Y-117914531D03*
X208422500Y-117914531D03*
X207772500Y-117914531D03*
X207122500Y-117914531D03*
X206472500Y-117914531D03*
X205822500Y-117914531D03*
D14*
X204935000Y-118802031D03*
X204935000Y-119452031D03*
X204935000Y-120102031D03*
X204935000Y-120752031D03*
X204935000Y-121402031D03*
X204935000Y-122052031D03*
X204935000Y-122702031D03*
D15*
X205822500Y-123589531D03*
X206472500Y-123589531D03*
X207122500Y-123589531D03*
X207772500Y-123589531D03*
X208422500Y-123589531D03*
X209072500Y-123589531D03*
X209722500Y-123589531D03*
D16*
X207772500Y-120752031D03*
G04 #@! TD*
D10*
G04 #@! TO.C,U5*
X160625000Y-88640000D03*
X159228000Y-88640000D03*
X159926500Y-90621200D03*
G04 #@! TD*
D12*
G04 #@! TO.C,R29*
X135125000Y-86640000D03*
X135125000Y-84990000D03*
G04 #@! TD*
D10*
G04 #@! TO.C,U45*
X193522000Y-90640000D03*
X192125000Y-90640000D03*
X192823500Y-92621200D03*
G04 #@! TD*
D11*
G04 #@! TO.C,R50*
X217125000Y-110990000D03*
X217125000Y-112640000D03*
G04 #@! TD*
D18*
G04 #@! TO.C,C8*
X238600000Y-85765000D03*
X235650000Y-85765000D03*
G04 #@! TD*
D11*
G04 #@! TO.C,R62*
X229800000Y-115240000D03*
X229800000Y-116890000D03*
G04 #@! TD*
D12*
G04 #@! TO.C,R77*
X71625000Y-87140000D03*
X71625000Y-85490000D03*
G04 #@! TD*
D10*
G04 #@! TO.C,U52*
X179125000Y-88640000D03*
X177728000Y-88640000D03*
X178426500Y-90621200D03*
G04 #@! TD*
D12*
G04 #@! TO.C,R16*
X110125000Y-89140000D03*
X110125000Y-87490000D03*
G04 #@! TD*
G04 #@! TO.C,R42*
X185125000Y-85965000D03*
X185125000Y-84315000D03*
G04 #@! TD*
D19*
G04 #@! TO.C,R61*
X227500000Y-90665000D03*
X227500000Y-92490000D03*
G04 #@! TD*
D10*
G04 #@! TO.C,U53*
X182625000Y-87640000D03*
X181228000Y-87640000D03*
X181926500Y-89621200D03*
G04 #@! TD*
D12*
G04 #@! TO.C,R53*
X212125000Y-86640000D03*
X212125000Y-84990000D03*
G04 #@! TD*
D10*
G04 #@! TO.C,U18*
X111625000Y-105640000D03*
X113022000Y-105640000D03*
X112323500Y-103658800D03*
G04 #@! TD*
D11*
G04 #@! TO.C,R3*
X166125000Y-107490000D03*
X166125000Y-109140000D03*
G04 #@! TD*
G04 #@! TO.C,R27*
X142125000Y-107490000D03*
X142125000Y-109140000D03*
G04 #@! TD*
D10*
G04 #@! TO.C,U77*
X76625000Y-87640000D03*
X75228000Y-87640000D03*
X75926500Y-89621200D03*
G04 #@! TD*
D11*
G04 #@! TO.C,R49*
X214125000Y-112815000D03*
X214125000Y-114465000D03*
G04 #@! TD*
D10*
G04 #@! TO.C,U8*
X147228000Y-109640000D03*
X148625000Y-109640000D03*
X147926500Y-107658800D03*
G04 #@! TD*
D12*
G04 #@! TO.C,R10*
X145625000Y-89640000D03*
X145625000Y-87990000D03*
G04 #@! TD*
D11*
G04 #@! TO.C,R51*
X219125000Y-107490000D03*
X219125000Y-109140000D03*
G04 #@! TD*
D20*
G04 #@! TO.C,U79*
X222574400Y-95281150D03*
X223224640Y-95281150D03*
X223874880Y-95281150D03*
X224525120Y-95281150D03*
X225175360Y-95281150D03*
X225825600Y-95281150D03*
X225825600Y-90848850D03*
X225175360Y-90848850D03*
X224525120Y-90848850D03*
X223874880Y-90848850D03*
X223224640Y-90848850D03*
X222574400Y-90848850D03*
D21*
X224200000Y-93065000D03*
G04 #@! TD*
D11*
G04 #@! TO.C,R74*
X71625000Y-111990000D03*
X71625000Y-113640000D03*
G04 #@! TD*
G04 #@! TO.C,R55*
X204725000Y-113490000D03*
X204725000Y-115140000D03*
G04 #@! TD*
D10*
G04 #@! TO.C,U11*
X150125000Y-88640000D03*
X148728000Y-88640000D03*
X149426500Y-90621200D03*
G04 #@! TD*
D11*
G04 #@! TO.C,R57*
X198625000Y-107490000D03*
X198625000Y-109140000D03*
G04 #@! TD*
D10*
G04 #@! TO.C,U3*
X164625000Y-105640000D03*
X166022000Y-105640000D03*
X165323500Y-103658800D03*
G04 #@! TD*
D12*
G04 #@! TO.C,R30*
X132125000Y-85965000D03*
X132125000Y-84315000D03*
G04 #@! TD*
D10*
G04 #@! TO.C,U27*
X100625000Y-87640000D03*
X99228000Y-87640000D03*
X99926500Y-89621200D03*
G04 #@! TD*
D14*
G04 #@! TO.C,U28*
X133610000Y-122702031D03*
X133610000Y-122052031D03*
X133610000Y-121402031D03*
X133610000Y-120752031D03*
X133610000Y-120102031D03*
X133610000Y-119452031D03*
X133610000Y-118802031D03*
D15*
X132722500Y-117914531D03*
X132072500Y-117914531D03*
X131422500Y-117914531D03*
X130772500Y-117914531D03*
X130122500Y-117914531D03*
X129472500Y-117914531D03*
X128822500Y-117914531D03*
D14*
X127935000Y-118802031D03*
X127935000Y-119452031D03*
X127935000Y-120102031D03*
X127935000Y-120752031D03*
X127935000Y-121402031D03*
X127935000Y-122052031D03*
X127935000Y-122702031D03*
D15*
X128822500Y-123589531D03*
X129472500Y-123589531D03*
X130122500Y-123589531D03*
X130772500Y-123589531D03*
X131422500Y-123589531D03*
X132072500Y-123589531D03*
X132722500Y-123589531D03*
D16*
X130772500Y-120752031D03*
G04 #@! TD*
D22*
G04 #@! TO.C,C6*
X237750000Y-122900000D03*
X232650000Y-122900000D03*
G04 #@! TD*
D10*
G04 #@! TO.C,U48*
X179228000Y-111640000D03*
X180625000Y-111640000D03*
X179926500Y-109658800D03*
G04 #@! TD*
G04 #@! TO.C,U61*
X203228000Y-111640000D03*
X204625000Y-111640000D03*
X203926500Y-109658800D03*
G04 #@! TD*
D14*
G04 #@! TO.C,U13*
X157610000Y-122702031D03*
X157610000Y-122052031D03*
X157610000Y-121402031D03*
X157610000Y-120752031D03*
X157610000Y-120102031D03*
X157610000Y-119452031D03*
X157610000Y-118802031D03*
D15*
X156722500Y-117914531D03*
X156072500Y-117914531D03*
X155422500Y-117914531D03*
X154772500Y-117914531D03*
X154122500Y-117914531D03*
X153472500Y-117914531D03*
X152822500Y-117914531D03*
D14*
X151935000Y-118802031D03*
X151935000Y-119452031D03*
X151935000Y-120102031D03*
X151935000Y-120752031D03*
X151935000Y-121402031D03*
X151935000Y-122052031D03*
X151935000Y-122702031D03*
D15*
X152822500Y-123589531D03*
X153472500Y-123589531D03*
X154122500Y-123589531D03*
X154772500Y-123589531D03*
X155422500Y-123589531D03*
X156072500Y-123589531D03*
X156722500Y-123589531D03*
D16*
X154772500Y-120752031D03*
G04 #@! TD*
D12*
G04 #@! TO.C,R34*
X121625000Y-89640000D03*
X121625000Y-87990000D03*
G04 #@! TD*
D10*
G04 #@! TO.C,U71*
X80625000Y-87640000D03*
X79228000Y-87640000D03*
X79926500Y-89621200D03*
G04 #@! TD*
D14*
G04 #@! TO.C,U41*
X186610000Y-122702031D03*
X186610000Y-122052031D03*
X186610000Y-121402031D03*
X186610000Y-120752031D03*
X186610000Y-120102031D03*
X186610000Y-119452031D03*
X186610000Y-118802031D03*
D15*
X185722500Y-117914531D03*
X185072500Y-117914531D03*
X184422500Y-117914531D03*
X183772500Y-117914531D03*
X183122500Y-117914531D03*
X182472500Y-117914531D03*
X181822500Y-117914531D03*
D14*
X180935000Y-118802031D03*
X180935000Y-119452031D03*
X180935000Y-120102031D03*
X180935000Y-120752031D03*
X180935000Y-121402031D03*
X180935000Y-122052031D03*
X180935000Y-122702031D03*
D15*
X181822500Y-123589531D03*
X182472500Y-123589531D03*
X183122500Y-123589531D03*
X183772500Y-123589531D03*
X184422500Y-123589531D03*
X185072500Y-123589531D03*
X185722500Y-123589531D03*
D16*
X183772500Y-120752031D03*
G04 #@! TD*
D11*
G04 #@! TO.C,R25*
X137125000Y-112815000D03*
X137125000Y-114465000D03*
G04 #@! TD*
D10*
G04 #@! TO.C,U72*
X73228000Y-111640000D03*
X74625000Y-111640000D03*
X73926500Y-109658800D03*
G04 #@! TD*
G04 #@! TO.C,U68*
X87625000Y-105640000D03*
X89022000Y-105640000D03*
X88323500Y-103658800D03*
G04 #@! TD*
G04 #@! TO.C,U49*
X176228000Y-109640000D03*
X177625000Y-109640000D03*
X176926500Y-107658800D03*
G04 #@! TD*
D12*
G04 #@! TO.C,R65*
X221600000Y-99090000D03*
X221600000Y-97440000D03*
G04 #@! TD*
D18*
G04 #@! TO.C,C1*
X238600000Y-89065000D03*
X235650000Y-89065000D03*
G04 #@! TD*
D11*
G04 #@! TO.C,R37*
X190125000Y-112815000D03*
X190125000Y-114465000D03*
G04 #@! TD*
G04 #@! TO.C,R2*
X164125000Y-110990000D03*
X164125000Y-112640000D03*
G04 #@! TD*
D10*
G04 #@! TO.C,U47*
X186625000Y-87640000D03*
X185228000Y-87640000D03*
X185926500Y-89621200D03*
G04 #@! TD*
G04 #@! TO.C,U40*
X129625000Y-87640000D03*
X128228000Y-87640000D03*
X128926500Y-89621200D03*
G04 #@! TD*
D12*
G04 #@! TO.C,R58*
X198625000Y-89640000D03*
X198625000Y-87990000D03*
G04 #@! TD*
D11*
G04 #@! TO.C,R44*
X177625000Y-111990000D03*
X177625000Y-113640000D03*
G04 #@! TD*
D10*
G04 #@! TO.C,U58*
X217522000Y-90640000D03*
X216125000Y-90640000D03*
X216823500Y-92621200D03*
G04 #@! TD*
D12*
G04 #@! TO.C,R59*
X201625000Y-87140000D03*
X201625000Y-85490000D03*
G04 #@! TD*
D10*
G04 #@! TO.C,U21*
X104625000Y-87640000D03*
X103228000Y-87640000D03*
X103926500Y-89621200D03*
G04 #@! TD*
G04 #@! TO.C,U46*
X189625000Y-88640000D03*
X188228000Y-88640000D03*
X188926500Y-90621200D03*
G04 #@! TD*
G04 #@! TO.C,U29*
X135728000Y-111140000D03*
X137125000Y-111140000D03*
X136426500Y-109158800D03*
G04 #@! TD*
G04 #@! TO.C,U67*
X85728000Y-109140000D03*
X87125000Y-109140000D03*
X86426500Y-107158800D03*
G04 #@! TD*
D12*
G04 #@! TO.C,R28*
X139125000Y-89140000D03*
X139125000Y-87490000D03*
G04 #@! TD*
D11*
G04 #@! TO.C,R13*
X108125000Y-112815000D03*
X108125000Y-114465000D03*
G04 #@! TD*
D10*
G04 #@! TO.C,U39*
X126125000Y-88640000D03*
X124728000Y-88640000D03*
X125426500Y-90621200D03*
G04 #@! TD*
G04 #@! TO.C,U60*
X210625000Y-87640000D03*
X209228000Y-87640000D03*
X209926500Y-89621200D03*
G04 #@! TD*
G04 #@! TO.C,U12*
X153625000Y-87640000D03*
X152228000Y-87640000D03*
X152926500Y-89621200D03*
G04 #@! TD*
G04 #@! TO.C,U78*
X206625000Y-87640000D03*
X205228000Y-87640000D03*
X205926500Y-89621200D03*
G04 #@! TD*
D23*
G04 #@! TO.C,C2*
X237900000Y-91665000D03*
X236000000Y-91665000D03*
G04 #@! TD*
D24*
G04 #@! TO.C,C7*
X223400000Y-88865000D03*
X223400000Y-84765000D03*
G04 #@! TD*
D12*
G04 #@! TO.C,R40*
X192125000Y-89140000D03*
X192125000Y-87490000D03*
G04 #@! TD*
D24*
G04 #@! TO.C,D1*
X232600000Y-116950000D03*
X232600000Y-112850000D03*
G04 #@! TD*
D10*
G04 #@! TO.C,U75*
X70125000Y-91140000D03*
X68728000Y-91140000D03*
X69426500Y-93121200D03*
G04 #@! TD*
D11*
G04 #@! TO.C,R31*
X127725000Y-113490000D03*
X127725000Y-115140000D03*
G04 #@! TD*
G04 #@! TO.C,R66*
X84125000Y-112815000D03*
X84125000Y-114465000D03*
G04 #@! TD*
D10*
G04 #@! TO.C,U10*
X147125000Y-91140000D03*
X145728000Y-91140000D03*
X146426500Y-93121200D03*
G04 #@! TD*
G04 #@! TO.C,U63*
X197228000Y-105640000D03*
X198625000Y-105640000D03*
X197926500Y-103658800D03*
G04 #@! TD*
D12*
G04 #@! TO.C,R69*
X86125000Y-89140000D03*
X86125000Y-87490000D03*
G04 #@! TD*
D25*
G04 #@! TO.C,Q1*
X229310000Y-86380000D03*
D26*
X231220000Y-89650000D03*
D25*
X233130000Y-86380000D03*
X231860000Y-86380000D03*
X230580000Y-86380000D03*
G04 #@! TD*
D11*
G04 #@! TO.C,R38*
X193125000Y-110990000D03*
X193125000Y-112640000D03*
G04 #@! TD*
D12*
G04 #@! TO.C,R72*
X226900000Y-100065000D03*
X226900000Y-98415000D03*
G04 #@! TD*
G04 #@! TO.C,R36*
X128125000Y-86140000D03*
X128125000Y-84490000D03*
G04 #@! TD*
D10*
G04 #@! TO.C,U55*
X212728000Y-111140000D03*
X214125000Y-111140000D03*
X213426500Y-109158800D03*
G04 #@! TD*
D11*
G04 #@! TO.C,R56*
X201625000Y-111990000D03*
X201625000Y-113640000D03*
G04 #@! TD*
D10*
G04 #@! TO.C,U44*
X193625000Y-105640000D03*
X195022000Y-105640000D03*
X194323500Y-103658800D03*
G04 #@! TD*
G04 #@! TO.C,U2*
X162728000Y-109140000D03*
X164125000Y-109140000D03*
X163426500Y-107158800D03*
G04 #@! TD*
G04 #@! TO.C,U6*
X157625000Y-87640000D03*
X156228000Y-87640000D03*
X156926500Y-89621200D03*
G04 #@! TD*
G04 #@! TO.C,U74*
X67228000Y-105640000D03*
X68625000Y-105640000D03*
X67926500Y-103658800D03*
G04 #@! TD*
D11*
G04 #@! TO.C,R20*
X95625000Y-111990000D03*
X95625000Y-113640000D03*
G04 #@! TD*
G04 #@! TO.C,R45*
X174625000Y-107490000D03*
X174625000Y-109140000D03*
G04 #@! TD*
D27*
G04 #@! TO.C,C4*
X225400000Y-100065000D03*
X225400000Y-98515000D03*
G04 #@! TD*
D10*
G04 #@! TO.C,U69*
X87522000Y-90640000D03*
X86125000Y-90640000D03*
X86823500Y-92621200D03*
G04 #@! TD*
D11*
G04 #@! TO.C,R67*
X87125000Y-110990000D03*
X87125000Y-112640000D03*
G04 #@! TD*
G04 #@! TO.C,R19*
X98725000Y-113490000D03*
X98725000Y-115140000D03*
G04 #@! TD*
G04 #@! TO.C,R26*
X140125000Y-110990000D03*
X140125000Y-112640000D03*
G04 #@! TD*
D10*
G04 #@! TO.C,U20*
X107625000Y-88640000D03*
X106228000Y-88640000D03*
X106926500Y-90621200D03*
G04 #@! TD*
G04 #@! TO.C,U76*
X73125000Y-88640000D03*
X71728000Y-88640000D03*
X72426500Y-90621200D03*
G04 #@! TD*
G04 #@! TO.C,U1*
X159728000Y-111140000D03*
X161125000Y-111140000D03*
X160426500Y-109158800D03*
G04 #@! TD*
G04 #@! TO.C,U31*
X140625000Y-105640000D03*
X142022000Y-105640000D03*
X141323500Y-103658800D03*
G04 #@! TD*
D12*
G04 #@! TO.C,R17*
X106125000Y-86640000D03*
X106125000Y-84990000D03*
G04 #@! TD*
D10*
G04 #@! TO.C,U73*
X70228000Y-109640000D03*
X71625000Y-109640000D03*
X70926500Y-107658800D03*
G04 #@! TD*
G04 #@! TO.C,U33*
X136625000Y-88640000D03*
X135228000Y-88640000D03*
X135926500Y-90621200D03*
G04 #@! TD*
D12*
G04 #@! TO.C,R52*
X216125000Y-89140000D03*
X216125000Y-87490000D03*
G04 #@! TD*
G04 #@! TO.C,R54*
X209125000Y-85965000D03*
X209125000Y-84315000D03*
G04 #@! TD*
G04 #@! TO.C,R60*
X205125000Y-86140000D03*
X205125000Y-84490000D03*
G04 #@! TD*
D10*
G04 #@! TO.C,U7*
X150228000Y-111640000D03*
X151625000Y-111640000D03*
X150926500Y-109658800D03*
G04 #@! TD*
G04 #@! TO.C,U25*
X94125000Y-91140000D03*
X92728000Y-91140000D03*
X93426500Y-93121200D03*
G04 #@! TD*
D11*
G04 #@! TO.C,R9*
X145625000Y-107490000D03*
X145625000Y-109140000D03*
G04 #@! TD*
D10*
G04 #@! TO.C,U42*
X188728000Y-111140000D03*
X190125000Y-111140000D03*
X189426500Y-109158800D03*
G04 #@! TD*
D11*
G04 #@! TO.C,R43*
X180725000Y-113490000D03*
X180725000Y-115140000D03*
G04 #@! TD*
D12*
G04 #@! TO.C,R18*
X103125000Y-85965000D03*
X103125000Y-84315000D03*
G04 #@! TD*
D10*
G04 #@! TO.C,U19*
X111522000Y-90640000D03*
X110125000Y-90640000D03*
X110823500Y-92621200D03*
G04 #@! TD*
G04 #@! TO.C,U26*
X97125000Y-88640000D03*
X95728000Y-88640000D03*
X96426500Y-90621200D03*
G04 #@! TD*
D28*
G04 #@! TO.C,U14*
X45085000Y-80000000D03*
D29*
X45385000Y-83030000D03*
X50235000Y-83030000D03*
D28*
X50535000Y-80000000D03*
D30*
X38020000Y-79870000D03*
X38020000Y-82410000D03*
X38020000Y-84950000D03*
X38020000Y-87490000D03*
X38020000Y-90030000D03*
X38020000Y-92570000D03*
X38020000Y-95110000D03*
X38020000Y-97650000D03*
X38020000Y-100190000D03*
X38020000Y-102730000D03*
X38020000Y-105270000D03*
X38020000Y-107810000D03*
X38020000Y-110350000D03*
X38020000Y-112890000D03*
X38020000Y-115430000D03*
X38020000Y-117970000D03*
X38020000Y-120510000D03*
X38020000Y-123050000D03*
X38020000Y-125590000D03*
X38020000Y-128130000D03*
X57600000Y-128130000D03*
X57600000Y-125590000D03*
X57600000Y-123050000D03*
X57600000Y-120510000D03*
X57600000Y-117970000D03*
X57600000Y-115430000D03*
X57600000Y-112890000D03*
X57600000Y-110350000D03*
X57600000Y-107810000D03*
X57600000Y-105270000D03*
X57600000Y-102730000D03*
X57600000Y-100190000D03*
X57600000Y-97650000D03*
X57600000Y-95110000D03*
X57600000Y-92570000D03*
X57600000Y-90030000D03*
X57600000Y-87490000D03*
X57600000Y-84950000D03*
X57600000Y-82410000D03*
X57600000Y-79870000D03*
G04 #@! TD*
D10*
G04 #@! TO.C,U37*
X120228000Y-105640000D03*
X121625000Y-105640000D03*
X120926500Y-103658800D03*
G04 #@! TD*
G04 #@! TO.C,U4*
X164522000Y-90640000D03*
X163125000Y-90640000D03*
X163823500Y-92621200D03*
G04 #@! TD*
D12*
G04 #@! TO.C,R22*
X92625000Y-89640000D03*
X92625000Y-87990000D03*
G04 #@! TD*
D10*
G04 #@! TO.C,U62*
X200228000Y-109640000D03*
X201625000Y-109640000D03*
X200926500Y-107658800D03*
G04 #@! TD*
D31*
G04 #@! TO.C,C5*
X235550000Y-119000000D03*
X234000000Y-119000000D03*
G04 #@! TD*
D10*
G04 #@! TO.C,U59*
X213625000Y-88640000D03*
X212228000Y-88640000D03*
X212926500Y-90621200D03*
G04 #@! TD*
G04 #@! TO.C,U51*
X176125000Y-91140000D03*
X174728000Y-91140000D03*
X175426500Y-93121200D03*
G04 #@! TD*
G04 #@! TO.C,U24*
X91228000Y-105640000D03*
X92625000Y-105640000D03*
X91926500Y-103658800D03*
G04 #@! TD*
G04 #@! TO.C,U57*
X217625000Y-105640000D03*
X219022000Y-105640000D03*
X218323500Y-103658800D03*
G04 #@! TD*
G04 #@! TO.C,U34*
X133625000Y-87640000D03*
X132228000Y-87640000D03*
X132926500Y-89621200D03*
G04 #@! TD*
D12*
G04 #@! TO.C,R78*
X75125000Y-86140000D03*
X75125000Y-84490000D03*
G04 #@! TD*
D10*
G04 #@! TO.C,U35*
X126228000Y-111640000D03*
X127625000Y-111640000D03*
X126926500Y-109658800D03*
G04 #@! TD*
D12*
G04 #@! TO.C,R48*
X181125000Y-86140000D03*
X181125000Y-84490000D03*
G04 #@! TD*
D11*
G04 #@! TO.C,R7*
X151725000Y-113490000D03*
X151725000Y-115140000D03*
G04 #@! TD*
D12*
G04 #@! TO.C,R24*
X99125000Y-86140000D03*
X99125000Y-84490000D03*
G04 #@! TD*
D32*
G04 #@! TO.C,V4*
X184000000Y-105500000D03*
D33*
X181444023Y-104870008D03*
X179473589Y-103124356D03*
X178540101Y-100662952D03*
X178857411Y-98049673D03*
X180352825Y-95883191D03*
X182683764Y-94659820D03*
X185316236Y-94659820D03*
X187647175Y-95883191D03*
X189142589Y-98049673D03*
X189459899Y-100662952D03*
X188526411Y-103124356D03*
X186555977Y-104870008D03*
G04 #@! TD*
D32*
G04 #@! TO.C,V5*
X208000000Y-105500000D03*
D33*
X205444023Y-104870008D03*
X203473589Y-103124356D03*
X202540101Y-100662952D03*
X202857411Y-98049673D03*
X204352825Y-95883191D03*
X206683764Y-94659820D03*
X209316236Y-94659820D03*
X211647175Y-95883191D03*
X213142589Y-98049673D03*
X213459899Y-100662952D03*
X212526411Y-103124356D03*
X210555977Y-104870008D03*
G04 #@! TD*
D32*
G04 #@! TO.C,V2*
X102000000Y-105500000D03*
D33*
X99444023Y-104870008D03*
X97473589Y-103124356D03*
X96540101Y-100662952D03*
X96857411Y-98049673D03*
X98352825Y-95883191D03*
X100683764Y-94659820D03*
X103316236Y-94659820D03*
X105647175Y-95883191D03*
X107142589Y-98049673D03*
X107459899Y-100662952D03*
X106526411Y-103124356D03*
X104555977Y-104870008D03*
G04 #@! TD*
D32*
G04 #@! TO.C,V6*
X78000000Y-105500000D03*
D33*
X75444023Y-104870008D03*
X73473589Y-103124356D03*
X72540101Y-100662952D03*
X72857411Y-98049673D03*
X74352825Y-95883191D03*
X76683764Y-94659820D03*
X79316236Y-94659820D03*
X81647175Y-95883191D03*
X83142589Y-98049673D03*
X83459899Y-100662952D03*
X82526411Y-103124356D03*
X80555977Y-104870008D03*
G04 #@! TD*
D32*
G04 #@! TO.C,V1*
X155000000Y-105500000D03*
D33*
X152444023Y-104870008D03*
X150473589Y-103124356D03*
X149540101Y-100662952D03*
X149857411Y-98049673D03*
X151352825Y-95883191D03*
X153683764Y-94659820D03*
X156316236Y-94659820D03*
X158647175Y-95883191D03*
X160142589Y-98049673D03*
X160459899Y-100662952D03*
X159526411Y-103124356D03*
X157555977Y-104870008D03*
G04 #@! TD*
D32*
G04 #@! TO.C,V3*
X131000000Y-105500000D03*
D33*
X128444023Y-104870008D03*
X126473589Y-103124356D03*
X125540101Y-100662952D03*
X125857411Y-98049673D03*
X127352825Y-95883191D03*
X129683764Y-94659820D03*
X132316236Y-94659820D03*
X134647175Y-95883191D03*
X136142589Y-98049673D03*
X136459899Y-100662952D03*
X135526411Y-103124356D03*
X133555977Y-104870008D03*
G04 #@! TD*
M02*
