G04 #@! TF.GenerationSoftware,KiCad,Pcbnew,8.0.5+1*
G04 #@! TF.CreationDate,2024-11-03T00:00:47+00:00*
G04 #@! TF.ProjectId,nixie_clock,6e697869-655f-4636-9c6f-636b2e6b6963,rev?*
G04 #@! TF.SameCoordinates,Original*
G04 #@! TF.FileFunction,Other,Comment*
%FSLAX46Y46*%
G04 Gerber Fmt 4.6, Leading zero omitted, Abs format (unit mm)*
G04 Created by KiCad (PCBNEW 8.0.5+1) date 2024-11-03 00:00:47*
%MOMM*%
%LPD*%
G01*
G04 APERTURE LIST*
%ADD10C,0.150000*%
G04 APERTURE END LIST*
D10*
X33909997Y-74159580D02*
X33862378Y-74207200D01*
X33862378Y-74207200D02*
X33719521Y-74254819D01*
X33719521Y-74254819D02*
X33624283Y-74254819D01*
X33624283Y-74254819D02*
X33481426Y-74207200D01*
X33481426Y-74207200D02*
X33386188Y-74111961D01*
X33386188Y-74111961D02*
X33338569Y-74016723D01*
X33338569Y-74016723D02*
X33290950Y-73826247D01*
X33290950Y-73826247D02*
X33290950Y-73683390D01*
X33290950Y-73683390D02*
X33338569Y-73492914D01*
X33338569Y-73492914D02*
X33386188Y-73397676D01*
X33386188Y-73397676D02*
X33481426Y-73302438D01*
X33481426Y-73302438D02*
X33624283Y-73254819D01*
X33624283Y-73254819D02*
X33719521Y-73254819D01*
X33719521Y-73254819D02*
X33862378Y-73302438D01*
X33862378Y-73302438D02*
X33909997Y-73350057D01*
X34481426Y-74254819D02*
X34386188Y-74207200D01*
X34386188Y-74207200D02*
X34338569Y-74159580D01*
X34338569Y-74159580D02*
X34290950Y-74064342D01*
X34290950Y-74064342D02*
X34290950Y-73778628D01*
X34290950Y-73778628D02*
X34338569Y-73683390D01*
X34338569Y-73683390D02*
X34386188Y-73635771D01*
X34386188Y-73635771D02*
X34481426Y-73588152D01*
X34481426Y-73588152D02*
X34624283Y-73588152D01*
X34624283Y-73588152D02*
X34719521Y-73635771D01*
X34719521Y-73635771D02*
X34767140Y-73683390D01*
X34767140Y-73683390D02*
X34814759Y-73778628D01*
X34814759Y-73778628D02*
X34814759Y-74064342D01*
X34814759Y-74064342D02*
X34767140Y-74159580D01*
X34767140Y-74159580D02*
X34719521Y-74207200D01*
X34719521Y-74207200D02*
X34624283Y-74254819D01*
X34624283Y-74254819D02*
X34481426Y-74254819D01*
X35243331Y-73588152D02*
X35243331Y-74588152D01*
X35243331Y-73635771D02*
X35338569Y-73588152D01*
X35338569Y-73588152D02*
X35529045Y-73588152D01*
X35529045Y-73588152D02*
X35624283Y-73635771D01*
X35624283Y-73635771D02*
X35671902Y-73683390D01*
X35671902Y-73683390D02*
X35719521Y-73778628D01*
X35719521Y-73778628D02*
X35719521Y-74064342D01*
X35719521Y-74064342D02*
X35671902Y-74159580D01*
X35671902Y-74159580D02*
X35624283Y-74207200D01*
X35624283Y-74207200D02*
X35529045Y-74254819D01*
X35529045Y-74254819D02*
X35338569Y-74254819D01*
X35338569Y-74254819D02*
X35243331Y-74207200D01*
X36148093Y-73588152D02*
X36148093Y-74588152D01*
X36148093Y-73635771D02*
X36243331Y-73588152D01*
X36243331Y-73588152D02*
X36433807Y-73588152D01*
X36433807Y-73588152D02*
X36529045Y-73635771D01*
X36529045Y-73635771D02*
X36576664Y-73683390D01*
X36576664Y-73683390D02*
X36624283Y-73778628D01*
X36624283Y-73778628D02*
X36624283Y-74064342D01*
X36624283Y-74064342D02*
X36576664Y-74159580D01*
X36576664Y-74159580D02*
X36529045Y-74207200D01*
X36529045Y-74207200D02*
X36433807Y-74254819D01*
X36433807Y-74254819D02*
X36243331Y-74254819D01*
X36243331Y-74254819D02*
X36148093Y-74207200D01*
X37433807Y-74207200D02*
X37338569Y-74254819D01*
X37338569Y-74254819D02*
X37148093Y-74254819D01*
X37148093Y-74254819D02*
X37052855Y-74207200D01*
X37052855Y-74207200D02*
X37005236Y-74111961D01*
X37005236Y-74111961D02*
X37005236Y-73731009D01*
X37005236Y-73731009D02*
X37052855Y-73635771D01*
X37052855Y-73635771D02*
X37148093Y-73588152D01*
X37148093Y-73588152D02*
X37338569Y-73588152D01*
X37338569Y-73588152D02*
X37433807Y-73635771D01*
X37433807Y-73635771D02*
X37481426Y-73731009D01*
X37481426Y-73731009D02*
X37481426Y-73826247D01*
X37481426Y-73826247D02*
X37005236Y-73921485D01*
X37909998Y-74254819D02*
X37909998Y-73588152D01*
X37909998Y-73778628D02*
X37957617Y-73683390D01*
X37957617Y-73683390D02*
X38005236Y-73635771D01*
X38005236Y-73635771D02*
X38100474Y-73588152D01*
X38100474Y-73588152D02*
X38195712Y-73588152D01*
X39290951Y-74254819D02*
X39290951Y-73254819D01*
X39862379Y-74254819D02*
X39433808Y-73683390D01*
X39862379Y-73254819D02*
X39290951Y-73826247D01*
X40671903Y-74207200D02*
X40576665Y-74254819D01*
X40576665Y-74254819D02*
X40386189Y-74254819D01*
X40386189Y-74254819D02*
X40290951Y-74207200D01*
X40290951Y-74207200D02*
X40243332Y-74111961D01*
X40243332Y-74111961D02*
X40243332Y-73731009D01*
X40243332Y-73731009D02*
X40290951Y-73635771D01*
X40290951Y-73635771D02*
X40386189Y-73588152D01*
X40386189Y-73588152D02*
X40576665Y-73588152D01*
X40576665Y-73588152D02*
X40671903Y-73635771D01*
X40671903Y-73635771D02*
X40719522Y-73731009D01*
X40719522Y-73731009D02*
X40719522Y-73826247D01*
X40719522Y-73826247D02*
X40243332Y-73921485D01*
X41529046Y-74207200D02*
X41433808Y-74254819D01*
X41433808Y-74254819D02*
X41243332Y-74254819D01*
X41243332Y-74254819D02*
X41148094Y-74207200D01*
X41148094Y-74207200D02*
X41100475Y-74111961D01*
X41100475Y-74111961D02*
X41100475Y-73731009D01*
X41100475Y-73731009D02*
X41148094Y-73635771D01*
X41148094Y-73635771D02*
X41243332Y-73588152D01*
X41243332Y-73588152D02*
X41433808Y-73588152D01*
X41433808Y-73588152D02*
X41529046Y-73635771D01*
X41529046Y-73635771D02*
X41576665Y-73731009D01*
X41576665Y-73731009D02*
X41576665Y-73826247D01*
X41576665Y-73826247D02*
X41100475Y-73921485D01*
X42005237Y-73588152D02*
X42005237Y-74588152D01*
X42005237Y-73635771D02*
X42100475Y-73588152D01*
X42100475Y-73588152D02*
X42290951Y-73588152D01*
X42290951Y-73588152D02*
X42386189Y-73635771D01*
X42386189Y-73635771D02*
X42433808Y-73683390D01*
X42433808Y-73683390D02*
X42481427Y-73778628D01*
X42481427Y-73778628D02*
X42481427Y-74064342D01*
X42481427Y-74064342D02*
X42433808Y-74159580D01*
X42433808Y-74159580D02*
X42386189Y-74207200D01*
X42386189Y-74207200D02*
X42290951Y-74254819D01*
X42290951Y-74254819D02*
X42100475Y-74254819D01*
X42100475Y-74254819D02*
X42005237Y-74207200D01*
X43052856Y-74254819D02*
X42957618Y-74207200D01*
X42957618Y-74207200D02*
X42909999Y-74159580D01*
X42909999Y-74159580D02*
X42862380Y-74064342D01*
X42862380Y-74064342D02*
X42862380Y-73778628D01*
X42862380Y-73778628D02*
X42909999Y-73683390D01*
X42909999Y-73683390D02*
X42957618Y-73635771D01*
X42957618Y-73635771D02*
X43052856Y-73588152D01*
X43052856Y-73588152D02*
X43195713Y-73588152D01*
X43195713Y-73588152D02*
X43290951Y-73635771D01*
X43290951Y-73635771D02*
X43338570Y-73683390D01*
X43338570Y-73683390D02*
X43386189Y-73778628D01*
X43386189Y-73778628D02*
X43386189Y-74064342D01*
X43386189Y-74064342D02*
X43338570Y-74159580D01*
X43338570Y-74159580D02*
X43290951Y-74207200D01*
X43290951Y-74207200D02*
X43195713Y-74254819D01*
X43195713Y-74254819D02*
X43052856Y-74254819D01*
X44243332Y-73588152D02*
X44243332Y-74254819D01*
X43814761Y-73588152D02*
X43814761Y-74111961D01*
X43814761Y-74111961D02*
X43862380Y-74207200D01*
X43862380Y-74207200D02*
X43957618Y-74254819D01*
X43957618Y-74254819D02*
X44100475Y-74254819D01*
X44100475Y-74254819D02*
X44195713Y-74207200D01*
X44195713Y-74207200D02*
X44243332Y-74159580D01*
X44576666Y-73588152D02*
X44957618Y-73588152D01*
X44719523Y-73254819D02*
X44719523Y-74111961D01*
X44719523Y-74111961D02*
X44767142Y-74207200D01*
X44767142Y-74207200D02*
X44862380Y-74254819D01*
X44862380Y-74254819D02*
X44957618Y-74254819D01*
X45243333Y-74207200D02*
X45338571Y-74254819D01*
X45338571Y-74254819D02*
X45529047Y-74254819D01*
X45529047Y-74254819D02*
X45624285Y-74207200D01*
X45624285Y-74207200D02*
X45671904Y-74111961D01*
X45671904Y-74111961D02*
X45671904Y-74064342D01*
X45671904Y-74064342D02*
X45624285Y-73969104D01*
X45624285Y-73969104D02*
X45529047Y-73921485D01*
X45529047Y-73921485D02*
X45386190Y-73921485D01*
X45386190Y-73921485D02*
X45290952Y-73873866D01*
X45290952Y-73873866D02*
X45243333Y-73778628D01*
X45243333Y-73778628D02*
X45243333Y-73731009D01*
X45243333Y-73731009D02*
X45290952Y-73635771D01*
X45290952Y-73635771D02*
X45386190Y-73588152D01*
X45386190Y-73588152D02*
X45529047Y-73588152D01*
X45529047Y-73588152D02*
X45624285Y-73635771D01*
X46814762Y-74207200D02*
X46910000Y-74254819D01*
X46910000Y-74254819D02*
X47100476Y-74254819D01*
X47100476Y-74254819D02*
X47195714Y-74207200D01*
X47195714Y-74207200D02*
X47243333Y-74111961D01*
X47243333Y-74111961D02*
X47243333Y-74064342D01*
X47243333Y-74064342D02*
X47195714Y-73969104D01*
X47195714Y-73969104D02*
X47100476Y-73921485D01*
X47100476Y-73921485D02*
X46957619Y-73921485D01*
X46957619Y-73921485D02*
X46862381Y-73873866D01*
X46862381Y-73873866D02*
X46814762Y-73778628D01*
X46814762Y-73778628D02*
X46814762Y-73731009D01*
X46814762Y-73731009D02*
X46862381Y-73635771D01*
X46862381Y-73635771D02*
X46957619Y-73588152D01*
X46957619Y-73588152D02*
X47100476Y-73588152D01*
X47100476Y-73588152D02*
X47195714Y-73635771D01*
X47671905Y-74254819D02*
X47671905Y-73254819D01*
X48100476Y-74254819D02*
X48100476Y-73731009D01*
X48100476Y-73731009D02*
X48052857Y-73635771D01*
X48052857Y-73635771D02*
X47957619Y-73588152D01*
X47957619Y-73588152D02*
X47814762Y-73588152D01*
X47814762Y-73588152D02*
X47719524Y-73635771D01*
X47719524Y-73635771D02*
X47671905Y-73683390D01*
X48719524Y-74254819D02*
X48624286Y-74207200D01*
X48624286Y-74207200D02*
X48576667Y-74159580D01*
X48576667Y-74159580D02*
X48529048Y-74064342D01*
X48529048Y-74064342D02*
X48529048Y-73778628D01*
X48529048Y-73778628D02*
X48576667Y-73683390D01*
X48576667Y-73683390D02*
X48624286Y-73635771D01*
X48624286Y-73635771D02*
X48719524Y-73588152D01*
X48719524Y-73588152D02*
X48862381Y-73588152D01*
X48862381Y-73588152D02*
X48957619Y-73635771D01*
X48957619Y-73635771D02*
X49005238Y-73683390D01*
X49005238Y-73683390D02*
X49052857Y-73778628D01*
X49052857Y-73778628D02*
X49052857Y-74064342D01*
X49052857Y-74064342D02*
X49005238Y-74159580D01*
X49005238Y-74159580D02*
X48957619Y-74207200D01*
X48957619Y-74207200D02*
X48862381Y-74254819D01*
X48862381Y-74254819D02*
X48719524Y-74254819D01*
X49386191Y-73588152D02*
X49576667Y-74254819D01*
X49576667Y-74254819D02*
X49767143Y-73778628D01*
X49767143Y-73778628D02*
X49957619Y-74254819D01*
X49957619Y-74254819D02*
X50148095Y-73588152D01*
X50529048Y-73588152D02*
X50529048Y-74254819D01*
X50529048Y-73683390D02*
X50576667Y-73635771D01*
X50576667Y-73635771D02*
X50671905Y-73588152D01*
X50671905Y-73588152D02*
X50814762Y-73588152D01*
X50814762Y-73588152D02*
X50910000Y-73635771D01*
X50910000Y-73635771D02*
X50957619Y-73731009D01*
X50957619Y-73731009D02*
X50957619Y-74254819D01*
X52338572Y-74254819D02*
X52243334Y-74207200D01*
X52243334Y-74207200D02*
X52195715Y-74159580D01*
X52195715Y-74159580D02*
X52148096Y-74064342D01*
X52148096Y-74064342D02*
X52148096Y-73778628D01*
X52148096Y-73778628D02*
X52195715Y-73683390D01*
X52195715Y-73683390D02*
X52243334Y-73635771D01*
X52243334Y-73635771D02*
X52338572Y-73588152D01*
X52338572Y-73588152D02*
X52481429Y-73588152D01*
X52481429Y-73588152D02*
X52576667Y-73635771D01*
X52576667Y-73635771D02*
X52624286Y-73683390D01*
X52624286Y-73683390D02*
X52671905Y-73778628D01*
X52671905Y-73778628D02*
X52671905Y-74064342D01*
X52671905Y-74064342D02*
X52624286Y-74159580D01*
X52624286Y-74159580D02*
X52576667Y-74207200D01*
X52576667Y-74207200D02*
X52481429Y-74254819D01*
X52481429Y-74254819D02*
X52338572Y-74254819D01*
X53100477Y-73588152D02*
X53100477Y-74254819D01*
X53100477Y-73683390D02*
X53148096Y-73635771D01*
X53148096Y-73635771D02*
X53243334Y-73588152D01*
X53243334Y-73588152D02*
X53386191Y-73588152D01*
X53386191Y-73588152D02*
X53481429Y-73635771D01*
X53481429Y-73635771D02*
X53529048Y-73731009D01*
X53529048Y-73731009D02*
X53529048Y-74254819D01*
X54767144Y-74254819D02*
X54767144Y-73254819D01*
X54767144Y-73254819D02*
X55005239Y-73254819D01*
X55005239Y-73254819D02*
X55148096Y-73302438D01*
X55148096Y-73302438D02*
X55243334Y-73397676D01*
X55243334Y-73397676D02*
X55290953Y-73492914D01*
X55290953Y-73492914D02*
X55338572Y-73683390D01*
X55338572Y-73683390D02*
X55338572Y-73826247D01*
X55338572Y-73826247D02*
X55290953Y-74016723D01*
X55290953Y-74016723D02*
X55243334Y-74111961D01*
X55243334Y-74111961D02*
X55148096Y-74207200D01*
X55148096Y-74207200D02*
X55005239Y-74254819D01*
X55005239Y-74254819D02*
X54767144Y-74254819D01*
X55671906Y-73588152D02*
X55862382Y-74254819D01*
X55862382Y-74254819D02*
X56052858Y-73778628D01*
X56052858Y-73778628D02*
X56243334Y-74254819D01*
X56243334Y-74254819D02*
X56433810Y-73588152D01*
X57243334Y-73588152D02*
X57243334Y-74397676D01*
X57243334Y-74397676D02*
X57195715Y-74492914D01*
X57195715Y-74492914D02*
X57148096Y-74540533D01*
X57148096Y-74540533D02*
X57052858Y-74588152D01*
X57052858Y-74588152D02*
X56910001Y-74588152D01*
X56910001Y-74588152D02*
X56814763Y-74540533D01*
X57243334Y-74207200D02*
X57148096Y-74254819D01*
X57148096Y-74254819D02*
X56957620Y-74254819D01*
X56957620Y-74254819D02*
X56862382Y-74207200D01*
X56862382Y-74207200D02*
X56814763Y-74159580D01*
X56814763Y-74159580D02*
X56767144Y-74064342D01*
X56767144Y-74064342D02*
X56767144Y-73778628D01*
X56767144Y-73778628D02*
X56814763Y-73683390D01*
X56814763Y-73683390D02*
X56862382Y-73635771D01*
X56862382Y-73635771D02*
X56957620Y-73588152D01*
X56957620Y-73588152D02*
X57148096Y-73588152D01*
X57148096Y-73588152D02*
X57243334Y-73635771D01*
X57671906Y-74207200D02*
X57767144Y-74254819D01*
X57767144Y-74254819D02*
X57957620Y-74254819D01*
X57957620Y-74254819D02*
X58052858Y-74207200D01*
X58052858Y-74207200D02*
X58100477Y-74111961D01*
X58100477Y-74111961D02*
X58100477Y-74064342D01*
X58100477Y-74064342D02*
X58052858Y-73969104D01*
X58052858Y-73969104D02*
X57957620Y-73921485D01*
X57957620Y-73921485D02*
X57814763Y-73921485D01*
X57814763Y-73921485D02*
X57719525Y-73873866D01*
X57719525Y-73873866D02*
X57671906Y-73778628D01*
X57671906Y-73778628D02*
X57671906Y-73731009D01*
X57671906Y-73731009D02*
X57719525Y-73635771D01*
X57719525Y-73635771D02*
X57814763Y-73588152D01*
X57814763Y-73588152D02*
X57957620Y-73588152D01*
X57957620Y-73588152D02*
X58052858Y-73635771D01*
X59433811Y-74254819D02*
X59338573Y-74207200D01*
X59338573Y-74207200D02*
X59290954Y-74111961D01*
X59290954Y-74111961D02*
X59290954Y-73254819D01*
X60243335Y-74254819D02*
X60243335Y-73731009D01*
X60243335Y-73731009D02*
X60195716Y-73635771D01*
X60195716Y-73635771D02*
X60100478Y-73588152D01*
X60100478Y-73588152D02*
X59910002Y-73588152D01*
X59910002Y-73588152D02*
X59814764Y-73635771D01*
X60243335Y-74207200D02*
X60148097Y-74254819D01*
X60148097Y-74254819D02*
X59910002Y-74254819D01*
X59910002Y-74254819D02*
X59814764Y-74207200D01*
X59814764Y-74207200D02*
X59767145Y-74111961D01*
X59767145Y-74111961D02*
X59767145Y-74016723D01*
X59767145Y-74016723D02*
X59814764Y-73921485D01*
X59814764Y-73921485D02*
X59910002Y-73873866D01*
X59910002Y-73873866D02*
X60148097Y-73873866D01*
X60148097Y-73873866D02*
X60243335Y-73826247D01*
X60624288Y-73588152D02*
X60862383Y-74254819D01*
X61100478Y-73588152D02*
X60862383Y-74254819D01*
X60862383Y-74254819D02*
X60767145Y-74492914D01*
X60767145Y-74492914D02*
X60719526Y-74540533D01*
X60719526Y-74540533D02*
X60624288Y-74588152D01*
X61862383Y-74207200D02*
X61767145Y-74254819D01*
X61767145Y-74254819D02*
X61576669Y-74254819D01*
X61576669Y-74254819D02*
X61481431Y-74207200D01*
X61481431Y-74207200D02*
X61433812Y-74111961D01*
X61433812Y-74111961D02*
X61433812Y-73731009D01*
X61433812Y-73731009D02*
X61481431Y-73635771D01*
X61481431Y-73635771D02*
X61576669Y-73588152D01*
X61576669Y-73588152D02*
X61767145Y-73588152D01*
X61767145Y-73588152D02*
X61862383Y-73635771D01*
X61862383Y-73635771D02*
X61910002Y-73731009D01*
X61910002Y-73731009D02*
X61910002Y-73826247D01*
X61910002Y-73826247D02*
X61433812Y-73921485D01*
X62338574Y-74254819D02*
X62338574Y-73588152D01*
X62338574Y-73778628D02*
X62386193Y-73683390D01*
X62386193Y-73683390D02*
X62433812Y-73635771D01*
X62433812Y-73635771D02*
X62529050Y-73588152D01*
X62529050Y-73588152D02*
X62624288Y-73588152D01*
M02*
