G04 #@! TF.GenerationSoftware,KiCad,Pcbnew,8.0.5+1*
G04 #@! TF.CreationDate,2024-11-03T00:00:47+00:00*
G04 #@! TF.ProjectId,nixie_clock,6e697869-655f-4636-9c6f-636b2e6b6963,rev?*
G04 #@! TF.SameCoordinates,Original*
G04 #@! TF.FileFunction,AssemblyDrawing,Bot*
%FSLAX46Y46*%
G04 Gerber Fmt 4.6, Leading zero omitted, Abs format (unit mm)*
G04 Created by KiCad (PCBNEW 8.0.5+1) date 2024-11-03 00:00:47*
%MOMM*%
%LPD*%
G01*
G04 APERTURE LIST*
%ADD10C,0.150000*%
G04 APERTURE END LIST*
D10*
X182523810Y-98545180D02*
X182523810Y-99545180D01*
X183000000Y-98545180D02*
X183000000Y-99545180D01*
X183000000Y-99545180D02*
X183571428Y-98545180D01*
X183571428Y-98545180D02*
X183571428Y-99545180D01*
X184571428Y-98545180D02*
X184000000Y-98545180D01*
X184285714Y-98545180D02*
X184285714Y-99545180D01*
X184285714Y-99545180D02*
X184190476Y-99402323D01*
X184190476Y-99402323D02*
X184095238Y-99307085D01*
X184095238Y-99307085D02*
X184000000Y-99259466D01*
X185428571Y-99211847D02*
X185428571Y-98545180D01*
X185190476Y-99592800D02*
X184952381Y-98878514D01*
X184952381Y-98878514D02*
X185571428Y-98878514D01*
X183190476Y-98045180D02*
X183523809Y-97045180D01*
X183523809Y-97045180D02*
X183857142Y-98045180D01*
X184619047Y-97711847D02*
X184619047Y-97045180D01*
X184380952Y-98092800D02*
X184142857Y-97378514D01*
X184142857Y-97378514D02*
X184761904Y-97378514D01*
X206523810Y-98545180D02*
X206523810Y-99545180D01*
X207000000Y-98545180D02*
X207000000Y-99545180D01*
X207000000Y-99545180D02*
X207571428Y-98545180D01*
X207571428Y-98545180D02*
X207571428Y-99545180D01*
X208571428Y-98545180D02*
X208000000Y-98545180D01*
X208285714Y-98545180D02*
X208285714Y-99545180D01*
X208285714Y-99545180D02*
X208190476Y-99402323D01*
X208190476Y-99402323D02*
X208095238Y-99307085D01*
X208095238Y-99307085D02*
X208000000Y-99259466D01*
X209428571Y-99211847D02*
X209428571Y-98545180D01*
X209190476Y-99592800D02*
X208952381Y-98878514D01*
X208952381Y-98878514D02*
X209571428Y-98878514D01*
X207190476Y-98045180D02*
X207523809Y-97045180D01*
X207523809Y-97045180D02*
X207857142Y-98045180D01*
X208666666Y-98045180D02*
X208190476Y-98045180D01*
X208190476Y-98045180D02*
X208142857Y-97568990D01*
X208142857Y-97568990D02*
X208190476Y-97616609D01*
X208190476Y-97616609D02*
X208285714Y-97664228D01*
X208285714Y-97664228D02*
X208523809Y-97664228D01*
X208523809Y-97664228D02*
X208619047Y-97616609D01*
X208619047Y-97616609D02*
X208666666Y-97568990D01*
X208666666Y-97568990D02*
X208714285Y-97473752D01*
X208714285Y-97473752D02*
X208714285Y-97235657D01*
X208714285Y-97235657D02*
X208666666Y-97140419D01*
X208666666Y-97140419D02*
X208619047Y-97092800D01*
X208619047Y-97092800D02*
X208523809Y-97045180D01*
X208523809Y-97045180D02*
X208285714Y-97045180D01*
X208285714Y-97045180D02*
X208190476Y-97092800D01*
X208190476Y-97092800D02*
X208142857Y-97140419D01*
X100523810Y-98545180D02*
X100523810Y-99545180D01*
X101000000Y-98545180D02*
X101000000Y-99545180D01*
X101000000Y-99545180D02*
X101571428Y-98545180D01*
X101571428Y-98545180D02*
X101571428Y-99545180D01*
X102571428Y-98545180D02*
X102000000Y-98545180D01*
X102285714Y-98545180D02*
X102285714Y-99545180D01*
X102285714Y-99545180D02*
X102190476Y-99402323D01*
X102190476Y-99402323D02*
X102095238Y-99307085D01*
X102095238Y-99307085D02*
X102000000Y-99259466D01*
X103428571Y-99211847D02*
X103428571Y-98545180D01*
X103190476Y-99592800D02*
X102952381Y-98878514D01*
X102952381Y-98878514D02*
X103571428Y-98878514D01*
X101190476Y-98045180D02*
X101523809Y-97045180D01*
X101523809Y-97045180D02*
X101857142Y-98045180D01*
X102142857Y-97949942D02*
X102190476Y-97997561D01*
X102190476Y-97997561D02*
X102285714Y-98045180D01*
X102285714Y-98045180D02*
X102523809Y-98045180D01*
X102523809Y-98045180D02*
X102619047Y-97997561D01*
X102619047Y-97997561D02*
X102666666Y-97949942D01*
X102666666Y-97949942D02*
X102714285Y-97854704D01*
X102714285Y-97854704D02*
X102714285Y-97759466D01*
X102714285Y-97759466D02*
X102666666Y-97616609D01*
X102666666Y-97616609D02*
X102095238Y-97045180D01*
X102095238Y-97045180D02*
X102714285Y-97045180D01*
X76523810Y-98545180D02*
X76523810Y-99545180D01*
X77000000Y-98545180D02*
X77000000Y-99545180D01*
X77000000Y-99545180D02*
X77571428Y-98545180D01*
X77571428Y-98545180D02*
X77571428Y-99545180D01*
X78571428Y-98545180D02*
X78000000Y-98545180D01*
X78285714Y-98545180D02*
X78285714Y-99545180D01*
X78285714Y-99545180D02*
X78190476Y-99402323D01*
X78190476Y-99402323D02*
X78095238Y-99307085D01*
X78095238Y-99307085D02*
X78000000Y-99259466D01*
X79428571Y-99211847D02*
X79428571Y-98545180D01*
X79190476Y-99592800D02*
X78952381Y-98878514D01*
X78952381Y-98878514D02*
X79571428Y-98878514D01*
X77190476Y-98045180D02*
X77523809Y-97045180D01*
X77523809Y-97045180D02*
X77857142Y-98045180D01*
X78619047Y-98045180D02*
X78428571Y-98045180D01*
X78428571Y-98045180D02*
X78333333Y-97997561D01*
X78333333Y-97997561D02*
X78285714Y-97949942D01*
X78285714Y-97949942D02*
X78190476Y-97807085D01*
X78190476Y-97807085D02*
X78142857Y-97616609D01*
X78142857Y-97616609D02*
X78142857Y-97235657D01*
X78142857Y-97235657D02*
X78190476Y-97140419D01*
X78190476Y-97140419D02*
X78238095Y-97092800D01*
X78238095Y-97092800D02*
X78333333Y-97045180D01*
X78333333Y-97045180D02*
X78523809Y-97045180D01*
X78523809Y-97045180D02*
X78619047Y-97092800D01*
X78619047Y-97092800D02*
X78666666Y-97140419D01*
X78666666Y-97140419D02*
X78714285Y-97235657D01*
X78714285Y-97235657D02*
X78714285Y-97473752D01*
X78714285Y-97473752D02*
X78666666Y-97568990D01*
X78666666Y-97568990D02*
X78619047Y-97616609D01*
X78619047Y-97616609D02*
X78523809Y-97664228D01*
X78523809Y-97664228D02*
X78333333Y-97664228D01*
X78333333Y-97664228D02*
X78238095Y-97616609D01*
X78238095Y-97616609D02*
X78190476Y-97568990D01*
X78190476Y-97568990D02*
X78142857Y-97473752D01*
X153523810Y-98545180D02*
X153523810Y-99545180D01*
X154000000Y-98545180D02*
X154000000Y-99545180D01*
X154000000Y-99545180D02*
X154571428Y-98545180D01*
X154571428Y-98545180D02*
X154571428Y-99545180D01*
X155571428Y-98545180D02*
X155000000Y-98545180D01*
X155285714Y-98545180D02*
X155285714Y-99545180D01*
X155285714Y-99545180D02*
X155190476Y-99402323D01*
X155190476Y-99402323D02*
X155095238Y-99307085D01*
X155095238Y-99307085D02*
X155000000Y-99259466D01*
X156428571Y-99211847D02*
X156428571Y-98545180D01*
X156190476Y-99592800D02*
X155952381Y-98878514D01*
X155952381Y-98878514D02*
X156571428Y-98878514D01*
X154190476Y-98045180D02*
X154523809Y-97045180D01*
X154523809Y-97045180D02*
X154857142Y-98045180D01*
X155714285Y-97045180D02*
X155142857Y-97045180D01*
X155428571Y-97045180D02*
X155428571Y-98045180D01*
X155428571Y-98045180D02*
X155333333Y-97902323D01*
X155333333Y-97902323D02*
X155238095Y-97807085D01*
X155238095Y-97807085D02*
X155142857Y-97759466D01*
X129523810Y-98545180D02*
X129523810Y-99545180D01*
X130000000Y-98545180D02*
X130000000Y-99545180D01*
X130000000Y-99545180D02*
X130571428Y-98545180D01*
X130571428Y-98545180D02*
X130571428Y-99545180D01*
X131571428Y-98545180D02*
X131000000Y-98545180D01*
X131285714Y-98545180D02*
X131285714Y-99545180D01*
X131285714Y-99545180D02*
X131190476Y-99402323D01*
X131190476Y-99402323D02*
X131095238Y-99307085D01*
X131095238Y-99307085D02*
X131000000Y-99259466D01*
X132428571Y-99211847D02*
X132428571Y-98545180D01*
X132190476Y-99592800D02*
X131952381Y-98878514D01*
X131952381Y-98878514D02*
X132571428Y-98878514D01*
X130190476Y-98045180D02*
X130523809Y-97045180D01*
X130523809Y-97045180D02*
X130857142Y-98045180D01*
X131095238Y-98045180D02*
X131714285Y-98045180D01*
X131714285Y-98045180D02*
X131380952Y-97664228D01*
X131380952Y-97664228D02*
X131523809Y-97664228D01*
X131523809Y-97664228D02*
X131619047Y-97616609D01*
X131619047Y-97616609D02*
X131666666Y-97568990D01*
X131666666Y-97568990D02*
X131714285Y-97473752D01*
X131714285Y-97473752D02*
X131714285Y-97235657D01*
X131714285Y-97235657D02*
X131666666Y-97140419D01*
X131666666Y-97140419D02*
X131619047Y-97092800D01*
X131619047Y-97092800D02*
X131523809Y-97045180D01*
X131523809Y-97045180D02*
X131238095Y-97045180D01*
X131238095Y-97045180D02*
X131142857Y-97092800D01*
X131142857Y-97092800D02*
X131095238Y-97140419D01*
M02*
