G04 #@! TF.GenerationSoftware,KiCad,Pcbnew,8.0.5+1*
G04 #@! TF.CreationDate,2024-11-03T00:00:47+00:00*
G04 #@! TF.ProjectId,nixie_clock,6e697869-655f-4636-9c6f-636b2e6b6963,rev?*
G04 #@! TF.SameCoordinates,Original*
G04 #@! TF.FileFunction,Legend,Bot*
G04 #@! TF.FilePolarity,Positive*
%FSLAX46Y46*%
G04 Gerber Fmt 4.6, Leading zero omitted, Abs format (unit mm)*
G04 Created by KiCad (PCBNEW 8.0.5+1) date 2024-11-03 00:00:47*
%MOMM*%
%LPD*%
G01*
G04 APERTURE LIST*
%ADD10C,0.100000*%
%ADD11O,1.800000X1.800000*%
%ADD12O,1.500000X1.500000*%
%ADD13O,2.000000X3.000000*%
%ADD14C,2.000000*%
G04 APERTURE END LIST*
D10*
X183190476Y-101042580D02*
X183523809Y-100042580D01*
X183523809Y-100042580D02*
X183857142Y-101042580D01*
X184619047Y-100709247D02*
X184619047Y-100042580D01*
X184380952Y-101090200D02*
X184142857Y-100375914D01*
X184142857Y-100375914D02*
X184761904Y-100375914D01*
X181584434Y-91194636D02*
X182046786Y-91080670D01*
X182046786Y-91080670D02*
X182206988Y-91531625D01*
X182206988Y-91531625D02*
X182149356Y-91496786D01*
X182149356Y-91496786D02*
X182045489Y-91473344D01*
X182045489Y-91473344D02*
X181814313Y-91530328D01*
X181814313Y-91530328D02*
X181733239Y-91599356D01*
X181733239Y-91599356D02*
X181698401Y-91656988D01*
X181698401Y-91656988D02*
X181674959Y-91760855D01*
X181674959Y-91760855D02*
X181731942Y-91992031D01*
X181731942Y-91992031D02*
X181800971Y-92073104D01*
X181800971Y-92073104D02*
X181858603Y-92107943D01*
X181858603Y-92107943D02*
X181962470Y-92131385D01*
X181962470Y-92131385D02*
X182193646Y-92074401D01*
X182193646Y-92074401D02*
X182274719Y-92005373D01*
X182274719Y-92005373D02*
X182309558Y-91947741D01*
X185999447Y-91092066D02*
X186184388Y-91137653D01*
X186184388Y-91137653D02*
X186265462Y-91206681D01*
X186265462Y-91206681D02*
X186300300Y-91264313D01*
X186300300Y-91264313D02*
X186358580Y-91425812D01*
X186358580Y-91425812D02*
X186359229Y-91622149D01*
X186359229Y-91622149D02*
X186268056Y-91992031D01*
X186268056Y-91992031D02*
X186199027Y-92073104D01*
X186199027Y-92073104D02*
X186141395Y-92107943D01*
X186141395Y-92107943D02*
X186037528Y-92131384D01*
X186037528Y-92131384D02*
X185852588Y-92085798D01*
X185852588Y-92085798D02*
X185771514Y-92016769D01*
X185771514Y-92016769D02*
X185736676Y-91959138D01*
X185736676Y-91959138D02*
X185713234Y-91855271D01*
X185713234Y-91855271D02*
X185770217Y-91624095D01*
X185770217Y-91624095D02*
X185839246Y-91543021D01*
X185839246Y-91543021D02*
X185896877Y-91508183D01*
X185896877Y-91508183D02*
X186000744Y-91484741D01*
X186000744Y-91484741D02*
X186185685Y-91530327D01*
X186185685Y-91530327D02*
X186266759Y-91599356D01*
X186266759Y-91599356D02*
X186301597Y-91656988D01*
X186301597Y-91656988D02*
X186325039Y-91760855D01*
X178025757Y-93543726D02*
X178467843Y-94042729D01*
X177951351Y-93100694D02*
X178603231Y-93477452D01*
X178603231Y-93477452D02*
X178139871Y-93887961D01*
X191484794Y-105224255D02*
X191538896Y-105145877D01*
X191538896Y-105145877D02*
X191553809Y-105040447D01*
X191553809Y-105040447D02*
X191541670Y-104974206D01*
X191541670Y-104974206D02*
X191490343Y-104880914D01*
X191490343Y-104880914D02*
X191360636Y-104733521D01*
X191360636Y-104733521D02*
X191164689Y-104598265D01*
X191164689Y-104598265D02*
X190980880Y-104529250D01*
X190980880Y-104529250D02*
X190875450Y-104514337D01*
X190875450Y-104514337D02*
X190809210Y-104526475D01*
X190809210Y-104526475D02*
X190715918Y-104577803D01*
X190715918Y-104577803D02*
X190661816Y-104656182D01*
X190661816Y-104656182D02*
X190646903Y-104761612D01*
X190646903Y-104761612D02*
X190659041Y-104827852D01*
X190659041Y-104827852D02*
X190710369Y-104921144D01*
X190710369Y-104921144D02*
X190840076Y-105068538D01*
X190840076Y-105068538D02*
X191036023Y-105203794D01*
X191036023Y-105203794D02*
X191219832Y-105272809D01*
X191219832Y-105272809D02*
X191325261Y-105287721D01*
X191325261Y-105287721D02*
X191391502Y-105275583D01*
X191391502Y-105275583D02*
X191484794Y-105224255D01*
X177473439Y-104852130D02*
X177148826Y-104381857D01*
X177311132Y-104616993D02*
X176488155Y-105185067D01*
X176488155Y-105185067D02*
X176551621Y-105025535D01*
X176551621Y-105025535D02*
X176575897Y-104893054D01*
X176575897Y-104893054D02*
X176560984Y-104787624D01*
X187652674Y-107369462D02*
X187588380Y-107349427D01*
X187588380Y-107349427D02*
X187439756Y-107373651D01*
X187439756Y-107373651D02*
X187355427Y-107417910D01*
X187355427Y-107417910D02*
X187251062Y-107526463D01*
X187251062Y-107526463D02*
X187210992Y-107655051D01*
X187210992Y-107655051D02*
X187213086Y-107761510D01*
X187213086Y-107761510D02*
X187259439Y-107952298D01*
X187259439Y-107952298D02*
X187325827Y-108078792D01*
X187325827Y-108078792D02*
X187456510Y-108225321D01*
X187456510Y-108225321D02*
X187542933Y-108287521D01*
X187542933Y-108287521D02*
X187671522Y-108327592D01*
X187671522Y-108327592D02*
X187820145Y-108303368D01*
X187820145Y-108303368D02*
X187904475Y-108259109D01*
X187904475Y-108259109D02*
X188008839Y-108150556D01*
X188008839Y-108150556D02*
X188028874Y-108086262D01*
X188493873Y-106820415D02*
X188420015Y-107396968D01*
X187987897Y-107085968D02*
X188452616Y-107971426D01*
X188452616Y-107971426D02*
X188789933Y-107794391D01*
X188789933Y-107794391D02*
X188852133Y-107707967D01*
X188852133Y-107707967D02*
X188872168Y-107643673D01*
X188872168Y-107643673D02*
X188870074Y-107537214D01*
X188870074Y-107537214D02*
X188803686Y-107410720D01*
X188803686Y-107410720D02*
X188717262Y-107348520D01*
X188717262Y-107348520D02*
X188652968Y-107328485D01*
X188652968Y-107328485D02*
X188546509Y-107330579D01*
X188546509Y-107330579D02*
X188209192Y-107507615D01*
X192045359Y-101168759D02*
X192068321Y-100979672D01*
X192068321Y-100979672D02*
X192127074Y-100890869D01*
X192127074Y-100890869D02*
X192180086Y-100849338D01*
X192180086Y-100849338D02*
X192333383Y-100772016D01*
X192333383Y-100772016D02*
X192528211Y-100747707D01*
X192528211Y-100747707D02*
X192906385Y-100793632D01*
X192906385Y-100793632D02*
X192995187Y-100852385D01*
X192995187Y-100852385D02*
X193036719Y-100905397D01*
X193036719Y-100905397D02*
X193072509Y-101005681D01*
X193072509Y-101005681D02*
X193049547Y-101194768D01*
X193049547Y-101194768D02*
X192990794Y-101283571D01*
X192990794Y-101283571D02*
X192937781Y-101325103D01*
X192937781Y-101325103D02*
X192837497Y-101360893D01*
X192837497Y-101360893D02*
X192601139Y-101332190D01*
X192601139Y-101332190D02*
X192512336Y-101273437D01*
X192512336Y-101273437D02*
X192470804Y-101220425D01*
X192470804Y-101220425D02*
X192435014Y-101120141D01*
X192435014Y-101120141D02*
X192457976Y-100931054D01*
X192457976Y-100931054D02*
X192516729Y-100842251D01*
X192516729Y-100842251D02*
X192569742Y-100800719D01*
X192569742Y-100800719D02*
X192670026Y-100764929D01*
X183761905Y-108413295D02*
X184238095Y-108413295D01*
X183666667Y-108127580D02*
X184000000Y-109127580D01*
X184000000Y-109127580D02*
X184333333Y-108127580D01*
X192167487Y-97004340D02*
X192245783Y-97076503D01*
X192245783Y-97076503D02*
X192307194Y-97104142D01*
X192307194Y-97104142D02*
X192413129Y-97114895D01*
X192413129Y-97114895D02*
X192457653Y-97098010D01*
X192457653Y-97098010D02*
X192529817Y-97019713D01*
X192529817Y-97019713D02*
X192557456Y-96958303D01*
X192557456Y-96958303D02*
X192568209Y-96852368D01*
X192568209Y-96852368D02*
X192500666Y-96674269D01*
X192500666Y-96674269D02*
X192422370Y-96602106D01*
X192422370Y-96602106D02*
X192360959Y-96574467D01*
X192360959Y-96574467D02*
X192255024Y-96563714D01*
X192255024Y-96563714D02*
X192210500Y-96580600D01*
X192210500Y-96580600D02*
X192138336Y-96658896D01*
X192138336Y-96658896D02*
X192110697Y-96720306D01*
X192110697Y-96720306D02*
X192099944Y-96826241D01*
X192099944Y-96826241D02*
X192167487Y-97004340D01*
X192167487Y-97004340D02*
X192156734Y-97110275D01*
X192156734Y-97110275D02*
X192129095Y-97171685D01*
X192129095Y-97171685D02*
X192056932Y-97249981D01*
X192056932Y-97249981D02*
X191878833Y-97317525D01*
X191878833Y-97317525D02*
X191772898Y-97306771D01*
X191772898Y-97306771D02*
X191711487Y-97279133D01*
X191711487Y-97279133D02*
X191633191Y-97206969D01*
X191633191Y-97206969D02*
X191565648Y-97028870D01*
X191565648Y-97028870D02*
X191576401Y-96922935D01*
X191576401Y-96922935D02*
X191604040Y-96861525D01*
X191604040Y-96861525D02*
X191676204Y-96783229D01*
X191676204Y-96783229D02*
X191854302Y-96715686D01*
X191854302Y-96715686D02*
X191960237Y-96726439D01*
X191960237Y-96726439D02*
X192021648Y-96754078D01*
X192021648Y-96754078D02*
X192099944Y-96826241D01*
X180094337Y-107236686D02*
X180074302Y-107172391D01*
X180074302Y-107172391D02*
X179969937Y-107063838D01*
X179969937Y-107063838D02*
X179885608Y-107019580D01*
X179885608Y-107019580D02*
X179736984Y-106995356D01*
X179736984Y-106995356D02*
X179608396Y-107035426D01*
X179608396Y-107035426D02*
X179521972Y-107097626D01*
X179521972Y-107097626D02*
X179391290Y-107244156D01*
X179391290Y-107244156D02*
X179324901Y-107370650D01*
X179324901Y-107370650D02*
X179278548Y-107561438D01*
X179278548Y-107561438D02*
X179276454Y-107667897D01*
X179276454Y-107667897D02*
X179316525Y-107796485D01*
X179316525Y-107796485D02*
X179420889Y-107905038D01*
X179420889Y-107905038D02*
X179505219Y-107949297D01*
X179505219Y-107949297D02*
X179653842Y-107973521D01*
X179653842Y-107973521D02*
X179718136Y-107953485D01*
X180939725Y-107572816D02*
X180518078Y-107351521D01*
X180518078Y-107351521D02*
X180053360Y-108236980D01*
X175583762Y-96451647D02*
X175364247Y-97030467D01*
X175364247Y-97030467D02*
X175838644Y-96853881D01*
X175838644Y-96853881D02*
X175787987Y-96987455D01*
X175787987Y-96987455D02*
X175798740Y-97093390D01*
X175798740Y-97093390D02*
X175826379Y-97154800D01*
X175826379Y-97154800D02*
X175898542Y-97233097D01*
X175898542Y-97233097D02*
X176121166Y-97317525D01*
X176121166Y-97317525D02*
X176227101Y-97306772D01*
X176227101Y-97306772D02*
X176288511Y-97279133D01*
X176288511Y-97279133D02*
X176366807Y-97206970D01*
X176366807Y-97206970D02*
X176468122Y-96939822D01*
X176468122Y-96939822D02*
X176457369Y-96833887D01*
X176457369Y-96833887D02*
X176429730Y-96772477D01*
X174999071Y-100805114D02*
X174957540Y-100858126D01*
X174957540Y-100858126D02*
X174921749Y-100958411D01*
X174921749Y-100958411D02*
X174950452Y-101194769D01*
X174950452Y-101194769D02*
X175009205Y-101283572D01*
X175009205Y-101283572D02*
X175062218Y-101325103D01*
X175062218Y-101325103D02*
X175162502Y-101360894D01*
X175162502Y-101360894D02*
X175257045Y-101349413D01*
X175257045Y-101349413D02*
X175393120Y-101284919D01*
X175393120Y-101284919D02*
X175891494Y-100648771D01*
X175891494Y-100648771D02*
X175966122Y-101263304D01*
X190302214Y-93388957D02*
X189803211Y-92946871D01*
X189803211Y-92946871D02*
X189460869Y-93979573D01*
X207190476Y-101042580D02*
X207523809Y-100042580D01*
X207523809Y-100042580D02*
X207857142Y-101042580D01*
X208666666Y-101042580D02*
X208190476Y-101042580D01*
X208190476Y-101042580D02*
X208142857Y-100566390D01*
X208142857Y-100566390D02*
X208190476Y-100614009D01*
X208190476Y-100614009D02*
X208285714Y-100661628D01*
X208285714Y-100661628D02*
X208523809Y-100661628D01*
X208523809Y-100661628D02*
X208619047Y-100614009D01*
X208619047Y-100614009D02*
X208666666Y-100566390D01*
X208666666Y-100566390D02*
X208714285Y-100471152D01*
X208714285Y-100471152D02*
X208714285Y-100233057D01*
X208714285Y-100233057D02*
X208666666Y-100137819D01*
X208666666Y-100137819D02*
X208619047Y-100090200D01*
X208619047Y-100090200D02*
X208523809Y-100042580D01*
X208523809Y-100042580D02*
X208285714Y-100042580D01*
X208285714Y-100042580D02*
X208190476Y-100090200D01*
X208190476Y-100090200D02*
X208142857Y-100137819D01*
X214302214Y-93388957D02*
X213803211Y-92946871D01*
X213803211Y-92946871D02*
X213460869Y-93979573D01*
X198999071Y-100805114D02*
X198957540Y-100858126D01*
X198957540Y-100858126D02*
X198921749Y-100958411D01*
X198921749Y-100958411D02*
X198950452Y-101194769D01*
X198950452Y-101194769D02*
X199009205Y-101283572D01*
X199009205Y-101283572D02*
X199062218Y-101325103D01*
X199062218Y-101325103D02*
X199162502Y-101360894D01*
X199162502Y-101360894D02*
X199257045Y-101349413D01*
X199257045Y-101349413D02*
X199393120Y-101284919D01*
X199393120Y-101284919D02*
X199891494Y-100648771D01*
X199891494Y-100648771D02*
X199966122Y-101263304D01*
X205584434Y-91194636D02*
X206046786Y-91080670D01*
X206046786Y-91080670D02*
X206206988Y-91531625D01*
X206206988Y-91531625D02*
X206149356Y-91496786D01*
X206149356Y-91496786D02*
X206045489Y-91473344D01*
X206045489Y-91473344D02*
X205814313Y-91530328D01*
X205814313Y-91530328D02*
X205733239Y-91599356D01*
X205733239Y-91599356D02*
X205698401Y-91656988D01*
X205698401Y-91656988D02*
X205674959Y-91760855D01*
X205674959Y-91760855D02*
X205731942Y-91992031D01*
X205731942Y-91992031D02*
X205800971Y-92073104D01*
X205800971Y-92073104D02*
X205858603Y-92107943D01*
X205858603Y-92107943D02*
X205962470Y-92131385D01*
X205962470Y-92131385D02*
X206193646Y-92074401D01*
X206193646Y-92074401D02*
X206274719Y-92005373D01*
X206274719Y-92005373D02*
X206309558Y-91947741D01*
X204094337Y-107236686D02*
X204074302Y-107172391D01*
X204074302Y-107172391D02*
X203969937Y-107063838D01*
X203969937Y-107063838D02*
X203885608Y-107019580D01*
X203885608Y-107019580D02*
X203736984Y-106995356D01*
X203736984Y-106995356D02*
X203608396Y-107035426D01*
X203608396Y-107035426D02*
X203521972Y-107097626D01*
X203521972Y-107097626D02*
X203391290Y-107244156D01*
X203391290Y-107244156D02*
X203324901Y-107370650D01*
X203324901Y-107370650D02*
X203278548Y-107561438D01*
X203278548Y-107561438D02*
X203276454Y-107667897D01*
X203276454Y-107667897D02*
X203316525Y-107796485D01*
X203316525Y-107796485D02*
X203420889Y-107905038D01*
X203420889Y-107905038D02*
X203505219Y-107949297D01*
X203505219Y-107949297D02*
X203653842Y-107973521D01*
X203653842Y-107973521D02*
X203718136Y-107953485D01*
X204939725Y-107572816D02*
X204518078Y-107351521D01*
X204518078Y-107351521D02*
X204053360Y-108236980D01*
X215484794Y-105224255D02*
X215538896Y-105145877D01*
X215538896Y-105145877D02*
X215553809Y-105040447D01*
X215553809Y-105040447D02*
X215541670Y-104974206D01*
X215541670Y-104974206D02*
X215490343Y-104880914D01*
X215490343Y-104880914D02*
X215360636Y-104733521D01*
X215360636Y-104733521D02*
X215164689Y-104598265D01*
X215164689Y-104598265D02*
X214980880Y-104529250D01*
X214980880Y-104529250D02*
X214875450Y-104514337D01*
X214875450Y-104514337D02*
X214809210Y-104526475D01*
X214809210Y-104526475D02*
X214715918Y-104577803D01*
X214715918Y-104577803D02*
X214661816Y-104656182D01*
X214661816Y-104656182D02*
X214646903Y-104761612D01*
X214646903Y-104761612D02*
X214659041Y-104827852D01*
X214659041Y-104827852D02*
X214710369Y-104921144D01*
X214710369Y-104921144D02*
X214840076Y-105068538D01*
X214840076Y-105068538D02*
X215036023Y-105203794D01*
X215036023Y-105203794D02*
X215219832Y-105272809D01*
X215219832Y-105272809D02*
X215325261Y-105287721D01*
X215325261Y-105287721D02*
X215391502Y-105275583D01*
X215391502Y-105275583D02*
X215484794Y-105224255D01*
X202025757Y-93543726D02*
X202467843Y-94042729D01*
X201951351Y-93100694D02*
X202603231Y-93477452D01*
X202603231Y-93477452D02*
X202139871Y-93887961D01*
X207761905Y-108413295D02*
X208238095Y-108413295D01*
X207666667Y-108127580D02*
X208000000Y-109127580D01*
X208000000Y-109127580D02*
X208333333Y-108127580D01*
X209999447Y-91092066D02*
X210184388Y-91137653D01*
X210184388Y-91137653D02*
X210265462Y-91206681D01*
X210265462Y-91206681D02*
X210300300Y-91264313D01*
X210300300Y-91264313D02*
X210358580Y-91425812D01*
X210358580Y-91425812D02*
X210359229Y-91622149D01*
X210359229Y-91622149D02*
X210268056Y-91992031D01*
X210268056Y-91992031D02*
X210199027Y-92073104D01*
X210199027Y-92073104D02*
X210141395Y-92107943D01*
X210141395Y-92107943D02*
X210037528Y-92131384D01*
X210037528Y-92131384D02*
X209852588Y-92085798D01*
X209852588Y-92085798D02*
X209771514Y-92016769D01*
X209771514Y-92016769D02*
X209736676Y-91959138D01*
X209736676Y-91959138D02*
X209713234Y-91855271D01*
X209713234Y-91855271D02*
X209770217Y-91624095D01*
X209770217Y-91624095D02*
X209839246Y-91543021D01*
X209839246Y-91543021D02*
X209896877Y-91508183D01*
X209896877Y-91508183D02*
X210000744Y-91484741D01*
X210000744Y-91484741D02*
X210185685Y-91530327D01*
X210185685Y-91530327D02*
X210266759Y-91599356D01*
X210266759Y-91599356D02*
X210301597Y-91656988D01*
X210301597Y-91656988D02*
X210325039Y-91760855D01*
X199583762Y-96451647D02*
X199364247Y-97030467D01*
X199364247Y-97030467D02*
X199838644Y-96853881D01*
X199838644Y-96853881D02*
X199787987Y-96987455D01*
X199787987Y-96987455D02*
X199798740Y-97093390D01*
X199798740Y-97093390D02*
X199826379Y-97154800D01*
X199826379Y-97154800D02*
X199898542Y-97233097D01*
X199898542Y-97233097D02*
X200121166Y-97317525D01*
X200121166Y-97317525D02*
X200227101Y-97306772D01*
X200227101Y-97306772D02*
X200288511Y-97279133D01*
X200288511Y-97279133D02*
X200366807Y-97206970D01*
X200366807Y-97206970D02*
X200468122Y-96939822D01*
X200468122Y-96939822D02*
X200457369Y-96833887D01*
X200457369Y-96833887D02*
X200429730Y-96772477D01*
X216045359Y-101168759D02*
X216068321Y-100979672D01*
X216068321Y-100979672D02*
X216127074Y-100890869D01*
X216127074Y-100890869D02*
X216180086Y-100849338D01*
X216180086Y-100849338D02*
X216333383Y-100772016D01*
X216333383Y-100772016D02*
X216528211Y-100747707D01*
X216528211Y-100747707D02*
X216906385Y-100793632D01*
X216906385Y-100793632D02*
X216995187Y-100852385D01*
X216995187Y-100852385D02*
X217036719Y-100905397D01*
X217036719Y-100905397D02*
X217072509Y-101005681D01*
X217072509Y-101005681D02*
X217049547Y-101194768D01*
X217049547Y-101194768D02*
X216990794Y-101283571D01*
X216990794Y-101283571D02*
X216937781Y-101325103D01*
X216937781Y-101325103D02*
X216837497Y-101360893D01*
X216837497Y-101360893D02*
X216601139Y-101332190D01*
X216601139Y-101332190D02*
X216512336Y-101273437D01*
X216512336Y-101273437D02*
X216470804Y-101220425D01*
X216470804Y-101220425D02*
X216435014Y-101120141D01*
X216435014Y-101120141D02*
X216457976Y-100931054D01*
X216457976Y-100931054D02*
X216516729Y-100842251D01*
X216516729Y-100842251D02*
X216569742Y-100800719D01*
X216569742Y-100800719D02*
X216670026Y-100764929D01*
X201473439Y-104852130D02*
X201148826Y-104381857D01*
X201311132Y-104616993D02*
X200488155Y-105185067D01*
X200488155Y-105185067D02*
X200551621Y-105025535D01*
X200551621Y-105025535D02*
X200575897Y-104893054D01*
X200575897Y-104893054D02*
X200560984Y-104787624D01*
X216167487Y-97004340D02*
X216245783Y-97076503D01*
X216245783Y-97076503D02*
X216307194Y-97104142D01*
X216307194Y-97104142D02*
X216413129Y-97114895D01*
X216413129Y-97114895D02*
X216457653Y-97098010D01*
X216457653Y-97098010D02*
X216529817Y-97019713D01*
X216529817Y-97019713D02*
X216557456Y-96958303D01*
X216557456Y-96958303D02*
X216568209Y-96852368D01*
X216568209Y-96852368D02*
X216500666Y-96674269D01*
X216500666Y-96674269D02*
X216422370Y-96602106D01*
X216422370Y-96602106D02*
X216360959Y-96574467D01*
X216360959Y-96574467D02*
X216255024Y-96563714D01*
X216255024Y-96563714D02*
X216210500Y-96580600D01*
X216210500Y-96580600D02*
X216138336Y-96658896D01*
X216138336Y-96658896D02*
X216110697Y-96720306D01*
X216110697Y-96720306D02*
X216099944Y-96826241D01*
X216099944Y-96826241D02*
X216167487Y-97004340D01*
X216167487Y-97004340D02*
X216156734Y-97110275D01*
X216156734Y-97110275D02*
X216129095Y-97171685D01*
X216129095Y-97171685D02*
X216056932Y-97249981D01*
X216056932Y-97249981D02*
X215878833Y-97317525D01*
X215878833Y-97317525D02*
X215772898Y-97306771D01*
X215772898Y-97306771D02*
X215711487Y-97279133D01*
X215711487Y-97279133D02*
X215633191Y-97206969D01*
X215633191Y-97206969D02*
X215565648Y-97028870D01*
X215565648Y-97028870D02*
X215576401Y-96922935D01*
X215576401Y-96922935D02*
X215604040Y-96861525D01*
X215604040Y-96861525D02*
X215676204Y-96783229D01*
X215676204Y-96783229D02*
X215854302Y-96715686D01*
X215854302Y-96715686D02*
X215960237Y-96726439D01*
X215960237Y-96726439D02*
X216021648Y-96754078D01*
X216021648Y-96754078D02*
X216099944Y-96826241D01*
X211652674Y-107369462D02*
X211588380Y-107349427D01*
X211588380Y-107349427D02*
X211439756Y-107373651D01*
X211439756Y-107373651D02*
X211355427Y-107417910D01*
X211355427Y-107417910D02*
X211251062Y-107526463D01*
X211251062Y-107526463D02*
X211210992Y-107655051D01*
X211210992Y-107655051D02*
X211213086Y-107761510D01*
X211213086Y-107761510D02*
X211259439Y-107952298D01*
X211259439Y-107952298D02*
X211325827Y-108078792D01*
X211325827Y-108078792D02*
X211456510Y-108225321D01*
X211456510Y-108225321D02*
X211542933Y-108287521D01*
X211542933Y-108287521D02*
X211671522Y-108327592D01*
X211671522Y-108327592D02*
X211820145Y-108303368D01*
X211820145Y-108303368D02*
X211904475Y-108259109D01*
X211904475Y-108259109D02*
X212008839Y-108150556D01*
X212008839Y-108150556D02*
X212028874Y-108086262D01*
X212493873Y-106820415D02*
X212420015Y-107396968D01*
X211987897Y-107085968D02*
X212452616Y-107971426D01*
X212452616Y-107971426D02*
X212789933Y-107794391D01*
X212789933Y-107794391D02*
X212852133Y-107707967D01*
X212852133Y-107707967D02*
X212872168Y-107643673D01*
X212872168Y-107643673D02*
X212870074Y-107537214D01*
X212870074Y-107537214D02*
X212803686Y-107410720D01*
X212803686Y-107410720D02*
X212717262Y-107348520D01*
X212717262Y-107348520D02*
X212652968Y-107328485D01*
X212652968Y-107328485D02*
X212546509Y-107330579D01*
X212546509Y-107330579D02*
X212209192Y-107507615D01*
X101190476Y-101042580D02*
X101523809Y-100042580D01*
X101523809Y-100042580D02*
X101857142Y-101042580D01*
X102142857Y-100947342D02*
X102190476Y-100994961D01*
X102190476Y-100994961D02*
X102285714Y-101042580D01*
X102285714Y-101042580D02*
X102523809Y-101042580D01*
X102523809Y-101042580D02*
X102619047Y-100994961D01*
X102619047Y-100994961D02*
X102666666Y-100947342D01*
X102666666Y-100947342D02*
X102714285Y-100852104D01*
X102714285Y-100852104D02*
X102714285Y-100756866D01*
X102714285Y-100756866D02*
X102666666Y-100614009D01*
X102666666Y-100614009D02*
X102095238Y-100042580D01*
X102095238Y-100042580D02*
X102714285Y-100042580D01*
X101761905Y-108413295D02*
X102238095Y-108413295D01*
X101666667Y-108127580D02*
X102000000Y-109127580D01*
X102000000Y-109127580D02*
X102333333Y-108127580D01*
X109484794Y-105224255D02*
X109538896Y-105145877D01*
X109538896Y-105145877D02*
X109553809Y-105040447D01*
X109553809Y-105040447D02*
X109541670Y-104974206D01*
X109541670Y-104974206D02*
X109490343Y-104880914D01*
X109490343Y-104880914D02*
X109360636Y-104733521D01*
X109360636Y-104733521D02*
X109164689Y-104598265D01*
X109164689Y-104598265D02*
X108980880Y-104529250D01*
X108980880Y-104529250D02*
X108875450Y-104514337D01*
X108875450Y-104514337D02*
X108809210Y-104526475D01*
X108809210Y-104526475D02*
X108715918Y-104577803D01*
X108715918Y-104577803D02*
X108661816Y-104656182D01*
X108661816Y-104656182D02*
X108646903Y-104761612D01*
X108646903Y-104761612D02*
X108659041Y-104827852D01*
X108659041Y-104827852D02*
X108710369Y-104921144D01*
X108710369Y-104921144D02*
X108840076Y-105068538D01*
X108840076Y-105068538D02*
X109036023Y-105203794D01*
X109036023Y-105203794D02*
X109219832Y-105272809D01*
X109219832Y-105272809D02*
X109325261Y-105287721D01*
X109325261Y-105287721D02*
X109391502Y-105275583D01*
X109391502Y-105275583D02*
X109484794Y-105224255D01*
X98094337Y-107236686D02*
X98074302Y-107172391D01*
X98074302Y-107172391D02*
X97969937Y-107063838D01*
X97969937Y-107063838D02*
X97885608Y-107019580D01*
X97885608Y-107019580D02*
X97736984Y-106995356D01*
X97736984Y-106995356D02*
X97608396Y-107035426D01*
X97608396Y-107035426D02*
X97521972Y-107097626D01*
X97521972Y-107097626D02*
X97391290Y-107244156D01*
X97391290Y-107244156D02*
X97324901Y-107370650D01*
X97324901Y-107370650D02*
X97278548Y-107561438D01*
X97278548Y-107561438D02*
X97276454Y-107667897D01*
X97276454Y-107667897D02*
X97316525Y-107796485D01*
X97316525Y-107796485D02*
X97420889Y-107905038D01*
X97420889Y-107905038D02*
X97505219Y-107949297D01*
X97505219Y-107949297D02*
X97653842Y-107973521D01*
X97653842Y-107973521D02*
X97718136Y-107953485D01*
X98939725Y-107572816D02*
X98518078Y-107351521D01*
X98518078Y-107351521D02*
X98053360Y-108236980D01*
X110167487Y-97004340D02*
X110245783Y-97076503D01*
X110245783Y-97076503D02*
X110307194Y-97104142D01*
X110307194Y-97104142D02*
X110413129Y-97114895D01*
X110413129Y-97114895D02*
X110457653Y-97098010D01*
X110457653Y-97098010D02*
X110529817Y-97019713D01*
X110529817Y-97019713D02*
X110557456Y-96958303D01*
X110557456Y-96958303D02*
X110568209Y-96852368D01*
X110568209Y-96852368D02*
X110500666Y-96674269D01*
X110500666Y-96674269D02*
X110422370Y-96602106D01*
X110422370Y-96602106D02*
X110360959Y-96574467D01*
X110360959Y-96574467D02*
X110255024Y-96563714D01*
X110255024Y-96563714D02*
X110210500Y-96580600D01*
X110210500Y-96580600D02*
X110138336Y-96658896D01*
X110138336Y-96658896D02*
X110110697Y-96720306D01*
X110110697Y-96720306D02*
X110099944Y-96826241D01*
X110099944Y-96826241D02*
X110167487Y-97004340D01*
X110167487Y-97004340D02*
X110156734Y-97110275D01*
X110156734Y-97110275D02*
X110129095Y-97171685D01*
X110129095Y-97171685D02*
X110056932Y-97249981D01*
X110056932Y-97249981D02*
X109878833Y-97317525D01*
X109878833Y-97317525D02*
X109772898Y-97306771D01*
X109772898Y-97306771D02*
X109711487Y-97279133D01*
X109711487Y-97279133D02*
X109633191Y-97206969D01*
X109633191Y-97206969D02*
X109565648Y-97028870D01*
X109565648Y-97028870D02*
X109576401Y-96922935D01*
X109576401Y-96922935D02*
X109604040Y-96861525D01*
X109604040Y-96861525D02*
X109676204Y-96783229D01*
X109676204Y-96783229D02*
X109854302Y-96715686D01*
X109854302Y-96715686D02*
X109960237Y-96726439D01*
X109960237Y-96726439D02*
X110021648Y-96754078D01*
X110021648Y-96754078D02*
X110099944Y-96826241D01*
X105652674Y-107369462D02*
X105588380Y-107349427D01*
X105588380Y-107349427D02*
X105439756Y-107373651D01*
X105439756Y-107373651D02*
X105355427Y-107417910D01*
X105355427Y-107417910D02*
X105251062Y-107526463D01*
X105251062Y-107526463D02*
X105210992Y-107655051D01*
X105210992Y-107655051D02*
X105213086Y-107761510D01*
X105213086Y-107761510D02*
X105259439Y-107952298D01*
X105259439Y-107952298D02*
X105325827Y-108078792D01*
X105325827Y-108078792D02*
X105456510Y-108225321D01*
X105456510Y-108225321D02*
X105542933Y-108287521D01*
X105542933Y-108287521D02*
X105671522Y-108327592D01*
X105671522Y-108327592D02*
X105820145Y-108303368D01*
X105820145Y-108303368D02*
X105904475Y-108259109D01*
X105904475Y-108259109D02*
X106008839Y-108150556D01*
X106008839Y-108150556D02*
X106028874Y-108086262D01*
X106493873Y-106820415D02*
X106420015Y-107396968D01*
X105987897Y-107085968D02*
X106452616Y-107971426D01*
X106452616Y-107971426D02*
X106789933Y-107794391D01*
X106789933Y-107794391D02*
X106852133Y-107707967D01*
X106852133Y-107707967D02*
X106872168Y-107643673D01*
X106872168Y-107643673D02*
X106870074Y-107537214D01*
X106870074Y-107537214D02*
X106803686Y-107410720D01*
X106803686Y-107410720D02*
X106717262Y-107348520D01*
X106717262Y-107348520D02*
X106652968Y-107328485D01*
X106652968Y-107328485D02*
X106546509Y-107330579D01*
X106546509Y-107330579D02*
X106209192Y-107507615D01*
X110045359Y-101168759D02*
X110068321Y-100979672D01*
X110068321Y-100979672D02*
X110127074Y-100890869D01*
X110127074Y-100890869D02*
X110180086Y-100849338D01*
X110180086Y-100849338D02*
X110333383Y-100772016D01*
X110333383Y-100772016D02*
X110528211Y-100747707D01*
X110528211Y-100747707D02*
X110906385Y-100793632D01*
X110906385Y-100793632D02*
X110995187Y-100852385D01*
X110995187Y-100852385D02*
X111036719Y-100905397D01*
X111036719Y-100905397D02*
X111072509Y-101005681D01*
X111072509Y-101005681D02*
X111049547Y-101194768D01*
X111049547Y-101194768D02*
X110990794Y-101283571D01*
X110990794Y-101283571D02*
X110937781Y-101325103D01*
X110937781Y-101325103D02*
X110837497Y-101360893D01*
X110837497Y-101360893D02*
X110601139Y-101332190D01*
X110601139Y-101332190D02*
X110512336Y-101273437D01*
X110512336Y-101273437D02*
X110470804Y-101220425D01*
X110470804Y-101220425D02*
X110435014Y-101120141D01*
X110435014Y-101120141D02*
X110457976Y-100931054D01*
X110457976Y-100931054D02*
X110516729Y-100842251D01*
X110516729Y-100842251D02*
X110569742Y-100800719D01*
X110569742Y-100800719D02*
X110670026Y-100764929D01*
X99584434Y-91194636D02*
X100046786Y-91080670D01*
X100046786Y-91080670D02*
X100206988Y-91531625D01*
X100206988Y-91531625D02*
X100149356Y-91496786D01*
X100149356Y-91496786D02*
X100045489Y-91473344D01*
X100045489Y-91473344D02*
X99814313Y-91530328D01*
X99814313Y-91530328D02*
X99733239Y-91599356D01*
X99733239Y-91599356D02*
X99698401Y-91656988D01*
X99698401Y-91656988D02*
X99674959Y-91760855D01*
X99674959Y-91760855D02*
X99731942Y-91992031D01*
X99731942Y-91992031D02*
X99800971Y-92073104D01*
X99800971Y-92073104D02*
X99858603Y-92107943D01*
X99858603Y-92107943D02*
X99962470Y-92131385D01*
X99962470Y-92131385D02*
X100193646Y-92074401D01*
X100193646Y-92074401D02*
X100274719Y-92005373D01*
X100274719Y-92005373D02*
X100309558Y-91947741D01*
X92999071Y-100805114D02*
X92957540Y-100858126D01*
X92957540Y-100858126D02*
X92921749Y-100958411D01*
X92921749Y-100958411D02*
X92950452Y-101194769D01*
X92950452Y-101194769D02*
X93009205Y-101283572D01*
X93009205Y-101283572D02*
X93062218Y-101325103D01*
X93062218Y-101325103D02*
X93162502Y-101360894D01*
X93162502Y-101360894D02*
X93257045Y-101349413D01*
X93257045Y-101349413D02*
X93393120Y-101284919D01*
X93393120Y-101284919D02*
X93891494Y-100648771D01*
X93891494Y-100648771D02*
X93966122Y-101263304D01*
X103999447Y-91092066D02*
X104184388Y-91137653D01*
X104184388Y-91137653D02*
X104265462Y-91206681D01*
X104265462Y-91206681D02*
X104300300Y-91264313D01*
X104300300Y-91264313D02*
X104358580Y-91425812D01*
X104358580Y-91425812D02*
X104359229Y-91622149D01*
X104359229Y-91622149D02*
X104268056Y-91992031D01*
X104268056Y-91992031D02*
X104199027Y-92073104D01*
X104199027Y-92073104D02*
X104141395Y-92107943D01*
X104141395Y-92107943D02*
X104037528Y-92131384D01*
X104037528Y-92131384D02*
X103852588Y-92085798D01*
X103852588Y-92085798D02*
X103771514Y-92016769D01*
X103771514Y-92016769D02*
X103736676Y-91959138D01*
X103736676Y-91959138D02*
X103713234Y-91855271D01*
X103713234Y-91855271D02*
X103770217Y-91624095D01*
X103770217Y-91624095D02*
X103839246Y-91543021D01*
X103839246Y-91543021D02*
X103896877Y-91508183D01*
X103896877Y-91508183D02*
X104000744Y-91484741D01*
X104000744Y-91484741D02*
X104185685Y-91530327D01*
X104185685Y-91530327D02*
X104266759Y-91599356D01*
X104266759Y-91599356D02*
X104301597Y-91656988D01*
X104301597Y-91656988D02*
X104325039Y-91760855D01*
X108302214Y-93388957D02*
X107803211Y-92946871D01*
X107803211Y-92946871D02*
X107460869Y-93979573D01*
X93583762Y-96451647D02*
X93364247Y-97030467D01*
X93364247Y-97030467D02*
X93838644Y-96853881D01*
X93838644Y-96853881D02*
X93787987Y-96987455D01*
X93787987Y-96987455D02*
X93798740Y-97093390D01*
X93798740Y-97093390D02*
X93826379Y-97154800D01*
X93826379Y-97154800D02*
X93898542Y-97233097D01*
X93898542Y-97233097D02*
X94121166Y-97317525D01*
X94121166Y-97317525D02*
X94227101Y-97306772D01*
X94227101Y-97306772D02*
X94288511Y-97279133D01*
X94288511Y-97279133D02*
X94366807Y-97206970D01*
X94366807Y-97206970D02*
X94468122Y-96939822D01*
X94468122Y-96939822D02*
X94457369Y-96833887D01*
X94457369Y-96833887D02*
X94429730Y-96772477D01*
X96025757Y-93543726D02*
X96467843Y-94042729D01*
X95951351Y-93100694D02*
X96603231Y-93477452D01*
X96603231Y-93477452D02*
X96139871Y-93887961D01*
X95473439Y-104852130D02*
X95148826Y-104381857D01*
X95311132Y-104616993D02*
X94488155Y-105185067D01*
X94488155Y-105185067D02*
X94551621Y-105025535D01*
X94551621Y-105025535D02*
X94575897Y-104893054D01*
X94575897Y-104893054D02*
X94560984Y-104787624D01*
X77190476Y-101042580D02*
X77523809Y-100042580D01*
X77523809Y-100042580D02*
X77857142Y-101042580D01*
X78619047Y-101042580D02*
X78428571Y-101042580D01*
X78428571Y-101042580D02*
X78333333Y-100994961D01*
X78333333Y-100994961D02*
X78285714Y-100947342D01*
X78285714Y-100947342D02*
X78190476Y-100804485D01*
X78190476Y-100804485D02*
X78142857Y-100614009D01*
X78142857Y-100614009D02*
X78142857Y-100233057D01*
X78142857Y-100233057D02*
X78190476Y-100137819D01*
X78190476Y-100137819D02*
X78238095Y-100090200D01*
X78238095Y-100090200D02*
X78333333Y-100042580D01*
X78333333Y-100042580D02*
X78523809Y-100042580D01*
X78523809Y-100042580D02*
X78619047Y-100090200D01*
X78619047Y-100090200D02*
X78666666Y-100137819D01*
X78666666Y-100137819D02*
X78714285Y-100233057D01*
X78714285Y-100233057D02*
X78714285Y-100471152D01*
X78714285Y-100471152D02*
X78666666Y-100566390D01*
X78666666Y-100566390D02*
X78619047Y-100614009D01*
X78619047Y-100614009D02*
X78523809Y-100661628D01*
X78523809Y-100661628D02*
X78333333Y-100661628D01*
X78333333Y-100661628D02*
X78238095Y-100614009D01*
X78238095Y-100614009D02*
X78190476Y-100566390D01*
X78190476Y-100566390D02*
X78142857Y-100471152D01*
X68999071Y-100805114D02*
X68957540Y-100858126D01*
X68957540Y-100858126D02*
X68921749Y-100958411D01*
X68921749Y-100958411D02*
X68950452Y-101194769D01*
X68950452Y-101194769D02*
X69009205Y-101283572D01*
X69009205Y-101283572D02*
X69062218Y-101325103D01*
X69062218Y-101325103D02*
X69162502Y-101360894D01*
X69162502Y-101360894D02*
X69257045Y-101349413D01*
X69257045Y-101349413D02*
X69393120Y-101284919D01*
X69393120Y-101284919D02*
X69891494Y-100648771D01*
X69891494Y-100648771D02*
X69966122Y-101263304D01*
X86045359Y-101168759D02*
X86068321Y-100979672D01*
X86068321Y-100979672D02*
X86127074Y-100890869D01*
X86127074Y-100890869D02*
X86180086Y-100849338D01*
X86180086Y-100849338D02*
X86333383Y-100772016D01*
X86333383Y-100772016D02*
X86528211Y-100747707D01*
X86528211Y-100747707D02*
X86906385Y-100793632D01*
X86906385Y-100793632D02*
X86995187Y-100852385D01*
X86995187Y-100852385D02*
X87036719Y-100905397D01*
X87036719Y-100905397D02*
X87072509Y-101005681D01*
X87072509Y-101005681D02*
X87049547Y-101194768D01*
X87049547Y-101194768D02*
X86990794Y-101283571D01*
X86990794Y-101283571D02*
X86937781Y-101325103D01*
X86937781Y-101325103D02*
X86837497Y-101360893D01*
X86837497Y-101360893D02*
X86601139Y-101332190D01*
X86601139Y-101332190D02*
X86512336Y-101273437D01*
X86512336Y-101273437D02*
X86470804Y-101220425D01*
X86470804Y-101220425D02*
X86435014Y-101120141D01*
X86435014Y-101120141D02*
X86457976Y-100931054D01*
X86457976Y-100931054D02*
X86516729Y-100842251D01*
X86516729Y-100842251D02*
X86569742Y-100800719D01*
X86569742Y-100800719D02*
X86670026Y-100764929D01*
X71473439Y-104852130D02*
X71148826Y-104381857D01*
X71311132Y-104616993D02*
X70488155Y-105185067D01*
X70488155Y-105185067D02*
X70551621Y-105025535D01*
X70551621Y-105025535D02*
X70575897Y-104893054D01*
X70575897Y-104893054D02*
X70560984Y-104787624D01*
X86167487Y-97004340D02*
X86245783Y-97076503D01*
X86245783Y-97076503D02*
X86307194Y-97104142D01*
X86307194Y-97104142D02*
X86413129Y-97114895D01*
X86413129Y-97114895D02*
X86457653Y-97098010D01*
X86457653Y-97098010D02*
X86529817Y-97019713D01*
X86529817Y-97019713D02*
X86557456Y-96958303D01*
X86557456Y-96958303D02*
X86568209Y-96852368D01*
X86568209Y-96852368D02*
X86500666Y-96674269D01*
X86500666Y-96674269D02*
X86422370Y-96602106D01*
X86422370Y-96602106D02*
X86360959Y-96574467D01*
X86360959Y-96574467D02*
X86255024Y-96563714D01*
X86255024Y-96563714D02*
X86210500Y-96580600D01*
X86210500Y-96580600D02*
X86138336Y-96658896D01*
X86138336Y-96658896D02*
X86110697Y-96720306D01*
X86110697Y-96720306D02*
X86099944Y-96826241D01*
X86099944Y-96826241D02*
X86167487Y-97004340D01*
X86167487Y-97004340D02*
X86156734Y-97110275D01*
X86156734Y-97110275D02*
X86129095Y-97171685D01*
X86129095Y-97171685D02*
X86056932Y-97249981D01*
X86056932Y-97249981D02*
X85878833Y-97317525D01*
X85878833Y-97317525D02*
X85772898Y-97306771D01*
X85772898Y-97306771D02*
X85711487Y-97279133D01*
X85711487Y-97279133D02*
X85633191Y-97206969D01*
X85633191Y-97206969D02*
X85565648Y-97028870D01*
X85565648Y-97028870D02*
X85576401Y-96922935D01*
X85576401Y-96922935D02*
X85604040Y-96861525D01*
X85604040Y-96861525D02*
X85676204Y-96783229D01*
X85676204Y-96783229D02*
X85854302Y-96715686D01*
X85854302Y-96715686D02*
X85960237Y-96726439D01*
X85960237Y-96726439D02*
X86021648Y-96754078D01*
X86021648Y-96754078D02*
X86099944Y-96826241D01*
X77761905Y-108413295D02*
X78238095Y-108413295D01*
X77666667Y-108127580D02*
X78000000Y-109127580D01*
X78000000Y-109127580D02*
X78333333Y-108127580D01*
X85484794Y-105224255D02*
X85538896Y-105145877D01*
X85538896Y-105145877D02*
X85553809Y-105040447D01*
X85553809Y-105040447D02*
X85541670Y-104974206D01*
X85541670Y-104974206D02*
X85490343Y-104880914D01*
X85490343Y-104880914D02*
X85360636Y-104733521D01*
X85360636Y-104733521D02*
X85164689Y-104598265D01*
X85164689Y-104598265D02*
X84980880Y-104529250D01*
X84980880Y-104529250D02*
X84875450Y-104514337D01*
X84875450Y-104514337D02*
X84809210Y-104526475D01*
X84809210Y-104526475D02*
X84715918Y-104577803D01*
X84715918Y-104577803D02*
X84661816Y-104656182D01*
X84661816Y-104656182D02*
X84646903Y-104761612D01*
X84646903Y-104761612D02*
X84659041Y-104827852D01*
X84659041Y-104827852D02*
X84710369Y-104921144D01*
X84710369Y-104921144D02*
X84840076Y-105068538D01*
X84840076Y-105068538D02*
X85036023Y-105203794D01*
X85036023Y-105203794D02*
X85219832Y-105272809D01*
X85219832Y-105272809D02*
X85325261Y-105287721D01*
X85325261Y-105287721D02*
X85391502Y-105275583D01*
X85391502Y-105275583D02*
X85484794Y-105224255D01*
X79999447Y-91092066D02*
X80184388Y-91137653D01*
X80184388Y-91137653D02*
X80265462Y-91206681D01*
X80265462Y-91206681D02*
X80300300Y-91264313D01*
X80300300Y-91264313D02*
X80358580Y-91425812D01*
X80358580Y-91425812D02*
X80359229Y-91622149D01*
X80359229Y-91622149D02*
X80268056Y-91992031D01*
X80268056Y-91992031D02*
X80199027Y-92073104D01*
X80199027Y-92073104D02*
X80141395Y-92107943D01*
X80141395Y-92107943D02*
X80037528Y-92131384D01*
X80037528Y-92131384D02*
X79852588Y-92085798D01*
X79852588Y-92085798D02*
X79771514Y-92016769D01*
X79771514Y-92016769D02*
X79736676Y-91959138D01*
X79736676Y-91959138D02*
X79713234Y-91855271D01*
X79713234Y-91855271D02*
X79770217Y-91624095D01*
X79770217Y-91624095D02*
X79839246Y-91543021D01*
X79839246Y-91543021D02*
X79896877Y-91508183D01*
X79896877Y-91508183D02*
X80000744Y-91484741D01*
X80000744Y-91484741D02*
X80185685Y-91530327D01*
X80185685Y-91530327D02*
X80266759Y-91599356D01*
X80266759Y-91599356D02*
X80301597Y-91656988D01*
X80301597Y-91656988D02*
X80325039Y-91760855D01*
X81652674Y-107369462D02*
X81588380Y-107349427D01*
X81588380Y-107349427D02*
X81439756Y-107373651D01*
X81439756Y-107373651D02*
X81355427Y-107417910D01*
X81355427Y-107417910D02*
X81251062Y-107526463D01*
X81251062Y-107526463D02*
X81210992Y-107655051D01*
X81210992Y-107655051D02*
X81213086Y-107761510D01*
X81213086Y-107761510D02*
X81259439Y-107952298D01*
X81259439Y-107952298D02*
X81325827Y-108078792D01*
X81325827Y-108078792D02*
X81456510Y-108225321D01*
X81456510Y-108225321D02*
X81542933Y-108287521D01*
X81542933Y-108287521D02*
X81671522Y-108327592D01*
X81671522Y-108327592D02*
X81820145Y-108303368D01*
X81820145Y-108303368D02*
X81904475Y-108259109D01*
X81904475Y-108259109D02*
X82008839Y-108150556D01*
X82008839Y-108150556D02*
X82028874Y-108086262D01*
X82493873Y-106820415D02*
X82420015Y-107396968D01*
X81987897Y-107085968D02*
X82452616Y-107971426D01*
X82452616Y-107971426D02*
X82789933Y-107794391D01*
X82789933Y-107794391D02*
X82852133Y-107707967D01*
X82852133Y-107707967D02*
X82872168Y-107643673D01*
X82872168Y-107643673D02*
X82870074Y-107537214D01*
X82870074Y-107537214D02*
X82803686Y-107410720D01*
X82803686Y-107410720D02*
X82717262Y-107348520D01*
X82717262Y-107348520D02*
X82652968Y-107328485D01*
X82652968Y-107328485D02*
X82546509Y-107330579D01*
X82546509Y-107330579D02*
X82209192Y-107507615D01*
X69583762Y-96451647D02*
X69364247Y-97030467D01*
X69364247Y-97030467D02*
X69838644Y-96853881D01*
X69838644Y-96853881D02*
X69787987Y-96987455D01*
X69787987Y-96987455D02*
X69798740Y-97093390D01*
X69798740Y-97093390D02*
X69826379Y-97154800D01*
X69826379Y-97154800D02*
X69898542Y-97233097D01*
X69898542Y-97233097D02*
X70121166Y-97317525D01*
X70121166Y-97317525D02*
X70227101Y-97306772D01*
X70227101Y-97306772D02*
X70288511Y-97279133D01*
X70288511Y-97279133D02*
X70366807Y-97206970D01*
X70366807Y-97206970D02*
X70468122Y-96939822D01*
X70468122Y-96939822D02*
X70457369Y-96833887D01*
X70457369Y-96833887D02*
X70429730Y-96772477D01*
X72025757Y-93543726D02*
X72467843Y-94042729D01*
X71951351Y-93100694D02*
X72603231Y-93477452D01*
X72603231Y-93477452D02*
X72139871Y-93887961D01*
X74094337Y-107236686D02*
X74074302Y-107172391D01*
X74074302Y-107172391D02*
X73969937Y-107063838D01*
X73969937Y-107063838D02*
X73885608Y-107019580D01*
X73885608Y-107019580D02*
X73736984Y-106995356D01*
X73736984Y-106995356D02*
X73608396Y-107035426D01*
X73608396Y-107035426D02*
X73521972Y-107097626D01*
X73521972Y-107097626D02*
X73391290Y-107244156D01*
X73391290Y-107244156D02*
X73324901Y-107370650D01*
X73324901Y-107370650D02*
X73278548Y-107561438D01*
X73278548Y-107561438D02*
X73276454Y-107667897D01*
X73276454Y-107667897D02*
X73316525Y-107796485D01*
X73316525Y-107796485D02*
X73420889Y-107905038D01*
X73420889Y-107905038D02*
X73505219Y-107949297D01*
X73505219Y-107949297D02*
X73653842Y-107973521D01*
X73653842Y-107973521D02*
X73718136Y-107953485D01*
X74939725Y-107572816D02*
X74518078Y-107351521D01*
X74518078Y-107351521D02*
X74053360Y-108236980D01*
X84302214Y-93388957D02*
X83803211Y-92946871D01*
X83803211Y-92946871D02*
X83460869Y-93979573D01*
X75584434Y-91194636D02*
X76046786Y-91080670D01*
X76046786Y-91080670D02*
X76206988Y-91531625D01*
X76206988Y-91531625D02*
X76149356Y-91496786D01*
X76149356Y-91496786D02*
X76045489Y-91473344D01*
X76045489Y-91473344D02*
X75814313Y-91530328D01*
X75814313Y-91530328D02*
X75733239Y-91599356D01*
X75733239Y-91599356D02*
X75698401Y-91656988D01*
X75698401Y-91656988D02*
X75674959Y-91760855D01*
X75674959Y-91760855D02*
X75731942Y-91992031D01*
X75731942Y-91992031D02*
X75800971Y-92073104D01*
X75800971Y-92073104D02*
X75858603Y-92107943D01*
X75858603Y-92107943D02*
X75962470Y-92131385D01*
X75962470Y-92131385D02*
X76193646Y-92074401D01*
X76193646Y-92074401D02*
X76274719Y-92005373D01*
X76274719Y-92005373D02*
X76309558Y-91947741D01*
X154190476Y-101042580D02*
X154523809Y-100042580D01*
X154523809Y-100042580D02*
X154857142Y-101042580D01*
X155714285Y-100042580D02*
X155142857Y-100042580D01*
X155428571Y-100042580D02*
X155428571Y-101042580D01*
X155428571Y-101042580D02*
X155333333Y-100899723D01*
X155333333Y-100899723D02*
X155238095Y-100804485D01*
X155238095Y-100804485D02*
X155142857Y-100756866D01*
X163167487Y-97004340D02*
X163245783Y-97076503D01*
X163245783Y-97076503D02*
X163307194Y-97104142D01*
X163307194Y-97104142D02*
X163413129Y-97114895D01*
X163413129Y-97114895D02*
X163457653Y-97098010D01*
X163457653Y-97098010D02*
X163529817Y-97019713D01*
X163529817Y-97019713D02*
X163557456Y-96958303D01*
X163557456Y-96958303D02*
X163568209Y-96852368D01*
X163568209Y-96852368D02*
X163500666Y-96674269D01*
X163500666Y-96674269D02*
X163422370Y-96602106D01*
X163422370Y-96602106D02*
X163360959Y-96574467D01*
X163360959Y-96574467D02*
X163255024Y-96563714D01*
X163255024Y-96563714D02*
X163210500Y-96580600D01*
X163210500Y-96580600D02*
X163138336Y-96658896D01*
X163138336Y-96658896D02*
X163110697Y-96720306D01*
X163110697Y-96720306D02*
X163099944Y-96826241D01*
X163099944Y-96826241D02*
X163167487Y-97004340D01*
X163167487Y-97004340D02*
X163156734Y-97110275D01*
X163156734Y-97110275D02*
X163129095Y-97171685D01*
X163129095Y-97171685D02*
X163056932Y-97249981D01*
X163056932Y-97249981D02*
X162878833Y-97317525D01*
X162878833Y-97317525D02*
X162772898Y-97306771D01*
X162772898Y-97306771D02*
X162711487Y-97279133D01*
X162711487Y-97279133D02*
X162633191Y-97206969D01*
X162633191Y-97206969D02*
X162565648Y-97028870D01*
X162565648Y-97028870D02*
X162576401Y-96922935D01*
X162576401Y-96922935D02*
X162604040Y-96861525D01*
X162604040Y-96861525D02*
X162676204Y-96783229D01*
X162676204Y-96783229D02*
X162854302Y-96715686D01*
X162854302Y-96715686D02*
X162960237Y-96726439D01*
X162960237Y-96726439D02*
X163021648Y-96754078D01*
X163021648Y-96754078D02*
X163099944Y-96826241D01*
X156999447Y-91092066D02*
X157184388Y-91137653D01*
X157184388Y-91137653D02*
X157265462Y-91206681D01*
X157265462Y-91206681D02*
X157300300Y-91264313D01*
X157300300Y-91264313D02*
X157358580Y-91425812D01*
X157358580Y-91425812D02*
X157359229Y-91622149D01*
X157359229Y-91622149D02*
X157268056Y-91992031D01*
X157268056Y-91992031D02*
X157199027Y-92073104D01*
X157199027Y-92073104D02*
X157141395Y-92107943D01*
X157141395Y-92107943D02*
X157037528Y-92131384D01*
X157037528Y-92131384D02*
X156852588Y-92085798D01*
X156852588Y-92085798D02*
X156771514Y-92016769D01*
X156771514Y-92016769D02*
X156736676Y-91959138D01*
X156736676Y-91959138D02*
X156713234Y-91855271D01*
X156713234Y-91855271D02*
X156770217Y-91624095D01*
X156770217Y-91624095D02*
X156839246Y-91543021D01*
X156839246Y-91543021D02*
X156896877Y-91508183D01*
X156896877Y-91508183D02*
X157000744Y-91484741D01*
X157000744Y-91484741D02*
X157185685Y-91530327D01*
X157185685Y-91530327D02*
X157266759Y-91599356D01*
X157266759Y-91599356D02*
X157301597Y-91656988D01*
X157301597Y-91656988D02*
X157325039Y-91760855D01*
X154761905Y-108413295D02*
X155238095Y-108413295D01*
X154666667Y-108127580D02*
X155000000Y-109127580D01*
X155000000Y-109127580D02*
X155333333Y-108127580D01*
X152584434Y-91194636D02*
X153046786Y-91080670D01*
X153046786Y-91080670D02*
X153206988Y-91531625D01*
X153206988Y-91531625D02*
X153149356Y-91496786D01*
X153149356Y-91496786D02*
X153045489Y-91473344D01*
X153045489Y-91473344D02*
X152814313Y-91530328D01*
X152814313Y-91530328D02*
X152733239Y-91599356D01*
X152733239Y-91599356D02*
X152698401Y-91656988D01*
X152698401Y-91656988D02*
X152674959Y-91760855D01*
X152674959Y-91760855D02*
X152731942Y-91992031D01*
X152731942Y-91992031D02*
X152800971Y-92073104D01*
X152800971Y-92073104D02*
X152858603Y-92107943D01*
X152858603Y-92107943D02*
X152962470Y-92131385D01*
X152962470Y-92131385D02*
X153193646Y-92074401D01*
X153193646Y-92074401D02*
X153274719Y-92005373D01*
X153274719Y-92005373D02*
X153309558Y-91947741D01*
X163045359Y-101168759D02*
X163068321Y-100979672D01*
X163068321Y-100979672D02*
X163127074Y-100890869D01*
X163127074Y-100890869D02*
X163180086Y-100849338D01*
X163180086Y-100849338D02*
X163333383Y-100772016D01*
X163333383Y-100772016D02*
X163528211Y-100747707D01*
X163528211Y-100747707D02*
X163906385Y-100793632D01*
X163906385Y-100793632D02*
X163995187Y-100852385D01*
X163995187Y-100852385D02*
X164036719Y-100905397D01*
X164036719Y-100905397D02*
X164072509Y-101005681D01*
X164072509Y-101005681D02*
X164049547Y-101194768D01*
X164049547Y-101194768D02*
X163990794Y-101283571D01*
X163990794Y-101283571D02*
X163937781Y-101325103D01*
X163937781Y-101325103D02*
X163837497Y-101360893D01*
X163837497Y-101360893D02*
X163601139Y-101332190D01*
X163601139Y-101332190D02*
X163512336Y-101273437D01*
X163512336Y-101273437D02*
X163470804Y-101220425D01*
X163470804Y-101220425D02*
X163435014Y-101120141D01*
X163435014Y-101120141D02*
X163457976Y-100931054D01*
X163457976Y-100931054D02*
X163516729Y-100842251D01*
X163516729Y-100842251D02*
X163569742Y-100800719D01*
X163569742Y-100800719D02*
X163670026Y-100764929D01*
X162484794Y-105224255D02*
X162538896Y-105145877D01*
X162538896Y-105145877D02*
X162553809Y-105040447D01*
X162553809Y-105040447D02*
X162541670Y-104974206D01*
X162541670Y-104974206D02*
X162490343Y-104880914D01*
X162490343Y-104880914D02*
X162360636Y-104733521D01*
X162360636Y-104733521D02*
X162164689Y-104598265D01*
X162164689Y-104598265D02*
X161980880Y-104529250D01*
X161980880Y-104529250D02*
X161875450Y-104514337D01*
X161875450Y-104514337D02*
X161809210Y-104526475D01*
X161809210Y-104526475D02*
X161715918Y-104577803D01*
X161715918Y-104577803D02*
X161661816Y-104656182D01*
X161661816Y-104656182D02*
X161646903Y-104761612D01*
X161646903Y-104761612D02*
X161659041Y-104827852D01*
X161659041Y-104827852D02*
X161710369Y-104921144D01*
X161710369Y-104921144D02*
X161840076Y-105068538D01*
X161840076Y-105068538D02*
X162036023Y-105203794D01*
X162036023Y-105203794D02*
X162219832Y-105272809D01*
X162219832Y-105272809D02*
X162325261Y-105287721D01*
X162325261Y-105287721D02*
X162391502Y-105275583D01*
X162391502Y-105275583D02*
X162484794Y-105224255D01*
X145999071Y-100805114D02*
X145957540Y-100858126D01*
X145957540Y-100858126D02*
X145921749Y-100958411D01*
X145921749Y-100958411D02*
X145950452Y-101194769D01*
X145950452Y-101194769D02*
X146009205Y-101283572D01*
X146009205Y-101283572D02*
X146062218Y-101325103D01*
X146062218Y-101325103D02*
X146162502Y-101360894D01*
X146162502Y-101360894D02*
X146257045Y-101349413D01*
X146257045Y-101349413D02*
X146393120Y-101284919D01*
X146393120Y-101284919D02*
X146891494Y-100648771D01*
X146891494Y-100648771D02*
X146966122Y-101263304D01*
X146583762Y-96451647D02*
X146364247Y-97030467D01*
X146364247Y-97030467D02*
X146838644Y-96853881D01*
X146838644Y-96853881D02*
X146787987Y-96987455D01*
X146787987Y-96987455D02*
X146798740Y-97093390D01*
X146798740Y-97093390D02*
X146826379Y-97154800D01*
X146826379Y-97154800D02*
X146898542Y-97233097D01*
X146898542Y-97233097D02*
X147121166Y-97317525D01*
X147121166Y-97317525D02*
X147227101Y-97306772D01*
X147227101Y-97306772D02*
X147288511Y-97279133D01*
X147288511Y-97279133D02*
X147366807Y-97206970D01*
X147366807Y-97206970D02*
X147468122Y-96939822D01*
X147468122Y-96939822D02*
X147457369Y-96833887D01*
X147457369Y-96833887D02*
X147429730Y-96772477D01*
X151094337Y-107236686D02*
X151074302Y-107172391D01*
X151074302Y-107172391D02*
X150969937Y-107063838D01*
X150969937Y-107063838D02*
X150885608Y-107019580D01*
X150885608Y-107019580D02*
X150736984Y-106995356D01*
X150736984Y-106995356D02*
X150608396Y-107035426D01*
X150608396Y-107035426D02*
X150521972Y-107097626D01*
X150521972Y-107097626D02*
X150391290Y-107244156D01*
X150391290Y-107244156D02*
X150324901Y-107370650D01*
X150324901Y-107370650D02*
X150278548Y-107561438D01*
X150278548Y-107561438D02*
X150276454Y-107667897D01*
X150276454Y-107667897D02*
X150316525Y-107796485D01*
X150316525Y-107796485D02*
X150420889Y-107905038D01*
X150420889Y-107905038D02*
X150505219Y-107949297D01*
X150505219Y-107949297D02*
X150653842Y-107973521D01*
X150653842Y-107973521D02*
X150718136Y-107953485D01*
X151939725Y-107572816D02*
X151518078Y-107351521D01*
X151518078Y-107351521D02*
X151053360Y-108236980D01*
X161302214Y-93388957D02*
X160803211Y-92946871D01*
X160803211Y-92946871D02*
X160460869Y-93979573D01*
X149025757Y-93543726D02*
X149467843Y-94042729D01*
X148951351Y-93100694D02*
X149603231Y-93477452D01*
X149603231Y-93477452D02*
X149139871Y-93887961D01*
X158652674Y-107369462D02*
X158588380Y-107349427D01*
X158588380Y-107349427D02*
X158439756Y-107373651D01*
X158439756Y-107373651D02*
X158355427Y-107417910D01*
X158355427Y-107417910D02*
X158251062Y-107526463D01*
X158251062Y-107526463D02*
X158210992Y-107655051D01*
X158210992Y-107655051D02*
X158213086Y-107761510D01*
X158213086Y-107761510D02*
X158259439Y-107952298D01*
X158259439Y-107952298D02*
X158325827Y-108078792D01*
X158325827Y-108078792D02*
X158456510Y-108225321D01*
X158456510Y-108225321D02*
X158542933Y-108287521D01*
X158542933Y-108287521D02*
X158671522Y-108327592D01*
X158671522Y-108327592D02*
X158820145Y-108303368D01*
X158820145Y-108303368D02*
X158904475Y-108259109D01*
X158904475Y-108259109D02*
X159008839Y-108150556D01*
X159008839Y-108150556D02*
X159028874Y-108086262D01*
X159493873Y-106820415D02*
X159420015Y-107396968D01*
X158987897Y-107085968D02*
X159452616Y-107971426D01*
X159452616Y-107971426D02*
X159789933Y-107794391D01*
X159789933Y-107794391D02*
X159852133Y-107707967D01*
X159852133Y-107707967D02*
X159872168Y-107643673D01*
X159872168Y-107643673D02*
X159870074Y-107537214D01*
X159870074Y-107537214D02*
X159803686Y-107410720D01*
X159803686Y-107410720D02*
X159717262Y-107348520D01*
X159717262Y-107348520D02*
X159652968Y-107328485D01*
X159652968Y-107328485D02*
X159546509Y-107330579D01*
X159546509Y-107330579D02*
X159209192Y-107507615D01*
X148473439Y-104852130D02*
X148148826Y-104381857D01*
X148311132Y-104616993D02*
X147488155Y-105185067D01*
X147488155Y-105185067D02*
X147551621Y-105025535D01*
X147551621Y-105025535D02*
X147575897Y-104893054D01*
X147575897Y-104893054D02*
X147560984Y-104787624D01*
X130190476Y-101042580D02*
X130523809Y-100042580D01*
X130523809Y-100042580D02*
X130857142Y-101042580D01*
X131095238Y-101042580D02*
X131714285Y-101042580D01*
X131714285Y-101042580D02*
X131380952Y-100661628D01*
X131380952Y-100661628D02*
X131523809Y-100661628D01*
X131523809Y-100661628D02*
X131619047Y-100614009D01*
X131619047Y-100614009D02*
X131666666Y-100566390D01*
X131666666Y-100566390D02*
X131714285Y-100471152D01*
X131714285Y-100471152D02*
X131714285Y-100233057D01*
X131714285Y-100233057D02*
X131666666Y-100137819D01*
X131666666Y-100137819D02*
X131619047Y-100090200D01*
X131619047Y-100090200D02*
X131523809Y-100042580D01*
X131523809Y-100042580D02*
X131238095Y-100042580D01*
X131238095Y-100042580D02*
X131142857Y-100090200D01*
X131142857Y-100090200D02*
X131095238Y-100137819D01*
X125025757Y-93543726D02*
X125467843Y-94042729D01*
X124951351Y-93100694D02*
X125603231Y-93477452D01*
X125603231Y-93477452D02*
X125139871Y-93887961D01*
X128584434Y-91194636D02*
X129046786Y-91080670D01*
X129046786Y-91080670D02*
X129206988Y-91531625D01*
X129206988Y-91531625D02*
X129149356Y-91496786D01*
X129149356Y-91496786D02*
X129045489Y-91473344D01*
X129045489Y-91473344D02*
X128814313Y-91530328D01*
X128814313Y-91530328D02*
X128733239Y-91599356D01*
X128733239Y-91599356D02*
X128698401Y-91656988D01*
X128698401Y-91656988D02*
X128674959Y-91760855D01*
X128674959Y-91760855D02*
X128731942Y-91992031D01*
X128731942Y-91992031D02*
X128800971Y-92073104D01*
X128800971Y-92073104D02*
X128858603Y-92107943D01*
X128858603Y-92107943D02*
X128962470Y-92131385D01*
X128962470Y-92131385D02*
X129193646Y-92074401D01*
X129193646Y-92074401D02*
X129274719Y-92005373D01*
X129274719Y-92005373D02*
X129309558Y-91947741D01*
X124473439Y-104852130D02*
X124148826Y-104381857D01*
X124311132Y-104616993D02*
X123488155Y-105185067D01*
X123488155Y-105185067D02*
X123551621Y-105025535D01*
X123551621Y-105025535D02*
X123575897Y-104893054D01*
X123575897Y-104893054D02*
X123560984Y-104787624D01*
X122583762Y-96451647D02*
X122364247Y-97030467D01*
X122364247Y-97030467D02*
X122838644Y-96853881D01*
X122838644Y-96853881D02*
X122787987Y-96987455D01*
X122787987Y-96987455D02*
X122798740Y-97093390D01*
X122798740Y-97093390D02*
X122826379Y-97154800D01*
X122826379Y-97154800D02*
X122898542Y-97233097D01*
X122898542Y-97233097D02*
X123121166Y-97317525D01*
X123121166Y-97317525D02*
X123227101Y-97306772D01*
X123227101Y-97306772D02*
X123288511Y-97279133D01*
X123288511Y-97279133D02*
X123366807Y-97206970D01*
X123366807Y-97206970D02*
X123468122Y-96939822D01*
X123468122Y-96939822D02*
X123457369Y-96833887D01*
X123457369Y-96833887D02*
X123429730Y-96772477D01*
X139167487Y-97004340D02*
X139245783Y-97076503D01*
X139245783Y-97076503D02*
X139307194Y-97104142D01*
X139307194Y-97104142D02*
X139413129Y-97114895D01*
X139413129Y-97114895D02*
X139457653Y-97098010D01*
X139457653Y-97098010D02*
X139529817Y-97019713D01*
X139529817Y-97019713D02*
X139557456Y-96958303D01*
X139557456Y-96958303D02*
X139568209Y-96852368D01*
X139568209Y-96852368D02*
X139500666Y-96674269D01*
X139500666Y-96674269D02*
X139422370Y-96602106D01*
X139422370Y-96602106D02*
X139360959Y-96574467D01*
X139360959Y-96574467D02*
X139255024Y-96563714D01*
X139255024Y-96563714D02*
X139210500Y-96580600D01*
X139210500Y-96580600D02*
X139138336Y-96658896D01*
X139138336Y-96658896D02*
X139110697Y-96720306D01*
X139110697Y-96720306D02*
X139099944Y-96826241D01*
X139099944Y-96826241D02*
X139167487Y-97004340D01*
X139167487Y-97004340D02*
X139156734Y-97110275D01*
X139156734Y-97110275D02*
X139129095Y-97171685D01*
X139129095Y-97171685D02*
X139056932Y-97249981D01*
X139056932Y-97249981D02*
X138878833Y-97317525D01*
X138878833Y-97317525D02*
X138772898Y-97306771D01*
X138772898Y-97306771D02*
X138711487Y-97279133D01*
X138711487Y-97279133D02*
X138633191Y-97206969D01*
X138633191Y-97206969D02*
X138565648Y-97028870D01*
X138565648Y-97028870D02*
X138576401Y-96922935D01*
X138576401Y-96922935D02*
X138604040Y-96861525D01*
X138604040Y-96861525D02*
X138676204Y-96783229D01*
X138676204Y-96783229D02*
X138854302Y-96715686D01*
X138854302Y-96715686D02*
X138960237Y-96726439D01*
X138960237Y-96726439D02*
X139021648Y-96754078D01*
X139021648Y-96754078D02*
X139099944Y-96826241D01*
X121999071Y-100805114D02*
X121957540Y-100858126D01*
X121957540Y-100858126D02*
X121921749Y-100958411D01*
X121921749Y-100958411D02*
X121950452Y-101194769D01*
X121950452Y-101194769D02*
X122009205Y-101283572D01*
X122009205Y-101283572D02*
X122062218Y-101325103D01*
X122062218Y-101325103D02*
X122162502Y-101360894D01*
X122162502Y-101360894D02*
X122257045Y-101349413D01*
X122257045Y-101349413D02*
X122393120Y-101284919D01*
X122393120Y-101284919D02*
X122891494Y-100648771D01*
X122891494Y-100648771D02*
X122966122Y-101263304D01*
X127094337Y-107236686D02*
X127074302Y-107172391D01*
X127074302Y-107172391D02*
X126969937Y-107063838D01*
X126969937Y-107063838D02*
X126885608Y-107019580D01*
X126885608Y-107019580D02*
X126736984Y-106995356D01*
X126736984Y-106995356D02*
X126608396Y-107035426D01*
X126608396Y-107035426D02*
X126521972Y-107097626D01*
X126521972Y-107097626D02*
X126391290Y-107244156D01*
X126391290Y-107244156D02*
X126324901Y-107370650D01*
X126324901Y-107370650D02*
X126278548Y-107561438D01*
X126278548Y-107561438D02*
X126276454Y-107667897D01*
X126276454Y-107667897D02*
X126316525Y-107796485D01*
X126316525Y-107796485D02*
X126420889Y-107905038D01*
X126420889Y-107905038D02*
X126505219Y-107949297D01*
X126505219Y-107949297D02*
X126653842Y-107973521D01*
X126653842Y-107973521D02*
X126718136Y-107953485D01*
X127939725Y-107572816D02*
X127518078Y-107351521D01*
X127518078Y-107351521D02*
X127053360Y-108236980D01*
X132999447Y-91092066D02*
X133184388Y-91137653D01*
X133184388Y-91137653D02*
X133265462Y-91206681D01*
X133265462Y-91206681D02*
X133300300Y-91264313D01*
X133300300Y-91264313D02*
X133358580Y-91425812D01*
X133358580Y-91425812D02*
X133359229Y-91622149D01*
X133359229Y-91622149D02*
X133268056Y-91992031D01*
X133268056Y-91992031D02*
X133199027Y-92073104D01*
X133199027Y-92073104D02*
X133141395Y-92107943D01*
X133141395Y-92107943D02*
X133037528Y-92131384D01*
X133037528Y-92131384D02*
X132852588Y-92085798D01*
X132852588Y-92085798D02*
X132771514Y-92016769D01*
X132771514Y-92016769D02*
X132736676Y-91959138D01*
X132736676Y-91959138D02*
X132713234Y-91855271D01*
X132713234Y-91855271D02*
X132770217Y-91624095D01*
X132770217Y-91624095D02*
X132839246Y-91543021D01*
X132839246Y-91543021D02*
X132896877Y-91508183D01*
X132896877Y-91508183D02*
X133000744Y-91484741D01*
X133000744Y-91484741D02*
X133185685Y-91530327D01*
X133185685Y-91530327D02*
X133266759Y-91599356D01*
X133266759Y-91599356D02*
X133301597Y-91656988D01*
X133301597Y-91656988D02*
X133325039Y-91760855D01*
X137302214Y-93388957D02*
X136803211Y-92946871D01*
X136803211Y-92946871D02*
X136460869Y-93979573D01*
X139045359Y-101168759D02*
X139068321Y-100979672D01*
X139068321Y-100979672D02*
X139127074Y-100890869D01*
X139127074Y-100890869D02*
X139180086Y-100849338D01*
X139180086Y-100849338D02*
X139333383Y-100772016D01*
X139333383Y-100772016D02*
X139528211Y-100747707D01*
X139528211Y-100747707D02*
X139906385Y-100793632D01*
X139906385Y-100793632D02*
X139995187Y-100852385D01*
X139995187Y-100852385D02*
X140036719Y-100905397D01*
X140036719Y-100905397D02*
X140072509Y-101005681D01*
X140072509Y-101005681D02*
X140049547Y-101194768D01*
X140049547Y-101194768D02*
X139990794Y-101283571D01*
X139990794Y-101283571D02*
X139937781Y-101325103D01*
X139937781Y-101325103D02*
X139837497Y-101360893D01*
X139837497Y-101360893D02*
X139601139Y-101332190D01*
X139601139Y-101332190D02*
X139512336Y-101273437D01*
X139512336Y-101273437D02*
X139470804Y-101220425D01*
X139470804Y-101220425D02*
X139435014Y-101120141D01*
X139435014Y-101120141D02*
X139457976Y-100931054D01*
X139457976Y-100931054D02*
X139516729Y-100842251D01*
X139516729Y-100842251D02*
X139569742Y-100800719D01*
X139569742Y-100800719D02*
X139670026Y-100764929D01*
X138484794Y-105224255D02*
X138538896Y-105145877D01*
X138538896Y-105145877D02*
X138553809Y-105040447D01*
X138553809Y-105040447D02*
X138541670Y-104974206D01*
X138541670Y-104974206D02*
X138490343Y-104880914D01*
X138490343Y-104880914D02*
X138360636Y-104733521D01*
X138360636Y-104733521D02*
X138164689Y-104598265D01*
X138164689Y-104598265D02*
X137980880Y-104529250D01*
X137980880Y-104529250D02*
X137875450Y-104514337D01*
X137875450Y-104514337D02*
X137809210Y-104526475D01*
X137809210Y-104526475D02*
X137715918Y-104577803D01*
X137715918Y-104577803D02*
X137661816Y-104656182D01*
X137661816Y-104656182D02*
X137646903Y-104761612D01*
X137646903Y-104761612D02*
X137659041Y-104827852D01*
X137659041Y-104827852D02*
X137710369Y-104921144D01*
X137710369Y-104921144D02*
X137840076Y-105068538D01*
X137840076Y-105068538D02*
X138036023Y-105203794D01*
X138036023Y-105203794D02*
X138219832Y-105272809D01*
X138219832Y-105272809D02*
X138325261Y-105287721D01*
X138325261Y-105287721D02*
X138391502Y-105275583D01*
X138391502Y-105275583D02*
X138484794Y-105224255D01*
X130761905Y-108413295D02*
X131238095Y-108413295D01*
X130666667Y-108127580D02*
X131000000Y-109127580D01*
X131000000Y-109127580D02*
X131333333Y-108127580D01*
X134652674Y-107369462D02*
X134588380Y-107349427D01*
X134588380Y-107349427D02*
X134439756Y-107373651D01*
X134439756Y-107373651D02*
X134355427Y-107417910D01*
X134355427Y-107417910D02*
X134251062Y-107526463D01*
X134251062Y-107526463D02*
X134210992Y-107655051D01*
X134210992Y-107655051D02*
X134213086Y-107761510D01*
X134213086Y-107761510D02*
X134259439Y-107952298D01*
X134259439Y-107952298D02*
X134325827Y-108078792D01*
X134325827Y-108078792D02*
X134456510Y-108225321D01*
X134456510Y-108225321D02*
X134542933Y-108287521D01*
X134542933Y-108287521D02*
X134671522Y-108327592D01*
X134671522Y-108327592D02*
X134820145Y-108303368D01*
X134820145Y-108303368D02*
X134904475Y-108259109D01*
X134904475Y-108259109D02*
X135008839Y-108150556D01*
X135008839Y-108150556D02*
X135028874Y-108086262D01*
X135493873Y-106820415D02*
X135420015Y-107396968D01*
X134987897Y-107085968D02*
X135452616Y-107971426D01*
X135452616Y-107971426D02*
X135789933Y-107794391D01*
X135789933Y-107794391D02*
X135852133Y-107707967D01*
X135852133Y-107707967D02*
X135872168Y-107643673D01*
X135872168Y-107643673D02*
X135870074Y-107537214D01*
X135870074Y-107537214D02*
X135803686Y-107410720D01*
X135803686Y-107410720D02*
X135717262Y-107348520D01*
X135717262Y-107348520D02*
X135652968Y-107328485D01*
X135652968Y-107328485D02*
X135546509Y-107330579D01*
X135546509Y-107330579D02*
X135209192Y-107507615D01*
G04 #@! TO.C,V4*
X193500000Y-100000000D02*
G75*
G02*
X174500000Y-100000000I-9500000J0D01*
G01*
X174500000Y-100000000D02*
G75*
G02*
X193500000Y-100000000I9500000J0D01*
G01*
G04 #@! TO.C,V5*
X217500000Y-100000000D02*
G75*
G02*
X198500000Y-100000000I-9500000J0D01*
G01*
X198500000Y-100000000D02*
G75*
G02*
X217500000Y-100000000I9500000J0D01*
G01*
G04 #@! TO.C,V2*
X111500000Y-100000000D02*
G75*
G02*
X92500000Y-100000000I-9500000J0D01*
G01*
X92500000Y-100000000D02*
G75*
G02*
X111500000Y-100000000I9500000J0D01*
G01*
G04 #@! TO.C,V6*
X87500000Y-100000000D02*
G75*
G02*
X68500000Y-100000000I-9500000J0D01*
G01*
X68500000Y-100000000D02*
G75*
G02*
X87500000Y-100000000I9500000J0D01*
G01*
G04 #@! TO.C,V1*
X164500000Y-100000000D02*
G75*
G02*
X145500000Y-100000000I-9500000J0D01*
G01*
X145500000Y-100000000D02*
G75*
G02*
X164500000Y-100000000I9500000J0D01*
G01*
G04 #@! TO.C,V3*
X140500000Y-100000000D02*
G75*
G02*
X121500000Y-100000000I-9500000J0D01*
G01*
X121500000Y-100000000D02*
G75*
G02*
X140500000Y-100000000I9500000J0D01*
G01*
G04 #@! TD*
%LPC*%
D11*
G04 #@! TO.C,U14*
X45085000Y-80000000D03*
D12*
X45385000Y-83030000D03*
X50235000Y-83030000D03*
D11*
X50535000Y-80000000D03*
G04 #@! TD*
D13*
G04 #@! TO.C,V4*
X184000000Y-105500000D03*
D14*
X181444023Y-104870008D03*
X179473589Y-103124356D03*
X178540101Y-100662952D03*
X178857411Y-98049673D03*
X180352825Y-95883191D03*
X182683764Y-94659820D03*
X185316236Y-94659820D03*
X187647175Y-95883191D03*
X189142589Y-98049673D03*
X189459899Y-100662952D03*
X188526411Y-103124356D03*
X186555977Y-104870008D03*
G04 #@! TD*
D13*
G04 #@! TO.C,V5*
X208000000Y-105500000D03*
D14*
X205444023Y-104870008D03*
X203473589Y-103124356D03*
X202540101Y-100662952D03*
X202857411Y-98049673D03*
X204352825Y-95883191D03*
X206683764Y-94659820D03*
X209316236Y-94659820D03*
X211647175Y-95883191D03*
X213142589Y-98049673D03*
X213459899Y-100662952D03*
X212526411Y-103124356D03*
X210555977Y-104870008D03*
G04 #@! TD*
D13*
G04 #@! TO.C,V2*
X102000000Y-105500000D03*
D14*
X99444023Y-104870008D03*
X97473589Y-103124356D03*
X96540101Y-100662952D03*
X96857411Y-98049673D03*
X98352825Y-95883191D03*
X100683764Y-94659820D03*
X103316236Y-94659820D03*
X105647175Y-95883191D03*
X107142589Y-98049673D03*
X107459899Y-100662952D03*
X106526411Y-103124356D03*
X104555977Y-104870008D03*
G04 #@! TD*
D13*
G04 #@! TO.C,V6*
X78000000Y-105500000D03*
D14*
X75444023Y-104870008D03*
X73473589Y-103124356D03*
X72540101Y-100662952D03*
X72857411Y-98049673D03*
X74352825Y-95883191D03*
X76683764Y-94659820D03*
X79316236Y-94659820D03*
X81647175Y-95883191D03*
X83142589Y-98049673D03*
X83459899Y-100662952D03*
X82526411Y-103124356D03*
X80555977Y-104870008D03*
G04 #@! TD*
D13*
G04 #@! TO.C,V1*
X155000000Y-105500000D03*
D14*
X152444023Y-104870008D03*
X150473589Y-103124356D03*
X149540101Y-100662952D03*
X149857411Y-98049673D03*
X151352825Y-95883191D03*
X153683764Y-94659820D03*
X156316236Y-94659820D03*
X158647175Y-95883191D03*
X160142589Y-98049673D03*
X160459899Y-100662952D03*
X159526411Y-103124356D03*
X157555977Y-104870008D03*
G04 #@! TD*
D13*
G04 #@! TO.C,V3*
X131000000Y-105500000D03*
D14*
X128444023Y-104870008D03*
X126473589Y-103124356D03*
X125540101Y-100662952D03*
X125857411Y-98049673D03*
X127352825Y-95883191D03*
X129683764Y-94659820D03*
X132316236Y-94659820D03*
X134647175Y-95883191D03*
X136142589Y-98049673D03*
X136459899Y-100662952D03*
X135526411Y-103124356D03*
X133555977Y-104870008D03*
G04 #@! TD*
%LPD*%
M02*
