G04 #@! TF.GenerationSoftware,KiCad,Pcbnew,8.0.5+1*
G04 #@! TF.CreationDate,2024-11-03T00:00:47+00:00*
G04 #@! TF.ProjectId,nixie_clock,6e697869-655f-4636-9c6f-636b2e6b6963,rev?*
G04 #@! TF.SameCoordinates,Original*
G04 #@! TF.FileFunction,Soldermask,Bot*
G04 #@! TF.FilePolarity,Negative*
%FSLAX46Y46*%
G04 Gerber Fmt 4.6, Leading zero omitted, Abs format (unit mm)*
G04 Created by KiCad (PCBNEW 8.0.5+1) date 2024-11-03 00:00:47*
%MOMM*%
%LPD*%
G01*
G04 APERTURE LIST*
%ADD10O,1.800000X1.800000*%
%ADD11O,1.500000X1.500000*%
%ADD12O,2.000000X3.000000*%
%ADD13C,2.000000*%
G04 APERTURE END LIST*
D10*
G04 #@! TO.C,U14*
X45085000Y-80000000D03*
D11*
X45385000Y-83030000D03*
X50235000Y-83030000D03*
D10*
X50535000Y-80000000D03*
G04 #@! TD*
D12*
G04 #@! TO.C,V4*
X184000000Y-105500000D03*
D13*
X181444023Y-104870008D03*
X179473589Y-103124356D03*
X178540101Y-100662952D03*
X178857411Y-98049673D03*
X180352825Y-95883191D03*
X182683764Y-94659820D03*
X185316236Y-94659820D03*
X187647175Y-95883191D03*
X189142589Y-98049673D03*
X189459899Y-100662952D03*
X188526411Y-103124356D03*
X186555977Y-104870008D03*
G04 #@! TD*
D12*
G04 #@! TO.C,V5*
X208000000Y-105500000D03*
D13*
X205444023Y-104870008D03*
X203473589Y-103124356D03*
X202540101Y-100662952D03*
X202857411Y-98049673D03*
X204352825Y-95883191D03*
X206683764Y-94659820D03*
X209316236Y-94659820D03*
X211647175Y-95883191D03*
X213142589Y-98049673D03*
X213459899Y-100662952D03*
X212526411Y-103124356D03*
X210555977Y-104870008D03*
G04 #@! TD*
D12*
G04 #@! TO.C,V2*
X102000000Y-105500000D03*
D13*
X99444023Y-104870008D03*
X97473589Y-103124356D03*
X96540101Y-100662952D03*
X96857411Y-98049673D03*
X98352825Y-95883191D03*
X100683764Y-94659820D03*
X103316236Y-94659820D03*
X105647175Y-95883191D03*
X107142589Y-98049673D03*
X107459899Y-100662952D03*
X106526411Y-103124356D03*
X104555977Y-104870008D03*
G04 #@! TD*
D12*
G04 #@! TO.C,V6*
X78000000Y-105500000D03*
D13*
X75444023Y-104870008D03*
X73473589Y-103124356D03*
X72540101Y-100662952D03*
X72857411Y-98049673D03*
X74352825Y-95883191D03*
X76683764Y-94659820D03*
X79316236Y-94659820D03*
X81647175Y-95883191D03*
X83142589Y-98049673D03*
X83459899Y-100662952D03*
X82526411Y-103124356D03*
X80555977Y-104870008D03*
G04 #@! TD*
D12*
G04 #@! TO.C,V1*
X155000000Y-105500000D03*
D13*
X152444023Y-104870008D03*
X150473589Y-103124356D03*
X149540101Y-100662952D03*
X149857411Y-98049673D03*
X151352825Y-95883191D03*
X153683764Y-94659820D03*
X156316236Y-94659820D03*
X158647175Y-95883191D03*
X160142589Y-98049673D03*
X160459899Y-100662952D03*
X159526411Y-103124356D03*
X157555977Y-104870008D03*
G04 #@! TD*
D12*
G04 #@! TO.C,V3*
X131000000Y-105500000D03*
D13*
X128444023Y-104870008D03*
X126473589Y-103124356D03*
X125540101Y-100662952D03*
X125857411Y-98049673D03*
X127352825Y-95883191D03*
X129683764Y-94659820D03*
X132316236Y-94659820D03*
X134647175Y-95883191D03*
X136142589Y-98049673D03*
X136459899Y-100662952D03*
X135526411Y-103124356D03*
X133555977Y-104870008D03*
G04 #@! TD*
M02*
